<?xml version="1.0" encoding="utf-8"?>
<!-- Generator: Adobe Illustrator 25.2.3, SVG Export Plug-In . SVG Version: 6.00 Build 0)  -->
<svg version="1.1"
	 id="Layer_1" xmlns:cc="http://creativecommons.org/ns#" xmlns:dc="http://purl.org/dc/elements/1.1/" xmlns:inkscape="http://www.inkscape.org/namespaces/inkscape" xmlns:rdf="http://www.w3.org/1999/02/22-rdf-syntax-ns#" xmlns:svg="http://www.w3.org/2000/svg"
	 xmlns="http://www.w3.org/2000/svg" xmlns:xlink="http://www.w3.org/1999/xlink" x="0px" y="0px" viewBox="0 0 1776.3 537.3"
	 style="enable-background:new 0 0 1776.3 537.3;" xml:space="preserve">
<style type="text/css">
	
		.st0{display:none;fill:none;stroke:#000000;stroke-width:0.5669;stroke-linecap:round;stroke-linejoin:round;stroke-miterlimit:11.3386;}
	.st1{display:none;enable-background:new    ;}
	.st2{font-family:'ArialMT';}
	.st3{font-size:28.3465px;}
	.st4{display:none;fill:#FF0000;stroke:#000000;stroke-width:7.200000e-02;stroke-miterlimit:10;enable-background:new    ;}
	.st5{font-size:11.3386px;}
	.st6{fill:none;stroke:#000000;stroke-width:7.200000e-02;stroke-linecap:round;stroke-linejoin:round;stroke-miterlimit:11.3386;}
	.st7{display:none;}
	
		.st8{display:inline;fill:none;stroke:#0000FF;stroke-width:0.5669;stroke-linecap:round;stroke-linejoin:round;stroke-miterlimit:11.3386;}
	.st9{display:inline;fill:#FF0000;}
	
		.st10{display:inline;fill:none;stroke:#000000;stroke-width:0.5669;stroke-linecap:round;stroke-linejoin:round;stroke-miterlimit:11.3386;}
</style>
<g id="p-0">
	<path class="st0" d="M28.6,509h283.5v-28.3H28.6V509z"/>
	<text transform="matrix(1 0 0 1 123.1016 480.6152)" class="st1 st2 st3">100mm</text>
</g>
<g id="p-1">
	<text transform="matrix(1 0 0 1 418.2861 367.9688)" class="st4 st2 st5">Wall 1</text>
	<path class="st6" d="M15.7,437.4h13.9c0.3,0,0-0.3,0,0v6.8c0,0.2,0.1,0.3,0.3,0.3h14.2c0.2,0,0.3-0.1,0.3-0.3v-6.8c0-0.3-0.3,0,0,0
		H58c0.3,0,0-0.3,0,0v6.8c0,0.2,0.1,0.3,0.3,0.3h14.2c0.2,0,0.3-0.1,0.3-0.3v-6.8c0-0.3-0.3,0,0,0h13.6c0.3,0,0-0.3,0,0v6.8
		c0,0.2,0.1,0.3,0.3,0.3h14.2c0.2,0,0.3-0.1,0.3-0.3v-6.8c0-0.3-0.3,0,0,0h13.6c0.3,0,0-0.3,0,0v6.8c0,0.2,0.1,0.3,0.3,0.3h14.2
		c0.2,0,0.3-0.1,0.3-0.3v-6.8c0-0.3-0.3,0,0,0H143c0.3,0,0-0.3,0,0v6.8c0,0.2,0.1,0.3,0.3,0.3h14.2c0.2,0,0.3-0.1,0.3-0.3v-6.8
		c0-0.3-0.3,0,0,0h13.6c0.3,0,0-0.3,0,0v6.8c0,0.2,0.1,0.3,0.3,0.3h14.2c0.2,0,0.3-0.1,0.3-0.3v-6.8c0-0.3-0.3,0,0,0h13.6
		c0.3,0,0-0.3,0,0v6.8c0,0.2,0.1,0.3,0.3,0.3h14.2c0.2,0,0.3-0.1,0.3-0.3v-6.8c0-0.3-0.3,0,0,0H228c0.3,0,0-0.3,0,0v6.8
		c0,0.2,0.1,0.3,0.3,0.3h14.2c0.2,0,0.3-0.1,0.3-0.3v-6.8c0-0.3-0.3,0,0,0h13.6c0.3,0,0-0.3,0,0v6.8c0,0.2,0.1,0.3,0.3,0.3h14.2
		c0.2,0,0.3-0.1,0.3-0.3v-6.8c0-0.3-0.3,0,0,0h13.6c0.3,0,0-0.3,0,0v6.8c0,0.2,0.1,0.3,0.3,0.3h14.2c0.2,0,0.3-0.1,0.3-0.3v-6.8
		c0-0.3-0.3,0,0,0h13.6c0.3,0,0-0.3,0,0v6.8c0,0.2,0.1,0.3,0.3,0.3h14.2c0.2,0,0.3-0.1,0.3-0.3v-6.8c0-0.3-0.3,0,0,0h13.6
		c0.3,0,0-0.3,0,0v6.8c0,0.2,0.1,0.3,0.3,0.3h14.2c0.2,0,0.3-0.1,0.3-0.3v-6.8c0-0.3-0.3,0,0,0h13.6c0.3,0,0-0.3,0,0v6.8
		c0,0.2,0.1,0.3,0.3,0.3h14.2c0.2,0,0.3-0.1,0.3-0.3v-6.8c0-0.3-0.3,0,0,0h13.6c0.3,0,0-0.3,0,0v6.8c0,0.2,0.1,0.3,0.3,0.3h14.2
		c0.2,0,0.3-0.1,0.3-0.3v-6.8c0-0.3-0.3,0,0,0h13.6c0.3,0,0-0.3,0,0v6.8c0,0.2,0.1,0.3,0.3,0.3h14.2c0.2,0,0.3-0.1,0.3-0.3v-6.8
		c0-0.3-0.3,0,0,0h13.6c0.3,0,0-0.3,0,0v6.8c0,0.2,0.1,0.3,0.3,0.3h14.2c0.2,0,0.3-0.1,0.3-0.3v-6.8c0-0.3-0.3,0,0,0h13.6
		c0.3,0,0-0.3,0,0v6.8c0,0.2,0.1,0.3,0.3,0.3h14.2c0.2,0,0.3-0.1,0.3-0.3v-6.8c0-0.3-0.3,0,0,0h13.6c0.3,0,0-0.3,0,0v6.8
		c0,0.2,0.1,0.3,0.3,0.3H526c0.2,0,0.3-0.1,0.3-0.3v-6.8c0-0.3-0.3,0,0,0h13.6c0.3,0,0-0.3,0,0v6.8c0,0.2,0.1,0.3,0.3,0.3h14.2
		c0.2,0,0.3-0.1,0.3-0.3v-6.8c0-0.3-0.3,0,0,0h13.6c0.3,0,0-0.3,0,0v6.8c0,0.2,0.1,0.3,0.3,0.3h14.2c0.2,0,0.3-0.1,0.3-0.3v-6.8
		c0-0.3-0.3,0,0,0h13.6c0.3,0,0-0.3,0,0v6.8c0,0.2,0.1,0.3,0.3,0.3H611c0.2,0,0.3-0.1,0.3-0.3v-6.8c0-0.3-0.3,0,0,0h13.6
		c0.3,0,0-0.3,0,0v6.8c0,0.2,0.1,0.3,0.3,0.3h14.2c0.2,0,0.3-0.1,0.3-0.3v-6.8c0-0.3-0.3,0,0,0h13.6c0.3,0,0-0.3,0,0v6.8
		c0,0.2,0.1,0.3,0.3,0.3h14.2c0.2,0,0.3-0.1,0.3-0.3v-6.8c0-0.3-0.3,0,0,0h13.6c0.3,0,0-0.3,0,0v6.8c0,0.2,0.1,0.3,0.3,0.3H696
		c0.2,0,0.3-0.1,0.3-0.3v-6.8c0-0.3-0.3,0,0,0h13.6c0.3,0,0-0.3,0,0v6.8c0,0.2,0.1,0.3,0.3,0.3h14.2c0.2,0,0.3-0.1,0.3-0.3v-6.8
		c0-0.3-0.3,0,0,0h13.6c0.3,0,0-0.3,0,0v6.8c0,0.2,0.1,0.3,0.3,0.3h14.2c0.2,0,0.3-0.1,0.3-0.3v-6.8c0-0.3-0.3,0,0,0h13.6
		c0.3,0,0-0.3,0,0v6.8c0,0.2,0.1,0.3,0.3,0.3h14.2c0.2,0,0.3-0.1,0.3-0.3v-6.8c0-0.3-0.3,0,0,0H795c0.3,0,0-0.3,0,0v6.8
		c0,0.2,0.1,0.3,0.3,0.3h14.2c0.2,0,0.3-0.1,0.3-0.3v-6.8c0-0.3-0.3,0,0,0h13.6c0.3,0,0-0.3,0,0v6.8c0,0.2,0.1,0.3,0.3,0.3h14.2
		c0.2,0,0.3-0.1,0.3-0.3v-6.8c0-0.3-0.3,0,0,0h13.9h7.1c0.2,0,0.3-0.1,0.3-0.3V423c0-0.2-0.1-0.3-0.3-0.3h-6.8c-0.3,0,0,0.3,0,0
		v-13.6c0-0.3-0.3,0,0,0h6.8c0.2,0,0.3-0.1,0.3-0.3v-14.2c0-0.2-0.1-0.3-0.3-0.3h-6.8c-0.3,0,0,0.3,0,0v-13.6c0-0.3-0.3,0,0,0h6.8
		c0.2,0,0.3-0.1,0.3-0.3v-14.2c0-0.2-0.1-0.3-0.3-0.3h-6.8c-0.3,0,0,0.3,0,0v-13.6c0-0.3-0.3,0,0,0h6.8c0.2,0,0.3-0.1,0.3-0.3v-14.2
		c0-0.2-0.1-0.3-0.3-0.3h-6.8c-0.3,0,0,0.3,0,0V324c0-0.3-0.3,0,0,0h6.8c0.2,0,0.3-0.1,0.3-0.3v-14.2v-7.1c0-0.2-0.1-0.3-0.3-0.3
		h-7.1h-14.2c-0.2,0-0.3,0.1-0.3,0.3v6.8c0,0.3,0.3,0,0,0h-13.6c-0.3,0,0,0.3,0,0v-6.8c0-0.2-0.1-0.3-0.3-0.3h-14.2
		c-0.2,0-0.3,0.1-0.3,0.3v6.8c0,0.3,0.3,0,0,0h-13.6c-0.3,0,0,0.3,0,0v-6.8c0-0.2-0.1-0.3-0.3-0.3h-14.2c-0.2,0-0.3,0.1-0.3,0.3v6.8
		c0,0.3,0.3,0,0,0h-13.6c-0.3,0,0,0.3,0,0v-6.8c0-0.2-0.1-0.3-0.3-0.3h-14.2c-0.2,0-0.3,0.1-0.3,0.3v6.8c0,0.3,0.3,0,0,0h-13.6
		c-0.3,0,0,0.3,0,0v-6.8c0-0.2-0.1-0.3-0.3-0.3h-14.2c-0.2,0-0.3,0.1-0.3,0.3v6.8c0,0.3,0.3,0,0,0h-13.6c-0.3,0,0,0.3,0,0v-6.8
		c0-0.2-0.1-0.3-0.3-0.3H696c-0.2,0-0.3,0.1-0.3,0.3v6.8c0,0.3,0.3,0,0,0h-13.6c-0.3,0,0,0.3,0,0v-6.8c0-0.2-0.1-0.3-0.3-0.3h-14.2
		c-0.2,0-0.3,0.1-0.3,0.3v6.8c0,0.3,0.3,0,0,0h-13.6c-0.3,0,0,0.3,0,0v-6.8c0-0.2-0.1-0.3-0.3-0.3h-14.2c-0.2,0-0.3,0.1-0.3,0.3v6.8
		c0,0.3,0.3,0,0,0h-13.6c-0.3,0,0,0.3,0,0v-6.8c0-0.2-0.1-0.3-0.3-0.3H611c-0.2,0-0.3,0.1-0.3,0.3v6.8c0,0.3,0.3,0,0,0h-13.6
		c-0.3,0,0,0.3,0,0v-6.8c0-0.2-0.1-0.3-0.3-0.3h-14.2c-0.2,0-0.3,0.1-0.3,0.3v6.8c0,0.3,0.3,0,0,0h-13.6c-0.3,0,0,0.3,0,0v-6.8
		c0-0.2-0.1-0.3-0.3-0.3h-14.2c-0.2,0-0.3,0.1-0.3,0.3v6.8c0,0.3,0.3,0,0,0h-13.6c-0.3,0,0,0.3,0,0v-6.8c0-0.2-0.1-0.3-0.3-0.3H526
		c-0.2,0-0.3,0.1-0.3,0.3v6.8c0,0.3,0.3,0,0,0h-13.6c-0.3,0,0,0.3,0,0v-6.8c0-0.2-0.1-0.3-0.3-0.3h-14.2c-0.2,0-0.3,0.1-0.3,0.3v6.8
		c0,0.3,0.3,0,0,0h-13.6c-0.3,0,0,0.3,0,0v-6.8c0-0.2-0.1-0.3-0.3-0.3h-14.2c-0.2,0-0.3,0.1-0.3,0.3v6.8c0,0.3,0.3,0,0,0h-13.6
		c-0.3,0,0,0.3,0,0v-6.8c0-0.2-0.1-0.3-0.3-0.3h-14.2c-0.2,0-0.3,0.1-0.3,0.3v6.8c0,0.3,0.3,0,0,0H427c-0.3,0,0,0.3,0,0v-6.8
		c0-0.2-0.1-0.3-0.3-0.3h-14.2c-0.2,0-0.3,0.1-0.3,0.3v6.8c0,0.3,0.3,0,0,0h-13.6c-0.3,0,0,0.3,0,0v-6.8c0-0.2-0.1-0.3-0.3-0.3
		h-14.2c-0.2,0-0.3,0.1-0.3,0.3v6.8c0,0.3,0.3,0,0,0h-13.6c-0.3,0,0,0.3,0,0v-6.8c0-0.2-0.1-0.3-0.3-0.3h-14.2
		c-0.2,0-0.3,0.1-0.3,0.3v6.8c0,0.3,0.3,0,0,0H342c-0.3,0,0,0.3,0,0v-6.8c0-0.2-0.1-0.3-0.3-0.3h-14.2c-0.2,0-0.3,0.1-0.3,0.3v6.8
		c0,0.3,0.3,0,0,0h-13.6c-0.3,0,0,0.3,0,0v-6.8c0-0.2-0.1-0.3-0.3-0.3h-14.2c-0.2,0-0.3,0.1-0.3,0.3v6.8c0,0.3,0.3,0,0,0h-13.6
		c-0.3,0,0,0.3,0,0v-6.8c0-0.2-0.1-0.3-0.3-0.3h-14.2c-0.2,0-0.3,0.1-0.3,0.3v6.8c0,0.3,0.3,0,0,0h-13.6c-0.3,0,0,0.3,0,0v-6.8
		c0-0.2-0.1-0.3-0.3-0.3h-14.2c-0.2,0-0.3,0.1-0.3,0.3v6.8c0,0.3,0.3,0,0,0h-13.6c-0.3,0,0,0.3,0,0v-6.8c0-0.2-0.1-0.3-0.3-0.3
		h-14.2c-0.2,0-0.3,0.1-0.3,0.3v6.8c0,0.3,0.3,0,0,0h-13.6c-0.3,0,0,0.3,0,0v-6.8c0-0.2-0.1-0.3-0.3-0.3h-14.2
		c-0.2,0-0.3,0.1-0.3,0.3v6.8c0,0.3,0.3,0,0,0h-13.6c-0.3,0,0,0.3,0,0v-6.8c0-0.2-0.1-0.3-0.3-0.3h-14.2c-0.2,0-0.3,0.1-0.3,0.3v6.8
		c0,0.3,0.3,0,0,0h-13.6c-0.3,0,0,0.3,0,0v-6.8c0-0.2-0.1-0.3-0.3-0.3h-14.2c-0.2,0-0.3,0.1-0.3,0.3v6.8c0,0.3,0.3,0,0,0h-13.6
		c-0.3,0,0,0.3,0,0v-6.8c0-0.2-0.1-0.3-0.3-0.3h-14.2c-0.2,0-0.3,0.1-0.3,0.3v6.8c0,0.3,0.3,0,0,0H86.9c-0.3,0,0,0.3,0,0v-6.8
		c0-0.2-0.1-0.3-0.3-0.3H72.4c-0.2,0-0.3,0.1-0.3,0.3v6.8c0,0.3,0.3,0,0,0H58.5c-0.3,0,0,0.3,0,0v-6.8c0-0.2-0.1-0.3-0.3-0.3H44.1
		c-0.2,0-0.3,0.1-0.3,0.3v6.8c0,0.3,0.3,0,0,0H30.2c-0.3,0,0,0.3,0,0v-6.8c0-0.2-0.1-0.3-0.3-0.3H15.7H8.6c-0.2,0-0.3,0.1-0.3,0.3
		v7.1v14.2c0,0.2,0.1,0.3,0.3,0.3h6.8c0.3,0,0-0.3,0,0v13.6c0,0.3,0.3,0,0,0H8.6c-0.2,0-0.3,0.1-0.3,0.3v14.2c0,0.2,0.1,0.3,0.3,0.3
		h6.8c0.3,0,0-0.3,0,0V366c0,0.3,0.3,0,0,0H8.6c-0.2,0-0.3,0.1-0.3,0.3v14.2c0,0.2,0.1,0.3,0.3,0.3h6.8c0.3,0,0-0.3,0,0v13.6
		c0,0.3,0.3,0,0,0H8.6c-0.2,0-0.3,0.1-0.3,0.3v14.2c0,0.2,0.1,0.3,0.3,0.3h6.8c0.3,0,0-0.3,0,0v13.6c0,0.3,0.3,0,0,0H8.6
		c-0.2,0-0.3,0.1-0.3,0.3v14.2c0,0.2,0.1,0.3,0.3,0.3H15.7"/>
</g>
<g id="p-2">
	<text transform="matrix(1 0 0 1 918.459 221.9688)" class="st4 st2 st5">Wall 2</text>
	<path class="st6" d="M870.2,291.4h13.9c0.3,0,0-0.3,0,0v6.8c0,0.2,0.1,0.3,0.3,0.3h14.2c0.2,0,0.3-0.1,0.3-0.3v-6.8
		c0-0.3-0.3,0,0,0h13.6c0.3,0,0-0.3,0,0v6.8c0,0.2,0.1,0.3,0.3,0.3h14.2c0.2,0,0.3-0.1,0.3-0.3v-6.8c0-0.3-0.3,0,0,0h13.6
		c0.3,0,0-0.3,0,0v6.8c0,0.2,0.1,0.3,0.3,0.3h14.2c0.2,0,0.3-0.1,0.3-0.3v-6.8c0-0.3-0.3,0,0,0h13.6c0.3,0,0-0.3,0,0v6.8
		c0,0.2,0.1,0.3,0.3,0.3h14.2c0.2,0,0.3-0.1,0.3-0.3v-6.8c0-0.3-0.3,0,0,0h13.9c0.2,0,0.3-0.1,0.3-0.3v-13.9c0-0.3-0.3,0,0,0h6.8
		c0.2,0,0.3-0.1,0.3-0.3v-14.2c0-0.2-0.1-0.3-0.3-0.3h-6.8c-0.3,0,0,0.3,0,0v-13.6c0-0.3-0.3,0,0,0h6.8c0.2,0,0.3-0.1,0.3-0.3v-14.2
		c0-0.2-0.1-0.3-0.3-0.3h-6.8c-0.3,0,0,0.3,0,0v-13.6c0-0.3-0.3,0,0,0h6.8c0.2,0,0.3-0.1,0.3-0.3v-14.2c0-0.2-0.1-0.3-0.3-0.3h-6.8
		c-0.3,0,0,0.3,0,0v-13.6c0-0.3-0.3,0,0,0h6.8c0.2,0,0.3-0.1,0.3-0.3v-14.2c0-0.2-0.1-0.3-0.3-0.3h-6.8c-0.3,0,0,0.3,0,0v-13.9v-7.1
		c0-0.2-0.1-0.3-0.3-0.3h-14.2c-0.2,0-0.3,0.1-0.3,0.3v6.8c0,0.3,0.3,0,0,0h-13.6c-0.3,0,0,0.3,0,0v-6.8c0-0.2-0.1-0.3-0.3-0.3
		h-14.2c-0.2,0-0.3,0.1-0.3,0.3v6.8c0,0.3,0.3,0,0,0h-13.6c-0.3,0,0,0.3,0,0v-6.8c0-0.2-0.1-0.3-0.3-0.3h-14.2
		c-0.2,0-0.3,0.1-0.3,0.3v6.8c0,0.3,0.3,0,0,0H913c-0.3,0,0,0.3,0,0v-6.8c0-0.2-0.1-0.3-0.3-0.3h-14.2c-0.2,0-0.3,0.1-0.3,0.3v6.8
		c0,0.3,0.3,0,0,0h-13.6c-0.3,0,0,0.3,0,0v-6.8c0-0.2-0.1-0.3-0.3-0.3h-14.2c-0.2,0-0.3,0.1-0.3,0.3v7.1v13.9c0,0.3,0.3,0,0,0h-6.8
		c-0.2,0-0.3,0.1-0.3,0.3v14.2c0,0.2,0.1,0.3,0.3,0.3h6.8c0.3,0,0-0.3,0,0v13.6c0,0.3,0.3,0,0,0h-6.8c-0.2,0-0.3,0.1-0.3,0.3v14.2
		c0,0.2,0.1,0.3,0.3,0.3h6.8c0.3,0,0-0.3,0,0v13.6c0,0.3,0.3,0,0,0h-6.8c-0.2,0-0.3,0.1-0.3,0.3v14.2c0,0.2,0.1,0.3,0.3,0.3h6.8
		c0.3,0,0-0.3,0,0v13.6c0,0.3,0.3,0,0,0h-6.8c-0.2,0-0.3,0.1-0.3,0.3V277c0,0.2,0.1,0.3,0.3,0.3h6.8c0.3,0,0-0.3,0,0v13.9
		C869.9,291.3,870.1,291.4,870.2,291.4"/>
</g>
<g id="p-3">
	<text transform="matrix(1 0 0 1 918.459 76.127)" class="st4 st2 st5">Wall 4</text>
	<path class="st6" d="M870.2,145.6h13.9c0.3,0,0-0.3,0,0v6.8c0,0.2,0.1,0.3,0.3,0.3h14.2c0.2,0,0.3-0.1,0.3-0.3v-6.8
		c0-0.3-0.3,0,0,0h13.6c0.3,0,0-0.3,0,0v6.8c0,0.2,0.1,0.3,0.3,0.3h14.2c0.2,0,0.3-0.1,0.3-0.3v-6.8c0-0.3-0.3,0,0,0h13.6
		c0.3,0,0-0.3,0,0v6.8c0,0.2,0.1,0.3,0.3,0.3h14.2c0.2,0,0.3-0.1,0.3-0.3v-6.8c0-0.3-0.3,0,0,0h13.6c0.3,0,0-0.3,0,0v6.8
		c0,0.2,0.1,0.3,0.3,0.3h14.2c0.2,0,0.3-0.1,0.3-0.3v-6.8c0-0.3-0.3,0,0,0h13.9c0.2,0,0.3-0.1,0.3-0.3v-13.9c0-0.3-0.3,0,0,0h6.8
		c0.2,0,0.3-0.1,0.3-0.3v-14.2c0-0.2-0.1-0.3-0.3-0.3h-6.8c-0.3,0,0,0.3,0,0v-13.6c0-0.3-0.3,0,0,0h6.8c0.2,0,0.3-0.1,0.3-0.3V88.6
		c0-0.2-0.1-0.3-0.3-0.3h-6.8c-0.3,0,0,0.3,0,0V74.7c0-0.3-0.3,0,0,0h6.8c0.2,0,0.3-0.1,0.3-0.3V60.3c0-0.2-0.1-0.3-0.3-0.3h-6.8
		c-0.3,0,0,0.3,0,0V46.4c0-0.3-0.3,0,0,0h6.8c0.2,0,0.3-0.1,0.3-0.3V31.9c0-0.2-0.1-0.3-0.3-0.3h-6.8c-0.3,0,0,0.3,0,0V17.7v-7.1
		c0-0.2-0.1-0.3-0.3-0.3h-14.2c-0.2,0-0.3,0.1-0.3,0.3v6.8c0,0.3,0.3,0,0,0h-13.6c-0.3,0,0,0.3,0,0v-6.8c0-0.2-0.1-0.3-0.3-0.3
		h-14.2c-0.2,0-0.3,0.1-0.3,0.3v6.8c0,0.3,0.3,0,0,0h-13.6c-0.3,0,0,0.3,0,0v-6.8c0-0.2-0.1-0.3-0.3-0.3h-14.2
		c-0.2,0-0.3,0.1-0.3,0.3v6.8c0,0.3,0.3,0,0,0H913c-0.3,0,0,0.3,0,0v-6.8c0-0.2-0.1-0.3-0.3-0.3h-14.2c-0.2,0-0.3,0.1-0.3,0.3v6.8
		c0,0.3,0.3,0,0,0h-13.6c-0.3,0,0,0.3,0,0v-6.8c0-0.2-0.1-0.3-0.3-0.3h-14.2c-0.2,0-0.3,0.1-0.3,0.3v7.1v13.9c0,0.3,0.3,0,0,0h-6.8
		c-0.2,0-0.3,0.1-0.3,0.3v14.2c0,0.2,0.1,0.3,0.3,0.3h6.8c0.3,0,0-0.3,0,0V60c0,0.3,0.3,0,0,0h-6.8c-0.2,0-0.3,0.1-0.3,0.3v14.2
		c0,0.2,0.1,0.3,0.3,0.3h6.8c0.3,0,0-0.3,0,0v13.6c0,0.3,0.3,0,0,0h-6.8c-0.2,0-0.3,0.1-0.3,0.3v14.2c0,0.2,0.1,0.3,0.3,0.3h6.8
		c0.3,0,0-0.3,0,0v13.6c0,0.3,0.3,0,0,0h-6.8c-0.2,0-0.3,0.1-0.3,0.3v14.2c0,0.2,0.1,0.3,0.3,0.3h6.8c0.3,0,0-0.3,0,0v13.9
		C869.9,145.4,870.1,145.6,870.2,145.6"/>
</g>
<g id="p-4">
	<text transform="matrix(1 0 0 1 418.2861 222.127)" class="st4 st2 st5">Wall 3</text>
	<path class="st6" d="M15.7,291.6h13.9c0.3,0,0-0.3,0,0v6.8c0,0.2,0.1,0.3,0.3,0.3h14.2c0.2,0,0.3-0.1,0.3-0.3v-6.8c0-0.3-0.3,0,0,0
		H58c0.3,0,0-0.3,0,0v6.8c0,0.2,0.1,0.3,0.3,0.3h14.2c0.2,0,0.3-0.1,0.3-0.3v-6.8c0-0.3-0.3,0,0,0h13.6c0.3,0,0-0.3,0,0v6.8
		c0,0.2,0.1,0.3,0.3,0.3h14.2c0.2,0,0.3-0.1,0.3-0.3v-6.8c0-0.3-0.3,0,0,0h13.6c0.3,0,0-0.3,0,0v6.8c0,0.2,0.1,0.3,0.3,0.3h14.2
		c0.2,0,0.3-0.1,0.3-0.3v-6.8c0-0.3-0.3,0,0,0H143c0.3,0,0-0.3,0,0v6.8c0,0.2,0.1,0.3,0.3,0.3h14.2c0.2,0,0.3-0.1,0.3-0.3v-6.8
		c0-0.3-0.3,0,0,0h13.6c0.3,0,0-0.3,0,0v6.8c0,0.2,0.1,0.3,0.3,0.3h14.2c0.2,0,0.3-0.1,0.3-0.3v-6.8c0-0.3-0.3,0,0,0h13.6
		c0.3,0,0-0.3,0,0v6.8c0,0.2,0.1,0.3,0.3,0.3h14.2c0.2,0,0.3-0.1,0.3-0.3v-6.8c0-0.3-0.3,0,0,0H228c0.3,0,0-0.3,0,0v6.8
		c0,0.2,0.1,0.3,0.3,0.3h14.2c0.2,0,0.3-0.1,0.3-0.3v-6.8c0-0.3-0.3,0,0,0h13.6c0.3,0,0-0.3,0,0v6.8c0,0.2,0.1,0.3,0.3,0.3h14.2
		c0.2,0,0.3-0.1,0.3-0.3v-6.8c0-0.3-0.3,0,0,0h13.6c0.3,0,0-0.3,0,0v6.8c0,0.2,0.1,0.3,0.3,0.3h14.2c0.2,0,0.3-0.1,0.3-0.3v-6.8
		c0-0.3-0.3,0,0,0h13.6c0.3,0,0-0.3,0,0v6.8c0,0.2,0.1,0.3,0.3,0.3h14.2c0.2,0,0.3-0.1,0.3-0.3v-6.8c0-0.3-0.3,0,0,0h13.6
		c0.3,0,0-0.3,0,0v6.8c0,0.2,0.1,0.3,0.3,0.3h14.2c0.2,0,0.3-0.1,0.3-0.3v-6.8c0-0.3-0.3,0,0,0h13.6c0.3,0,0-0.3,0,0v6.8
		c0,0.2,0.1,0.3,0.3,0.3h14.2c0.2,0,0.3-0.1,0.3-0.3v-6.8c0-0.3-0.3,0,0,0h13.6c0.3,0,0-0.3,0,0v6.8c0,0.2,0.1,0.3,0.3,0.3h14.2
		c0.2,0,0.3-0.1,0.3-0.3v-6.8c0-0.3-0.3,0,0,0h13.6c0.3,0,0-0.3,0,0v6.8c0,0.2,0.1,0.3,0.3,0.3h14.2c0.2,0,0.3-0.1,0.3-0.3v-6.8
		c0-0.3-0.3,0,0,0h13.6c0.3,0,0-0.3,0,0v6.8c0,0.2,0.1,0.3,0.3,0.3h14.2c0.2,0,0.3-0.1,0.3-0.3v-6.8c0-0.3-0.3,0,0,0h13.6
		c0.3,0,0-0.3,0,0v6.8c0,0.2,0.1,0.3,0.3,0.3h14.2c0.2,0,0.3-0.1,0.3-0.3v-6.8c0-0.3-0.3,0,0,0h13.6c0.3,0,0-0.3,0,0v6.8
		c0,0.2,0.1,0.3,0.3,0.3H526c0.2,0,0.3-0.1,0.3-0.3v-6.8c0-0.3-0.3,0,0,0h13.6c0.3,0,0-0.3,0,0v6.8c0,0.2,0.1,0.3,0.3,0.3h14.2
		c0.2,0,0.3-0.1,0.3-0.3v-6.8c0-0.3-0.3,0,0,0h13.6c0.3,0,0-0.3,0,0v6.8c0,0.2,0.1,0.3,0.3,0.3h14.2c0.2,0,0.3-0.1,0.3-0.3v-6.8
		c0-0.3-0.3,0,0,0h13.6c0.3,0,0-0.3,0,0v6.8c0,0.2,0.1,0.3,0.3,0.3H611c0.2,0,0.3-0.1,0.3-0.3v-6.8c0-0.3-0.3,0,0,0h13.6
		c0.3,0,0-0.3,0,0v6.8c0,0.2,0.1,0.3,0.3,0.3h14.2c0.2,0,0.3-0.1,0.3-0.3v-6.8c0-0.3-0.3,0,0,0h13.6c0.3,0,0-0.3,0,0v6.8
		c0,0.2,0.1,0.3,0.3,0.3h14.2c0.2,0,0.3-0.1,0.3-0.3v-6.8c0-0.3-0.3,0,0,0h13.6c0.3,0,0-0.3,0,0v6.8c0,0.2,0.1,0.3,0.3,0.3H696
		c0.2,0,0.3-0.1,0.3-0.3v-6.8c0-0.3-0.3,0,0,0h13.6c0.3,0,0-0.3,0,0v6.8c0,0.2,0.1,0.3,0.3,0.3h14.2c0.2,0,0.3-0.1,0.3-0.3v-6.8
		c0-0.3-0.3,0,0,0h13.6c0.3,0,0-0.3,0,0v6.8c0,0.2,0.1,0.3,0.3,0.3h14.2c0.2,0,0.3-0.1,0.3-0.3v-6.8c0-0.3-0.3,0,0,0h13.6
		c0.3,0,0-0.3,0,0v6.8c0,0.2,0.1,0.3,0.3,0.3h14.2c0.2,0,0.3-0.1,0.3-0.3v-6.8c0-0.3-0.3,0,0,0H795c0.3,0,0-0.3,0,0v6.8
		c0,0.2,0.1,0.3,0.3,0.3h14.2c0.2,0,0.3-0.1,0.3-0.3v-6.8c0-0.3-0.3,0,0,0h13.6c0.3,0,0-0.3,0,0v6.8c0,0.2,0.1,0.3,0.3,0.3h14.2
		c0.2,0,0.3-0.1,0.3-0.3v-6.8c0-0.3-0.3,0,0,0h13.9h7.1c0.2,0,0.3-0.1,0.3-0.3v-14.2c0-0.2-0.1-0.3-0.3-0.3h-6.8c-0.3,0,0,0.3,0,0
		v-13.6c0-0.3-0.3,0,0,0h6.8c0.2,0,0.3-0.1,0.3-0.3v-14.2c0-0.2-0.1-0.3-0.3-0.3h-6.8c-0.3,0,0,0.3,0,0v-13.6c0-0.3-0.3,0,0,0h6.8
		c0.2,0,0.3-0.1,0.3-0.3v-14.2c0-0.2-0.1-0.3-0.3-0.3h-6.8c-0.3,0,0,0.3,0,0v-13.6c0-0.3-0.3,0,0,0h6.8c0.2,0,0.3-0.1,0.3-0.3v-14.2
		c0-0.2-0.1-0.3-0.3-0.3h-6.8c-0.3,0,0,0.3,0,0v-13.6c0-0.3-0.3,0,0,0h6.8c0.2,0,0.3-0.1,0.3-0.3v-14.2v-7.1c0-0.2-0.1-0.3-0.3-0.3
		h-7.1h-14.2c-0.2,0-0.3,0.1-0.3,0.3v6.8c0,0.3,0.3,0,0,0h-13.6c-0.3,0,0,0.3,0,0v-6.8c0-0.2-0.1-0.3-0.3-0.3h-14.2
		c-0.2,0-0.3,0.1-0.3,0.3v6.8c0,0.3,0.3,0,0,0h-13.6c-0.3,0,0,0.3,0,0v-6.8c0-0.2-0.1-0.3-0.3-0.3h-14.2c-0.2,0-0.3,0.1-0.3,0.3v6.8
		c0,0.3,0.3,0,0,0h-13.6c-0.3,0,0,0.3,0,0v-6.8c0-0.2-0.1-0.3-0.3-0.3h-14.2c-0.2,0-0.3,0.1-0.3,0.3v6.8c0,0.3,0.3,0,0,0h-13.6
		c-0.3,0,0,0.3,0,0v-6.8c0-0.2-0.1-0.3-0.3-0.3h-14.2c-0.2,0-0.3,0.1-0.3,0.3v6.8c0,0.3,0.3,0,0,0h-13.6c-0.3,0,0,0.3,0,0v-6.8
		c0-0.2-0.1-0.3-0.3-0.3H696c-0.2,0-0.3,0.1-0.3,0.3v6.8c0,0.3,0.3,0,0,0h-13.6c-0.3,0,0,0.3,0,0v-6.8c0-0.2-0.1-0.3-0.3-0.3h-14.2
		c-0.2,0-0.3,0.1-0.3,0.3v6.8c0,0.3,0.3,0,0,0h-13.6c-0.3,0,0,0.3,0,0v-6.8c0-0.2-0.1-0.3-0.3-0.3h-14.2c-0.2,0-0.3,0.1-0.3,0.3v6.8
		c0,0.3,0.3,0,0,0h-13.6c-0.3,0,0,0.3,0,0v-6.8c0-0.2-0.1-0.3-0.3-0.3H611c-0.2,0-0.3,0.1-0.3,0.3v6.8c0,0.3,0.3,0,0,0h-13.6
		c-0.3,0,0,0.3,0,0v-6.8c0-0.2-0.1-0.3-0.3-0.3h-14.2c-0.2,0-0.3,0.1-0.3,0.3v6.8c0,0.3,0.3,0,0,0h-13.6c-0.3,0,0,0.3,0,0v-6.8
		c0-0.2-0.1-0.3-0.3-0.3h-14.2c-0.2,0-0.3,0.1-0.3,0.3v6.8c0,0.3,0.3,0,0,0h-13.6c-0.3,0,0,0.3,0,0v-6.8c0-0.2-0.1-0.3-0.3-0.3H526
		c-0.2,0-0.3,0.1-0.3,0.3v6.8c0,0.3,0.3,0,0,0h-13.6c-0.3,0,0,0.3,0,0v-6.8c0-0.2-0.1-0.3-0.3-0.3h-14.2c-0.2,0-0.3,0.1-0.3,0.3v6.8
		c0,0.3,0.3,0,0,0h-13.6c-0.3,0,0,0.3,0,0v-6.8c0-0.2-0.1-0.3-0.3-0.3h-14.2c-0.2,0-0.3,0.1-0.3,0.3v6.8c0,0.3,0.3,0,0,0h-13.6
		c-0.3,0,0,0.3,0,0v-6.8c0-0.2-0.1-0.3-0.3-0.3h-14.2c-0.2,0-0.3,0.1-0.3,0.3v6.8c0,0.3,0.3,0,0,0H427c-0.3,0,0,0.3,0,0v-6.8
		c0-0.2-0.1-0.3-0.3-0.3h-14.2c-0.2,0-0.3,0.1-0.3,0.3v6.8c0,0.3,0.3,0,0,0h-13.6c-0.3,0,0,0.3,0,0v-6.8c0-0.2-0.1-0.3-0.3-0.3
		h-14.2c-0.2,0-0.3,0.1-0.3,0.3v6.8c0,0.3,0.3,0,0,0h-13.6c-0.3,0,0,0.3,0,0v-6.8c0-0.2-0.1-0.3-0.3-0.3h-14.2
		c-0.2,0-0.3,0.1-0.3,0.3v6.8c0,0.3,0.3,0,0,0H342c-0.3,0,0,0.3,0,0v-6.8c0-0.2-0.1-0.3-0.3-0.3h-14.2c-0.2,0-0.3,0.1-0.3,0.3v6.8
		c0,0.3,0.3,0,0,0h-13.6c-0.3,0,0,0.3,0,0v-6.8c0-0.2-0.1-0.3-0.3-0.3h-14.2c-0.2,0-0.3,0.1-0.3,0.3v6.8c0,0.3,0.3,0,0,0h-13.6
		c-0.3,0,0,0.3,0,0v-6.8c0-0.2-0.1-0.3-0.3-0.3h-14.2c-0.2,0-0.3,0.1-0.3,0.3v6.8c0,0.3,0.3,0,0,0h-13.6c-0.3,0,0,0.3,0,0v-6.8
		c0-0.2-0.1-0.3-0.3-0.3h-14.2c-0.2,0-0.3,0.1-0.3,0.3v6.8c0,0.3,0.3,0,0,0h-13.6c-0.3,0,0,0.3,0,0v-6.8c0-0.2-0.1-0.3-0.3-0.3
		h-14.2c-0.2,0-0.3,0.1-0.3,0.3v6.8c0,0.3,0.3,0,0,0h-13.6c-0.3,0,0,0.3,0,0v-6.8c0-0.2-0.1-0.3-0.3-0.3h-14.2
		c-0.2,0-0.3,0.1-0.3,0.3v6.8c0,0.3,0.3,0,0,0h-13.6c-0.3,0,0,0.3,0,0v-6.8c0-0.2-0.1-0.3-0.3-0.3h-14.2c-0.2,0-0.3,0.1-0.3,0.3v6.8
		c0,0.3,0.3,0,0,0h-13.6c-0.3,0,0,0.3,0,0v-6.8c0-0.2-0.1-0.3-0.3-0.3h-14.2c-0.2,0-0.3,0.1-0.3,0.3v6.8c0,0.3,0.3,0,0,0h-13.6
		c-0.3,0,0,0.3,0,0v-6.8c0-0.2-0.1-0.3-0.3-0.3h-14.2c-0.2,0-0.3,0.1-0.3,0.3v6.8c0,0.3,0.3,0,0,0H86.9c-0.3,0,0,0.3,0,0v-6.8
		c0-0.2-0.1-0.3-0.3-0.3H72.4c-0.2,0-0.3,0.1-0.3,0.3v6.8c0,0.3,0.3,0,0,0H58.5c-0.3,0,0,0.3,0,0v-6.8c0-0.2-0.1-0.3-0.3-0.3H44.1
		c-0.2,0-0.3,0.1-0.3,0.3v6.8c0,0.3,0.3,0,0,0H30.2c-0.3,0,0,0.3,0,0v-6.8c0-0.2-0.1-0.3-0.3-0.3H15.7H8.6c-0.2,0-0.3,0.1-0.3,0.3
		v7.1v14.2c0,0.2,0.1,0.3,0.3,0.3h6.8c0.3,0,0-0.3,0,0v13.6c0,0.3,0.3,0,0,0H8.6c-0.2,0-0.3,0.1-0.3,0.3v14.2c0,0.2,0.1,0.3,0.3,0.3
		h6.8c0.3,0,0-0.3,0,0v13.6c0,0.3,0.3,0,0,0H8.6c-0.2,0-0.3,0.1-0.3,0.3v14.2c0,0.2,0.1,0.3,0.3,0.3h6.8c0.3,0,0-0.3,0,0v13.6
		c0,0.3,0.3,0,0,0H8.6c-0.2,0-0.3,0.1-0.3,0.3v14.2c0,0.2,0.1,0.3,0.3,0.3h6.8c0.3,0,0-0.3,0,0v13.6c0,0.3,0.3,0,0,0H8.6
		c-0.2,0-0.3,0.1-0.3,0.3v14.2c0,0.2,0.1,0.3,0.3,0.3H15.7"/>
</g>
<g id="p-5">
	<text transform="matrix(1 0 0 1 424.6865 76.2832)" class="st4 st2 st5">Top</text>
	<path class="st6" d="M15.7,145.7h13.9c0.3,0,0-0.3,0,0v6.8c0,0.2,0.1,0.3,0.3,0.3h14.2c0.2,0,0.3-0.1,0.3-0.3v-6.8c0-0.3-0.3,0,0,0
		H58c0.3,0,0-0.3,0,0v6.8c0,0.2,0.1,0.3,0.3,0.3h14.2c0.2,0,0.3-0.1,0.3-0.3v-6.8c0-0.3-0.3,0,0,0h13.6c0.3,0,0-0.3,0,0v6.8
		c0,0.2,0.1,0.3,0.3,0.3h14.2c0.2,0,0.3-0.1,0.3-0.3v-6.8c0-0.3-0.3,0,0,0h13.6c0.3,0,0-0.3,0,0v6.8c0,0.2,0.1,0.3,0.3,0.3h14.2
		c0.2,0,0.3-0.1,0.3-0.3v-6.8c0-0.3-0.3,0,0,0H143c0.3,0,0-0.3,0,0v6.8c0,0.2,0.1,0.3,0.3,0.3h14.2c0.2,0,0.3-0.1,0.3-0.3v-6.8
		c0-0.3-0.3,0,0,0h13.6c0.3,0,0-0.3,0,0v6.8c0,0.2,0.1,0.3,0.3,0.3h14.2c0.2,0,0.3-0.1,0.3-0.3v-6.8c0-0.3-0.3,0,0,0h13.6
		c0.3,0,0-0.3,0,0v6.8c0,0.2,0.1,0.3,0.3,0.3h14.2c0.2,0,0.3-0.1,0.3-0.3v-6.8c0-0.3-0.3,0,0,0H228c0.3,0,0-0.3,0,0v6.8
		c0,0.2,0.1,0.3,0.3,0.3h14.2c0.2,0,0.3-0.1,0.3-0.3v-6.8c0-0.3-0.3,0,0,0h13.6c0.3,0,0-0.3,0,0v6.8c0,0.2,0.1,0.3,0.3,0.3h14.2
		c0.2,0,0.3-0.1,0.3-0.3v-6.8c0-0.3-0.3,0,0,0h13.6c0.3,0,0-0.3,0,0v6.8c0,0.2,0.1,0.3,0.3,0.3h14.2c0.2,0,0.3-0.1,0.3-0.3v-6.8
		c0-0.3-0.3,0,0,0h13.6c0.3,0,0-0.3,0,0v6.8c0,0.2,0.1,0.3,0.3,0.3h14.2c0.2,0,0.3-0.1,0.3-0.3v-6.8c0-0.3-0.3,0,0,0h13.6
		c0.3,0,0-0.3,0,0v6.8c0,0.2,0.1,0.3,0.3,0.3h14.2c0.2,0,0.3-0.1,0.3-0.3v-6.8c0-0.3-0.3,0,0,0h13.6c0.3,0,0-0.3,0,0v6.8
		c0,0.2,0.1,0.3,0.3,0.3h14.2c0.2,0,0.3-0.1,0.3-0.3v-6.8c0-0.3-0.3,0,0,0h13.6c0.3,0,0-0.3,0,0v6.8c0,0.2,0.1,0.3,0.3,0.3h14.2
		c0.2,0,0.3-0.1,0.3-0.3v-6.8c0-0.3-0.3,0,0,0h13.6c0.3,0,0-0.3,0,0v6.8c0,0.2,0.1,0.3,0.3,0.3h14.2c0.2,0,0.3-0.1,0.3-0.3v-6.8
		c0-0.3-0.3,0,0,0h13.6c0.3,0,0-0.3,0,0v6.8c0,0.2,0.1,0.3,0.3,0.3h14.2c0.2,0,0.3-0.1,0.3-0.3v-6.8c0-0.3-0.3,0,0,0h13.6
		c0.3,0,0-0.3,0,0v6.8c0,0.2,0.1,0.3,0.3,0.3h14.2c0.2,0,0.3-0.1,0.3-0.3v-6.8c0-0.3-0.3,0,0,0h13.6c0.3,0,0-0.3,0,0v6.8
		c0,0.2,0.1,0.3,0.3,0.3H526c0.2,0,0.3-0.1,0.3-0.3v-6.8c0-0.3-0.3,0,0,0h13.6c0.3,0,0-0.3,0,0v6.8c0,0.2,0.1,0.3,0.3,0.3h14.2
		c0.2,0,0.3-0.1,0.3-0.3v-6.8c0-0.3-0.3,0,0,0h13.6c0.3,0,0-0.3,0,0v6.8c0,0.2,0.1,0.3,0.3,0.3h14.2c0.2,0,0.3-0.1,0.3-0.3v-6.8
		c0-0.3-0.3,0,0,0h13.6c0.3,0,0-0.3,0,0v6.8c0,0.2,0.1,0.3,0.3,0.3H611c0.2,0,0.3-0.1,0.3-0.3v-6.8c0-0.3-0.3,0,0,0h13.6
		c0.3,0,0-0.3,0,0v6.8c0,0.2,0.1,0.3,0.3,0.3h14.2c0.2,0,0.3-0.1,0.3-0.3v-6.8c0-0.3-0.3,0,0,0h13.6c0.3,0,0-0.3,0,0v6.8
		c0,0.2,0.1,0.3,0.3,0.3h14.2c0.2,0,0.3-0.1,0.3-0.3v-6.8c0-0.3-0.3,0,0,0h13.6c0.3,0,0-0.3,0,0v6.8c0,0.2,0.1,0.3,0.3,0.3H696
		c0.2,0,0.3-0.1,0.3-0.3v-6.8c0-0.3-0.3,0,0,0h13.6c0.3,0,0-0.3,0,0v6.8c0,0.2,0.1,0.3,0.3,0.3h14.2c0.2,0,0.3-0.1,0.3-0.3v-6.8
		c0-0.3-0.3,0,0,0h13.6c0.3,0,0-0.3,0,0v6.8c0,0.2,0.1,0.3,0.3,0.3h14.2c0.2,0,0.3-0.1,0.3-0.3v-6.8c0-0.3-0.3,0,0,0h13.6
		c0.3,0,0-0.3,0,0v6.8c0,0.2,0.1,0.3,0.3,0.3h14.2c0.2,0,0.3-0.1,0.3-0.3v-6.8c0-0.3-0.3,0,0,0H795c0.3,0,0-0.3,0,0v6.8
		c0,0.2,0.1,0.3,0.3,0.3h14.2c0.2,0,0.3-0.1,0.3-0.3v-6.8c0-0.3-0.3,0,0,0h13.6c0.3,0,0-0.3,0,0v6.8c0,0.2,0.1,0.3,0.3,0.3h14.2
		c0.2,0,0.3-0.1,0.3-0.3v-6.8c0-0.3-0.3,0,0,0h13.9c0.2,0,0.3-0.1,0.3-0.3v-13.9c0-0.3-0.3,0,0,0h6.8c0.2,0,0.3-0.1,0.3-0.3v-14.2
		c0-0.2-0.1-0.3-0.3-0.3h-6.8c-0.3,0,0,0.3,0,0v-13.6c0-0.3-0.3,0,0,0h6.8c0.2,0,0.3-0.1,0.3-0.3V88.8c0-0.2-0.1-0.3-0.3-0.3h-6.8
		c-0.3,0,0,0.3,0,0V74.9c0-0.3-0.3,0,0,0h6.8c0.2,0,0.3-0.1,0.3-0.3V60.4c0-0.2-0.1-0.3-0.3-0.3h-6.8c-0.3,0,0,0.3,0,0V46.5
		c0-0.3-0.3,0,0,0h6.8c0.2,0,0.3-0.1,0.3-0.3V32.1c0-0.2-0.1-0.3-0.3-0.3h-6.8c-0.3,0,0,0.3,0,0V17.9c0-0.2-0.1-0.3-0.3-0.3H838
		c-0.3,0,0,0.3,0,0v-6.8c0-0.2-0.1-0.3-0.3-0.3h-14.2c-0.2,0-0.3,0.1-0.3,0.3v6.8c0,0.3,0.3,0,0,0h-13.6c-0.3,0,0,0.3,0,0v-6.8
		c0-0.2-0.1-0.3-0.3-0.3h-14.2c-0.2,0-0.3,0.1-0.3,0.3v6.8c0,0.3,0.3,0,0,0h-13.6c-0.3,0,0,0.3,0,0v-6.8c0-0.2-0.1-0.3-0.3-0.3
		h-14.2c-0.2,0-0.3,0.1-0.3,0.3v6.8c0,0.3,0.3,0,0,0H753c-0.3,0,0,0.3,0,0v-6.8c0-0.2-0.1-0.3-0.3-0.3h-14.2c-0.2,0-0.3,0.1-0.3,0.3
		v6.8c0,0.3,0.3,0,0,0h-13.6c-0.3,0,0,0.3,0,0v-6.8c0-0.2-0.1-0.3-0.3-0.3h-14.2c-0.2,0-0.3,0.1-0.3,0.3v6.8c0,0.3,0.3,0,0,0h-13.6
		c-0.3,0,0,0.3,0,0v-6.8c0-0.2-0.1-0.3-0.3-0.3h-14.2c-0.2,0-0.3,0.1-0.3,0.3v6.8c0,0.3,0.3,0,0,0H668c-0.3,0,0,0.3,0,0v-6.8
		c0-0.2-0.1-0.3-0.3-0.3h-14.2c-0.2,0-0.3,0.1-0.3,0.3v6.8c0,0.3,0.3,0,0,0h-13.6c-0.3,0,0,0.3,0,0v-6.8c0-0.2-0.1-0.3-0.3-0.3
		h-14.2c-0.2,0-0.3,0.1-0.3,0.3v6.8c0,0.3,0.3,0,0,0h-13.6c-0.3,0,0,0.3,0,0v-6.8c0-0.2-0.1-0.3-0.3-0.3h-14.2
		c-0.2,0-0.3,0.1-0.3,0.3v6.8c0,0.3,0.3,0,0,0h-13.6c-0.3,0,0,0.3,0,0v-6.8c0-0.2-0.1-0.3-0.3-0.3h-14.2c-0.2,0-0.3,0.1-0.3,0.3v6.8
		c0,0.3,0.3,0,0,0h-13.6c-0.3,0,0,0.3,0,0v-6.8c0-0.2-0.1-0.3-0.3-0.3h-14.2c-0.2,0-0.3,0.1-0.3,0.3v6.8c0,0.3,0.3,0,0,0h-13.6
		c-0.3,0,0,0.3,0,0v-6.8c0-0.2-0.1-0.3-0.3-0.3h-14.2c-0.2,0-0.3,0.1-0.3,0.3v6.8c0,0.3,0.3,0,0,0h-13.6c-0.3,0,0,0.3,0,0v-6.8
		c0-0.2-0.1-0.3-0.3-0.3h-14.2c-0.2,0-0.3,0.1-0.3,0.3v6.8c0,0.3,0.3,0,0,0h-13.6c-0.3,0,0,0.3,0,0v-6.8c0-0.2-0.1-0.3-0.3-0.3
		h-14.2c-0.2,0-0.3,0.1-0.3,0.3v6.8c0,0.3,0.3,0,0,0h-13.6c-0.3,0,0,0.3,0,0v-6.8c0-0.2-0.1-0.3-0.3-0.3h-14.2
		c-0.2,0-0.3,0.1-0.3,0.3v6.8c0,0.3,0.3,0,0,0h-13.6c-0.3,0,0,0.3,0,0v-6.8c0-0.2-0.1-0.3-0.3-0.3h-14.2c-0.2,0-0.3,0.1-0.3,0.3v6.8
		c0,0.3,0.3,0,0,0h-13.6c-0.3,0,0,0.3,0,0v-6.8c0-0.2-0.1-0.3-0.3-0.3H370c-0.2,0-0.3,0.1-0.3,0.3v6.8c0,0.3,0.3,0,0,0h-13.6
		c-0.3,0,0,0.3,0,0v-6.8c0-0.2-0.1-0.3-0.3-0.3h-14.2c-0.2,0-0.3,0.1-0.3,0.3v6.8c0,0.3,0.3,0,0,0h-13.6c-0.3,0,0,0.3,0,0v-6.8
		c0-0.2-0.1-0.3-0.3-0.3h-14.2c-0.2,0-0.3,0.1-0.3,0.3v6.8c0,0.3,0.3,0,0,0h-13.6c-0.3,0,0,0.3,0,0v-6.8c0-0.2-0.1-0.3-0.3-0.3H285
		c-0.2,0-0.3,0.1-0.3,0.3v6.8c0,0.3,0.3,0,0,0h-13.6c-0.3,0,0,0.3,0,0v-6.8c0-0.2-0.1-0.3-0.3-0.3h-14.2c-0.2,0-0.3,0.1-0.3,0.3v6.8
		c0,0.3,0.3,0,0,0h-13.6c-0.3,0,0,0.3,0,0v-6.8c0-0.2-0.1-0.3-0.3-0.3h-14.2c-0.2,0-0.3,0.1-0.3,0.3v6.8c0,0.3,0.3,0,0,0h-13.6
		c-0.3,0,0,0.3,0,0v-6.8c0-0.2-0.1-0.3-0.3-0.3H200c-0.2,0-0.3,0.1-0.3,0.3v6.8c0,0.3,0.3,0,0,0h-13.6c-0.3,0,0,0.3,0,0v-6.8
		c0-0.2-0.1-0.3-0.3-0.3h-14.2c-0.2,0-0.3,0.1-0.3,0.3v6.8c0,0.3,0.3,0,0,0h-13.6c-0.3,0,0,0.3,0,0v-6.8c0-0.2-0.1-0.3-0.3-0.3
		h-14.2c-0.2,0-0.3,0.1-0.3,0.3v6.8c0,0.3,0.3,0,0,0h-13.6c-0.3,0,0,0.3,0,0v-6.8c0-0.2-0.1-0.3-0.3-0.3h-14.2
		c-0.2,0-0.3,0.1-0.3,0.3v6.8c0,0.3,0.3,0,0,0H101c-0.3,0,0,0.3,0,0v-6.8c0-0.2-0.1-0.3-0.3-0.3H86.6c-0.2,0-0.3,0.1-0.3,0.3v6.8
		c0,0.3,0.3,0,0,0H72.7c-0.3,0,0,0.3,0,0v-6.8c0-0.2-0.1-0.3-0.3-0.3H58.2c-0.2,0-0.3,0.1-0.3,0.3v6.8c0,0.3,0.3,0,0,0H44.3
		c-0.3,0,0,0.3,0,0v-6.8c0-0.2-0.1-0.3-0.3-0.3H29.9c-0.2,0-0.3,0.1-0.3,0.3v6.8c0,0.3,0.3,0,0,0H15.7c-0.2,0-0.3,0.1-0.3,0.3v13.9
		c0,0.3,0.3,0,0,0H8.6c-0.2,0-0.3,0.1-0.3,0.3v14.2c0,0.2,0.1,0.3,0.3,0.3h6.8c0.3,0,0-0.3,0,0v13.6c0,0.3,0.3,0,0,0H8.6
		c-0.2,0-0.3,0.1-0.3,0.3v14.2c0,0.2,0.1,0.3,0.3,0.3h6.8c0.3,0,0-0.3,0,0v13.6c0,0.3,0.3,0,0,0H8.6c-0.2,0-0.3,0.1-0.3,0.3v14.2
		c0,0.2,0.1,0.3,0.3,0.3h6.8c0.3,0,0-0.3,0,0v13.6c0,0.3,0.3,0,0,0H8.6c-0.2,0-0.3,0.1-0.3,0.3v14.2c0,0.2,0.1,0.3,0.3,0.3h6.8
		c0.3,0,0-0.3,0,0v13.9C15.4,145.6,15.6,145.7,15.7,145.7"/>
</g>
<g id="p-6" class="st7">
	<path class="st8" d="M918.6,177.2h-6.8c-0.3,0,0,0.3,0,0v-6.5c0-0.3-0.3,0,0,0h13.6c0.3,0,0-0.3,0,0v6.5c0,0.3,0.3,0,0,0H918.6z"/>
	<path class="st8" d="M946.9,177.2h-6.8c-0.3,0,0,0.3,0,0v-6.5c0-0.3-0.3,0,0,0h13.6c0.3,0,0-0.3,0,0v6.5c0,0.3,0.3,0,0,0H946.9z"/>
	<path class="st8" d="M975.3,177.2h-6.8c-0.3,0,0,0.3,0,0v-6.5c0-0.3-0.3,0,0,0h13.6c0.3,0,0-0.3,0,0v6.5c0,0.3,0.3,0,0,0H975.3z"/>
	<path class="st8" d="M1003.6,177.2h-6.8c-0.3,0,0,0.3,0,0v-6.5c0-0.3-0.3,0,0,0h13.6c0.3,0,0-0.3,0,0v6.5c0,0.3,0.3,0,0,0H1003.6z"
		/>
	<path class="st8" d="M1032,177.2h-6.8c-0.3,0,0,0.3,0,0v-6.5c0-0.3-0.3,0,0,0h13.6c0.3,0,0-0.3,0,0v6.5c0,0.3,0.3,0,0,0H1032z"/>
	<path class="st8" d="M1060.3,177.2h-6.8c-0.3,0,0,0.3,0,0v-6.5c0-0.3-0.3,0,0,0h13.6c0.3,0,0-0.3,0,0v6.5c0,0.3,0.3,0,0,0H1060.3z"
		/>
	<path class="st8" d="M1088.6,177.2h-6.8c-0.3,0,0,0.3,0,0v-6.5c0-0.3-0.3,0,0,0h13.6c0.3,0,0-0.3,0,0v6.5c0,0.3,0.3,0,0,0H1088.6z"
		/>
	<path class="st8" d="M1117,177.2h-6.8c-0.3,0,0,0.3,0,0v-6.5c0-0.3-0.3,0,0,0h13.6c0.3,0,0-0.3,0,0v6.5c0,0.3,0.3,0,0,0H1117z"/>
	<path class="st8" d="M1145.3,177.2h-6.8c-0.3,0,0,0.3,0,0v-6.5c0-0.3-0.3,0,0,0h13.6c0.3,0,0-0.3,0,0v6.5c0,0.3,0.3,0,0,0H1145.3z"
		/>
	<path class="st8" d="M1173.7,177.2h-6.8c-0.3,0,0,0.3,0,0v-6.5c0-0.3-0.3,0,0,0h13.6c0.3,0,0-0.3,0,0v6.5c0,0.3,0.3,0,0,0H1173.7z"
		/>
	<path class="st8" d="M1202,177.2h-6.8c-0.3,0,0,0.3,0,0v-6.5c0-0.3-0.3,0,0,0h13.6c0.3,0,0-0.3,0,0v6.5c0,0.3,0.3,0,0,0H1202z"/>
	<path class="st8" d="M1230.4,177.2h-6.8c-0.3,0,0,0.3,0,0v-6.5c0-0.3-0.3,0,0,0h13.6c0.3,0,0-0.3,0,0v6.5c0,0.3,0.3,0,0,0H1230.4z"
		/>
	<path class="st8" d="M1258.7,177.2h-6.8c-0.3,0,0,0.3,0,0v-6.5c0-0.3-0.3,0,0,0h13.6c0.3,0,0-0.3,0,0v6.5c0,0.3,0.3,0,0,0H1258.7z"
		/>
	<path class="st8" d="M1287.1,177.2h-6.8c-0.3,0,0,0.3,0,0v-6.5c0-0.3-0.3,0,0,0h13.6c0.3,0,0-0.3,0,0v6.5c0,0.3,0.3,0,0,0H1287.1z"
		/>
	<path class="st8" d="M1315.4,177.2h-6.8c-0.3,0,0,0.3,0,0v-6.5c0-0.3-0.3,0,0,0h13.6c0.3,0,0-0.3,0,0v6.5c0,0.3,0.3,0,0,0H1315.4z"
		/>
	<path class="st8" d="M1343.8,177.2h-6.8c-0.3,0,0,0.3,0,0v-6.5c0-0.3-0.3,0,0,0h13.6c0.3,0,0-0.3,0,0v6.5c0,0.3,0.3,0,0,0H1343.8z"
		/>
	<path class="st8" d="M1372.1,177.2h-6.8c-0.3,0,0,0.3,0,0v-6.5c0-0.3-0.3,0,0,0h13.6c0.3,0,0-0.3,0,0v6.5c0,0.3,0.3,0,0,0H1372.1z"
		/>
	<path class="st8" d="M1400.5,177.2h-6.8c-0.3,0,0,0.3,0,0v-6.5c0-0.3-0.3,0,0,0h13.6c0.3,0,0-0.3,0,0v6.5c0,0.3,0.3,0,0,0H1400.5z"
		/>
	<path class="st8" d="M1428.8,177.2h-6.8c-0.3,0,0,0.3,0,0v-6.5c0-0.3-0.3,0,0,0h13.6c0.3,0,0-0.3,0,0v6.5c0,0.3,0.3,0,0,0H1428.8z"
		/>
	<path class="st8" d="M1457.1,177.2h-6.8c-0.3,0,0,0.3,0,0v-6.5c0-0.3-0.3,0,0,0h13.6c0.3,0,0-0.3,0,0v6.5c0,0.3,0.3,0,0,0H1457.1z"
		/>
	<path class="st8" d="M1485.5,177.2h-6.8c-0.3,0,0,0.3,0,0v-6.5c0-0.3-0.3,0,0,0h13.6c0.3,0,0-0.3,0,0v6.5c0,0.3,0.3,0,0,0H1485.5z"
		/>
	<path class="st8" d="M1513.8,177.2h-6.8c-0.3,0,0,0.3,0,0v-6.5c0-0.3-0.3,0,0,0h13.6c0.3,0,0-0.3,0,0v6.5c0,0.3,0.3,0,0,0H1513.8z"
		/>
	<path class="st8" d="M1542.2,177.2h-6.8c-0.3,0,0,0.3,0,0v-6.5c0-0.3-0.3,0,0,0h13.6c0.3,0,0-0.3,0,0v6.5c0,0.3,0.3,0,0,0H1542.2z"
		/>
	<path class="st8" d="M1570.5,177.2h-6.8c-0.3,0,0,0.3,0,0v-6.5c0-0.3-0.3,0,0,0h13.6c0.3,0,0-0.3,0,0v6.5c0,0.3,0.3,0,0,0H1570.5z"
		/>
	<path class="st8" d="M1598.9,177.2h-6.8c-0.3,0,0,0.3,0,0v-6.5c0-0.3-0.3,0,0,0h13.6c0.3,0,0-0.3,0,0v6.5c0,0.3,0.3,0,0,0H1598.9z"
		/>
	<path class="st8" d="M1627.2,177.2h-6.8c-0.3,0,0,0.3,0,0v-6.5c0-0.3-0.3,0,0,0h13.6c0.3,0,0-0.3,0,0v6.5c0,0.3,0.3,0,0,0H1627.2z"
		/>
	<path class="st8" d="M1655.6,177.2h-6.8c-0.3,0,0,0.3,0,0v-6.5c0-0.3-0.3,0,0,0h13.6c0.3,0,0-0.3,0,0v6.5c0,0.3,0.3,0,0,0H1655.6z"
		/>
	<path class="st8" d="M1683.9,177.2h-6.8c-0.3,0,0,0.3,0,0v-6.5c0-0.3-0.3,0,0,0h13.6c0.3,0,0-0.3,0,0v6.5c0,0.3,0.3,0,0,0H1683.9z"
		/>
	<path class="st8" d="M1712.3,177.2h-6.8c-0.3,0,0,0.3,0,0v-6.5c0-0.3-0.3,0,0,0h13.6c0.3,0,0-0.3,0,0v6.5c0,0.3,0.3,0,0,0H1712.3z"
		/>
	<text transform="matrix(1 0 0 1 1302.4951 101.1973)" class="st9 st2 st5">Base</text>
	<path class="st10" d="M897.3,184.8h836.2h14.2c0.2,0,0.3-0.1,0.3-0.3v-14.2V42.8V28.6c0-0.2-0.1-0.3-0.3-0.3h-14.2H897.3h-14.2
		c-0.2,0-0.3,0.1-0.3,0.3v14.2v127.6v14.2c0,0.2,0.1,0.3,0.3,0.3H897.3"/>
	<path class="st8" d="M1740.3,149.1v6.8c0,0.3,0.3,0,0,0h-6.5c-0.3,0,0,0.3,0,0v-13.6c0-0.3-0.3,0,0,0h6.5c0.3,0,0-0.3,0,0V149.1z"
		/>
	<path class="st8" d="M1740.3,120.8v6.8c0,0.3,0.3,0,0,0h-6.5c-0.3,0,0,0.3,0,0V114c0-0.3-0.3,0,0,0h6.5c0.3,0,0-0.3,0,0V120.8z"/>
	<path class="st8" d="M1740.3,92.4v6.8c0,0.3,0.3,0,0,0h-6.5c-0.3,0,0,0.3,0,0V85.6c0-0.3-0.3,0,0,0h6.5c0.3,0,0-0.3,0,0V92.4z"/>
	<path class="st8" d="M1740.3,64.1v6.8c0,0.3,0.3,0,0,0h-6.5c-0.3,0,0,0.3,0,0V57.3c0-0.3-0.3,0,0,0h6.5c0.3,0,0-0.3,0,0V64.1z"/>
	<path class="st8" d="M1712.3,36h6.8c0.3,0,0-0.3,0,0v6.5c0,0.3,0.3,0,0,0h-13.6c-0.3,0,0,0.3,0,0V36c0-0.3-0.3,0,0,0H1712.3z"/>
	<path class="st8" d="M1683.9,36h6.8c0.3,0,0-0.3,0,0v6.5c0,0.3,0.3,0,0,0h-13.6c-0.3,0,0,0.3,0,0V36c0-0.3-0.3,0,0,0H1683.9z"/>
	<path class="st8" d="M1655.6,36h6.8c0.3,0,0-0.3,0,0v6.5c0,0.3,0.3,0,0,0h-13.6c-0.3,0,0,0.3,0,0V36c0-0.3-0.3,0,0,0H1655.6z"/>
	<path class="st8" d="M1627.2,36h6.8c0.3,0,0-0.3,0,0v6.5c0,0.3,0.3,0,0,0h-13.6c-0.3,0,0,0.3,0,0V36c0-0.3-0.3,0,0,0H1627.2z"/>
	<path class="st8" d="M1598.9,36h6.8c0.3,0,0-0.3,0,0v6.5c0,0.3,0.3,0,0,0h-13.6c-0.3,0,0,0.3,0,0V36c0-0.3-0.3,0,0,0H1598.9z"/>
	<path class="st8" d="M1570.5,36h6.8c0.3,0,0-0.3,0,0v6.5c0,0.3,0.3,0,0,0h-13.6c-0.3,0,0,0.3,0,0V36c0-0.3-0.3,0,0,0H1570.5z"/>
	<path class="st8" d="M1542.2,36h6.8c0.3,0,0-0.3,0,0v6.5c0,0.3,0.3,0,0,0h-13.6c-0.3,0,0,0.3,0,0V36c0-0.3-0.3,0,0,0H1542.2z"/>
	<path class="st8" d="M1513.8,36h6.8c0.3,0,0-0.3,0,0v6.5c0,0.3,0.3,0,0,0H1507c-0.3,0,0,0.3,0,0V36c0-0.3-0.3,0,0,0H1513.8z"/>
	<path class="st8" d="M1485.5,36h6.8c0.3,0,0-0.3,0,0v6.5c0,0.3,0.3,0,0,0h-13.6c-0.3,0,0,0.3,0,0V36c0-0.3-0.3,0,0,0H1485.5z"/>
	<path class="st8" d="M1457.1,36h6.8c0.3,0,0-0.3,0,0v6.5c0,0.3,0.3,0,0,0h-13.6c-0.3,0,0,0.3,0,0V36c0-0.3-0.3,0,0,0H1457.1z"/>
	<path class="st8" d="M1428.8,36h6.8c0.3,0,0-0.3,0,0v6.5c0,0.3,0.3,0,0,0H1422c-0.3,0,0,0.3,0,0V36c0-0.3-0.3,0,0,0H1428.8z"/>
	<path class="st8" d="M1400.5,36h6.8c0.3,0,0-0.3,0,0v6.5c0,0.3,0.3,0,0,0h-13.6c-0.3,0,0,0.3,0,0V36c0-0.3-0.3,0,0,0H1400.5z"/>
	<path class="st8" d="M1372.1,36h6.8c0.3,0,0-0.3,0,0v6.5c0,0.3,0.3,0,0,0h-13.6c-0.3,0,0,0.3,0,0V36c0-0.3-0.3,0,0,0H1372.1z"/>
	<path class="st8" d="M1343.8,36h6.8c0.3,0,0-0.3,0,0v6.5c0,0.3,0.3,0,0,0H1337c-0.3,0,0,0.3,0,0V36c0-0.3-0.3,0,0,0H1343.8z"/>
	<path class="st8" d="M1315.4,36h6.8c0.3,0,0-0.3,0,0v6.5c0,0.3,0.3,0,0,0h-13.6c-0.3,0,0,0.3,0,0V36c0-0.3-0.3,0,0,0H1315.4z"/>
	<path class="st8" d="M1287.1,36h6.8c0.3,0,0-0.3,0,0v6.5c0,0.3,0.3,0,0,0h-13.6c-0.3,0,0,0.3,0,0V36c0-0.3-0.3,0,0,0H1287.1z"/>
	<path class="st8" d="M1258.7,36h6.8c0.3,0,0-0.3,0,0v6.5c0,0.3,0.3,0,0,0h-13.6c-0.3,0,0,0.3,0,0V36c0-0.3-0.3,0,0,0H1258.7z"/>
	<path class="st8" d="M1230.4,36h6.8c0.3,0,0-0.3,0,0v6.5c0,0.3,0.3,0,0,0h-13.6c-0.3,0,0,0.3,0,0V36c0-0.3-0.3,0,0,0H1230.4z"/>
	<path class="st8" d="M1202,36h6.8c0.3,0,0-0.3,0,0v6.5c0,0.3,0.3,0,0,0h-13.6c-0.3,0,0,0.3,0,0V36c0-0.3-0.3,0,0,0H1202z"/>
	<path class="st8" d="M1173.7,36h6.8c0.3,0,0-0.3,0,0v6.5c0,0.3,0.3,0,0,0h-13.6c-0.3,0,0,0.3,0,0V36c0-0.3-0.3,0,0,0H1173.7z"/>
	<path class="st8" d="M1145.3,36h6.8c0.3,0,0-0.3,0,0v6.5c0,0.3,0.3,0,0,0h-13.6c-0.3,0,0,0.3,0,0V36c0-0.3-0.3,0,0,0H1145.3z"/>
	<path class="st8" d="M1117,36h6.8c0.3,0,0-0.3,0,0v6.5c0,0.3,0.3,0,0,0h-13.6c-0.3,0,0,0.3,0,0V36c0-0.3-0.3,0,0,0H1117z"/>
	<path class="st8" d="M1088.6,36h6.8c0.3,0,0-0.3,0,0v6.5c0,0.3,0.3,0,0,0h-13.6c-0.3,0,0,0.3,0,0V36c0-0.3-0.3,0,0,0H1088.6z"/>
	<path class="st8" d="M1060.3,36h6.8c0.3,0,0-0.3,0,0v6.5c0,0.3,0.3,0,0,0h-13.6c-0.3,0,0,0.3,0,0V36c0-0.3-0.3,0,0,0H1060.3z"/>
	<path class="st8" d="M1032,36h6.8c0.3,0,0-0.3,0,0v6.5c0,0.3,0.3,0,0,0h-13.6c-0.3,0,0,0.3,0,0V36c0-0.3-0.3,0,0,0H1032z"/>
	<path class="st8" d="M1003.6,36h6.8c0.3,0,0-0.3,0,0v6.5c0,0.3,0.3,0,0,0h-13.6c-0.3,0,0,0.3,0,0V36c0-0.3-0.3,0,0,0H1003.6z"/>
	<path class="st8" d="M975.3,36h6.8c0.3,0,0-0.3,0,0v6.5c0,0.3,0.3,0,0,0h-13.6c-0.3,0,0,0.3,0,0V36c0-0.3-0.3,0,0,0H975.3z"/>
	<path class="st8" d="M946.9,36h6.8c0.3,0,0-0.3,0,0v6.5c0,0.3,0.3,0,0,0h-13.6c-0.3,0,0,0.3,0,0V36c0-0.3-0.3,0,0,0H946.9z"/>
	<path class="st8" d="M918.6,36h6.8c0.3,0,0-0.3,0,0v6.5c0,0.3,0.3,0,0,0h-13.6c-0.3,0,0,0.3,0,0V36c0-0.3-0.3,0,0,0H918.6z"/>
	<path class="st8" d="M890.5,64.1v-6.8c0-0.3-0.3,0,0,0h6.5c0.3,0,0-0.3,0,0v13.6c0,0.3,0.3,0,0,0h-6.5c-0.3,0,0,0.3,0,0V64.1z"/>
	<path class="st8" d="M890.5,92.4v-6.8c0-0.3-0.3,0,0,0h6.5c0.3,0,0-0.3,0,0v13.6c0,0.3,0.3,0,0,0h-6.5c-0.3,0,0,0.3,0,0V92.4z"/>
	<path class="st8" d="M890.5,120.8V114c0-0.3-0.3,0,0,0h6.5c0.3,0,0-0.3,0,0v13.6c0,0.3,0.3,0,0,0h-6.5c-0.3,0,0,0.3,0,0V120.8z"/>
	<path class="st8" d="M890.5,149.1v-6.8c0-0.3-0.3,0,0,0h6.5c0.3,0,0-0.3,0,0v13.6c0,0.3,0.3,0,0,0h-6.5c-0.3,0,0,0.3,0,0V149.1z"/>
</g>
</svg>
