<?xml version="1.0" encoding="utf-8"?>
<!-- Generator: Adobe Illustrator 25.2.3, SVG Export Plug-In . SVG Version: 6.00 Build 0)  -->
<svg version="1.1"
	 id="Layer_1" xmlns:cc="http://creativecommons.org/ns#" xmlns:dc="http://purl.org/dc/elements/1.1/" xmlns:inkscape="http://www.inkscape.org/namespaces/inkscape" xmlns:rdf="http://www.w3.org/1999/02/22-rdf-syntax-ns#" xmlns:svg="http://www.w3.org/2000/svg"
	 xmlns="http://www.w3.org/2000/svg" xmlns:xlink="http://www.w3.org/1999/xlink" x="0px" y="0px" viewBox="0 0 1804.7 579.8"
	 style="enable-background:new 0 0 1804.7 579.8;" xml:space="preserve">
<style type="text/css">
	.st0{display:none;}
	
		.st1{display:inline;fill:none;stroke:#000000;stroke-width:0.5669;stroke-linecap:round;stroke-linejoin:round;stroke-miterlimit:11.3386;}
	.st2{display:inline;}
	.st3{font-family:'ArialMT';}
	.st4{font-size:28.3465px;}
	.st5{display:none;fill:#FF0000;stroke:#000000;stroke-width:7.200000e-02;stroke-miterlimit:10;enable-background:new    ;}
	.st6{font-size:11.3386px;}
	.st7{fill:none;stroke:#000000;stroke-width:7.200000e-02;stroke-linecap:round;stroke-linejoin:round;stroke-miterlimit:11.3386;}
	
		.st8{display:inline;fill:none;stroke:#0000FF;stroke-width:0.5669;stroke-linecap:round;stroke-linejoin:round;stroke-miterlimit:11.3386;}
	.st9{display:inline;fill:#FF0000;}
</style>
<g id="p-0" class="st0">
	<path class="st1" d="M28.6,551.5h283.5v-28.3H28.6V551.5z"/>
	<text transform="matrix(1 0 0 1 123.1025 523.1348)" class="st2 st3 st4">100mm</text>
</g>
<g id="p-1">
	<text transform="matrix(1 0 0 1 423.373 398.4023)" class="st5 st3 st6">Wall 1</text>
	<path class="st7" d="M13.7,474.9h21c0.3,0,0-0.3,0,0v6.8c0,0.2,0.1,0.3,0.3,0.3h14.2c0.2,0,0.3-0.1,0.3-0.3v-6.8c0-0.3-0.3,0,0,0
		H63c0.3,0,0-0.3,0,0v6.8c0,0.2,0.1,0.3,0.3,0.3h14.2c0.2,0,0.3-0.1,0.3-0.3v-6.8c0-0.3-0.3,0,0,0h13.6c0.3,0,0-0.3,0,0v6.8
		c0,0.2,0.1,0.3,0.3,0.3h14.2c0.2,0,0.3-0.1,0.3-0.3v-6.8c0-0.3-0.3,0,0,0h13.6c0.3,0,0-0.3,0,0v6.8c0,0.2,0.1,0.3,0.3,0.3h14.2
		c0.2,0,0.3-0.1,0.3-0.3v-6.8c0-0.3-0.3,0,0,0h13.6c0.3,0,0-0.3,0,0v6.8c0,0.2,0.1,0.3,0.3,0.3h14.2c0.2,0,0.3-0.1,0.3-0.3v-6.8
		c0-0.3-0.3,0,0,0h13.6c0.3,0,0-0.3,0,0v6.8c0,0.2,0.1,0.3,0.3,0.3h14.2c0.2,0,0.3-0.1,0.3-0.3v-6.8c0-0.3-0.3,0,0,0h13.6
		c0.3,0,0-0.3,0,0v6.8c0,0.2,0.1,0.3,0.3,0.3h14.2c0.2,0,0.3-0.1,0.3-0.3v-6.8c0-0.3-0.3,0,0,0h13.6c0.3,0,0-0.3,0,0v6.8
		c0,0.2,0.1,0.3,0.3,0.3h14.2c0.2,0,0.3-0.1,0.3-0.3v-6.8c0-0.3-0.3,0,0,0h13.6c0.3,0,0-0.3,0,0v6.8c0,0.2,0.1,0.3,0.3,0.3h14.2
		c0.2,0,0.3-0.1,0.3-0.3v-6.8c0-0.3-0.3,0,0,0h13.6c0.3,0,0-0.3,0,0v6.8c0,0.2,0.1,0.3,0.3,0.3h14.2c0.2,0,0.3-0.1,0.3-0.3v-6.8
		c0-0.3-0.3,0,0,0h13.6c0.3,0,0-0.3,0,0v6.8c0,0.2,0.1,0.3,0.3,0.3h14.2c0.2,0,0.3-0.1,0.3-0.3v-6.8c0-0.3-0.3,0,0,0h13.6
		c0.3,0,0-0.3,0,0v6.8c0,0.2,0.1,0.3,0.3,0.3H361c0.2,0,0.3-0.1,0.3-0.3v-6.8c0-0.3-0.3,0,0,0h13.6c0.3,0,0-0.3,0,0v6.8
		c0,0.2,0.1,0.3,0.3,0.3h14.2c0.2,0,0.3-0.1,0.3-0.3v-6.8c0-0.3-0.3,0,0,0h13.6c0.3,0,0-0.3,0,0v6.8c0,0.2,0.1,0.3,0.3,0.3h14.2
		c0.2,0,0.3-0.1,0.3-0.3v-6.8c0-0.3-0.3,0,0,0h13.6c0.3,0,0-0.3,0,0v6.8c0,0.2,0.1,0.3,0.3,0.3H446c0.2,0,0.3-0.1,0.3-0.3v-6.8
		c0-0.3-0.3,0,0,0h13.6c0.3,0,0-0.3,0,0v6.8c0,0.2,0.1,0.3,0.3,0.3h14.2c0.2,0,0.3-0.1,0.3-0.3v-6.8c0-0.3-0.3,0,0,0h13.6
		c0.3,0,0-0.3,0,0v6.8c0,0.2,0.1,0.3,0.3,0.3h14.2c0.2,0,0.3-0.1,0.3-0.3v-6.8c0-0.3-0.3,0,0,0h13.6c0.3,0,0-0.3,0,0v6.8
		c0,0.2,0.1,0.3,0.3,0.3H531c0.2,0,0.3-0.1,0.3-0.3v-6.8c0-0.3-0.3,0,0,0h13.6c0.3,0,0-0.3,0,0v6.8c0,0.2,0.1,0.3,0.3,0.3h14.2
		c0.2,0,0.3-0.1,0.3-0.3v-6.8c0-0.3-0.3,0,0,0h13.6c0.3,0,0-0.3,0,0v6.8c0,0.2,0.1,0.3,0.3,0.3h14.2c0.2,0,0.3-0.1,0.3-0.3v-6.8
		c0-0.3-0.3,0,0,0h13.6c0.3,0,0-0.3,0,0v6.8c0,0.2,0.1,0.3,0.3,0.3h14.2c0.2,0,0.3-0.1,0.3-0.3v-6.8c0-0.3-0.3,0,0,0H630
		c0.3,0,0-0.3,0,0v6.8c0,0.2,0.1,0.3,0.3,0.3h14.2c0.2,0,0.3-0.1,0.3-0.3v-6.8c0-0.3-0.3,0,0,0h13.6c0.3,0,0-0.3,0,0v6.8
		c0,0.2,0.1,0.3,0.3,0.3h14.2c0.2,0,0.3-0.1,0.3-0.3v-6.8c0-0.3-0.3,0,0,0h13.6c0.3,0,0-0.3,0,0v6.8c0,0.2,0.1,0.3,0.3,0.3h14.2
		c0.2,0,0.3-0.1,0.3-0.3v-6.8c0-0.3-0.3,0,0,0H715c0.3,0,0-0.3,0,0v6.8c0,0.2,0.1,0.3,0.3,0.3h14.2c0.2,0,0.3-0.1,0.3-0.3v-6.8
		c0-0.3-0.3,0,0,0h13.6c0.3,0,0-0.3,0,0v6.8c0,0.2,0.1,0.3,0.3,0.3h14.2c0.2,0,0.3-0.1,0.3-0.3v-6.8c0-0.3-0.3,0,0,0h13.6
		c0.3,0,0-0.3,0,0v6.8c0,0.2,0.1,0.3,0.3,0.3h14.2c0.2,0,0.3-0.1,0.3-0.3v-6.8c0-0.3-0.3,0,0,0H800c0.3,0,0-0.3,0,0v6.8
		c0,0.2,0.1,0.3,0.3,0.3h14.2c0.2,0,0.3-0.1,0.3-0.3v-6.8c0-0.3-0.3,0,0,0h13.6c0.3,0,0-0.3,0,0v6.8c0,0.2,0.1,0.3,0.3,0.3h14.2
		c0.2,0,0.3-0.1,0.3-0.3v-6.8c0-0.3-0.3,0,0,0h21h7.1c0.2,0,0.3-0.1,0.3-0.3v-21.3c0-0.2-0.1-0.3-0.3-0.3h-6.8c-0.3,0,0,0.3,0,0
		v-13.6c0-0.3-0.3,0,0,0h6.8c0.2,0,0.3-0.1,0.3-0.3V425c0-0.2-0.1-0.3-0.3-0.3h-6.8c-0.3,0,0,0.3,0,0v-13.6c0-0.3-0.3,0,0,0h6.8
		c0.2,0,0.3-0.1,0.3-0.3v-14.2c0-0.2-0.1-0.3-0.3-0.3h-6.8c-0.3,0,0,0.3,0,0v-13.6c0-0.3-0.3,0,0,0h6.8c0.2,0,0.3-0.1,0.3-0.3v-14.2
		c0-0.2-0.1-0.3-0.3-0.3h-6.8c-0.3,0,0,0.3,0,0v-13.6c0-0.3-0.3,0,0,0h6.8c0.2,0,0.3-0.1,0.3-0.3v-21.3v-7.1c0-0.2-0.1-0.3-0.3-0.3
		h-7.1h-21.3c-0.2,0-0.3,0.1-0.3,0.3v6.8c0,0.3,0.3,0,0,0H829c-0.3,0,0,0.3,0,0v-6.8c0-0.2-0.1-0.3-0.3-0.3h-14.2
		c-0.2,0-0.3,0.1-0.3,0.3v6.8c0,0.3,0.3,0,0,0h-13.6c-0.3,0,0,0.3,0,0v-6.8c0-0.2-0.1-0.3-0.3-0.3h-14.2c-0.2,0-0.3,0.1-0.3,0.3v6.8
		c0,0.3,0.3,0,0,0h-13.6c-0.3,0,0,0.3,0,0v-6.8c0-0.2-0.1-0.3-0.3-0.3h-14.2c-0.2,0-0.3,0.1-0.3,0.3v6.8c0,0.3,0.3,0,0,0h-13.6
		c-0.3,0,0,0.3,0,0v-6.8c0-0.2-0.1-0.3-0.3-0.3h-14.2c-0.2,0-0.3,0.1-0.3,0.3v6.8c0,0.3,0.3,0,0,0h-13.6c-0.3,0,0,0.3,0,0v-6.8
		c0-0.2-0.1-0.3-0.3-0.3h-14.2c-0.2,0-0.3,0.1-0.3,0.3v6.8c0,0.3,0.3,0,0,0h-13.6c-0.3,0,0,0.3,0,0v-6.8c0-0.2-0.1-0.3-0.3-0.3
		h-14.2c-0.2,0-0.3,0.1-0.3,0.3v6.8c0,0.3,0.3,0,0,0h-13.6c-0.3,0,0,0.3,0,0v-6.8c0-0.2-0.1-0.3-0.3-0.3h-14.2
		c-0.2,0-0.3,0.1-0.3,0.3v6.8c0,0.3,0.3,0,0,0h-13.6c-0.3,0,0,0.3,0,0v-6.8c0-0.2-0.1-0.3-0.3-0.3h-14.2c-0.2,0-0.3,0.1-0.3,0.3v6.8
		c0,0.3,0.3,0,0,0h-13.6c-0.3,0,0,0.3,0,0v-6.8c0-0.2-0.1-0.3-0.3-0.3h-14.2c-0.2,0-0.3,0.1-0.3,0.3v6.8c0,0.3,0.3,0,0,0h-13.6
		c-0.3,0,0,0.3,0,0v-6.8c0-0.2-0.1-0.3-0.3-0.3h-14.2c-0.2,0-0.3,0.1-0.3,0.3v6.8c0,0.3,0.3,0,0,0h-13.6c-0.3,0,0,0.3,0,0v-6.8
		c0-0.2-0.1-0.3-0.3-0.3H531c-0.2,0-0.3,0.1-0.3,0.3v6.8c0,0.3,0.3,0,0,0h-13.6c-0.3,0,0,0.3,0,0v-6.8c0-0.2-0.1-0.3-0.3-0.3h-14.2
		c-0.2,0-0.3,0.1-0.3,0.3v6.8c0,0.3,0.3,0,0,0h-13.6c-0.3,0,0,0.3,0,0v-6.8c0-0.2-0.1-0.3-0.3-0.3h-14.2c-0.2,0-0.3,0.1-0.3,0.3v6.8
		c0,0.3,0.3,0,0,0h-13.6c-0.3,0,0,0.3,0,0v-6.8c0-0.2-0.1-0.3-0.3-0.3H446c-0.2,0-0.3,0.1-0.3,0.3v6.8c0,0.3,0.3,0,0,0h-13.6
		c-0.3,0,0,0.3,0,0v-6.8c0-0.2-0.1-0.3-0.3-0.3h-14.2c-0.2,0-0.3,0.1-0.3,0.3v6.8c0,0.3,0.3,0,0,0h-13.6c-0.3,0,0,0.3,0,0v-6.8
		c0-0.2-0.1-0.3-0.3-0.3h-14.2c-0.2,0-0.3,0.1-0.3,0.3v6.8c0,0.3,0.3,0,0,0h-13.6c-0.3,0,0,0.3,0,0v-6.8c0-0.2-0.1-0.3-0.3-0.3H361
		c-0.2,0-0.3,0.1-0.3,0.3v6.8c0,0.3,0.3,0,0,0h-13.6c-0.3,0,0,0.3,0,0v-6.8c0-0.2-0.1-0.3-0.3-0.3h-14.2c-0.2,0-0.3,0.1-0.3,0.3v6.8
		c0,0.3,0.3,0,0,0h-13.6c-0.3,0,0,0.3,0,0v-6.8c0-0.2-0.1-0.3-0.3-0.3h-14.2c-0.2,0-0.3,0.1-0.3,0.3v6.8c0,0.3,0.3,0,0,0h-13.6
		c-0.3,0,0,0.3,0,0v-6.8c0-0.2-0.1-0.3-0.3-0.3h-14.2c-0.2,0-0.3,0.1-0.3,0.3v6.8c0,0.3,0.3,0,0,0H262c-0.3,0,0,0.3,0,0v-6.8
		c0-0.2-0.1-0.3-0.3-0.3h-14.2c-0.2,0-0.3,0.1-0.3,0.3v6.8c0,0.3,0.3,0,0,0h-13.6c-0.3,0,0,0.3,0,0v-6.8c0-0.2-0.1-0.3-0.3-0.3
		h-14.2c-0.2,0-0.3,0.1-0.3,0.3v6.8c0,0.3,0.3,0,0,0h-13.6c-0.3,0,0,0.3,0,0v-6.8c0-0.2-0.1-0.3-0.3-0.3h-14.2
		c-0.2,0-0.3,0.1-0.3,0.3v6.8c0,0.3,0.3,0,0,0H177c-0.3,0,0,0.3,0,0v-6.8c0-0.2-0.1-0.3-0.3-0.3h-14.2c-0.2,0-0.3,0.1-0.3,0.3v6.8
		c0,0.3,0.3,0,0,0h-13.6c-0.3,0,0,0.3,0,0v-6.8c0-0.2-0.1-0.3-0.3-0.3h-14.2c-0.2,0-0.3,0.1-0.3,0.3v6.8c0,0.3,0.3,0,0,0h-13.6
		c-0.3,0,0,0.3,0,0v-6.8c0-0.2-0.1-0.3-0.3-0.3h-14.2c-0.2,0-0.3,0.1-0.3,0.3v6.8c0,0.3,0.3,0,0,0H92c-0.3,0,0,0.3,0,0v-6.8
		c0-0.2-0.1-0.3-0.3-0.3H77.5c-0.2,0-0.3,0.1-0.3,0.3v6.8c0,0.3,0.3,0,0,0H63.6c-0.3,0,0,0.3,0,0v-6.8c0-0.2-0.1-0.3-0.3-0.3H49.1
		c-0.2,0-0.3,0.1-0.3,0.3v6.8c0,0.3,0.3,0,0,0H35.3c-0.3,0,0,0.3,0,0v-6.8c0-0.2-0.1-0.3-0.3-0.3H13.7H6.6c-0.2,0-0.3,0.1-0.3,0.3
		v7.1v21.3c0,0.2,0.1,0.3,0.3,0.3h6.8c0.3,0,0-0.3,0,0v13.6c0,0.3,0.3,0,0,0H6.6c-0.2,0-0.3,0.1-0.3,0.3v14.2c0,0.2,0.1,0.3,0.3,0.3
		h6.8c0.3,0,0-0.3,0,0v13.6c0,0.3,0.3,0,0,0H6.6c-0.2,0-0.3,0.1-0.3,0.3v14.2c0,0.2,0.1,0.3,0.3,0.3h6.8c0.3,0,0-0.3,0,0v13.6
		c0,0.3,0.3,0,0,0H6.6c-0.2,0-0.3,0.1-0.3,0.3v14.2c0,0.2,0.1,0.3,0.3,0.3h6.8c0.3,0,0-0.3,0,0v13.6c0,0.3,0.3,0,0,0H6.6
		c-0.2,0-0.3,0.1-0.3,0.3v21.3c0,0.2,0.1,0.3,0.3,0.3H13.7"/>
</g>
<g id="p-2">
	<text transform="matrix(1 0 0 1 937.7197 238.4023)" class="st5 st3 st6">Wall 2</text>
	<path class="st7" d="M882.4,314.9h21c0.3,0,0-0.3,0,0v6.8c0,0.2,0.1,0.3,0.3,0.3h14.2c0.2,0,0.3-0.1,0.3-0.3v-6.8c0-0.3-0.3,0,0,0
		h13.6c0.3,0,0-0.3,0,0v6.8c0,0.2,0.1,0.3,0.3,0.3h14.2c0.2,0,0.3-0.1,0.3-0.3v-6.8c0-0.3-0.3,0,0,0h13.6c0.3,0,0-0.3,0,0v6.8
		c0,0.2,0.1,0.3,0.3,0.3h14.2c0.2,0,0.3-0.1,0.3-0.3v-6.8c0-0.3-0.3,0,0,0h13.6c0.3,0,0-0.3,0,0v6.8c0,0.2,0.1,0.3,0.3,0.3h14.2
		c0.2,0,0.3-0.1,0.3-0.3v-6.8c0-0.3-0.3,0,0,0h21c0.2,0,0.3-0.1,0.3-0.3v-21c0-0.3-0.3,0,0,0h6.8c0.2,0,0.3-0.1,0.3-0.3v-14.2
		c0-0.2-0.1-0.3-0.3-0.3h-6.8c-0.3,0,0,0.3,0,0v-13.6c0-0.3-0.3,0,0,0h6.8c0.2,0,0.3-0.1,0.3-0.3v-14.2c0-0.2-0.1-0.3-0.3-0.3h-6.8
		c-0.3,0,0,0.3,0,0V237c0-0.3-0.3,0,0,0h6.8c0.2,0,0.3-0.1,0.3-0.3v-14.2c0-0.2-0.1-0.3-0.3-0.3h-6.8c-0.3,0,0,0.3,0,0v-13.6
		c0-0.3-0.3,0,0,0h6.8c0.2,0,0.3-0.1,0.3-0.3v-14.2c0-0.2-0.1-0.3-0.3-0.3h-6.8c-0.3,0,0,0.3,0,0v-21v-7.1c0-0.2-0.1-0.3-0.3-0.3
		h-21.3c-0.2,0-0.3,0.1-0.3,0.3v6.8c0,0.3,0.3,0,0,0H989c-0.3,0,0,0.3,0,0v-6.8c0-0.2-0.1-0.3-0.3-0.3h-14.2c-0.2,0-0.3,0.1-0.3,0.3
		v6.8c0,0.3,0.3,0,0,0h-13.6c-0.3,0,0,0.3,0,0v-6.8c0-0.2-0.1-0.3-0.3-0.3h-14.2c-0.2,0-0.3,0.1-0.3,0.3v6.8c0,0.3,0.3,0,0,0h-13.6
		c-0.3,0,0,0.3,0,0v-6.8c0-0.2-0.1-0.3-0.3-0.3h-14.2c-0.2,0-0.3,0.1-0.3,0.3v6.8c0,0.3,0.3,0,0,0h-13.6c-0.3,0,0,0.3,0,0v-6.8
		c0-0.2-0.1-0.3-0.3-0.3h-21.3c-0.2,0-0.3,0.1-0.3,0.3v7.1v21c0,0.3,0.3,0,0,0h-6.8c-0.2,0-0.3,0.1-0.3,0.3v14.2
		c0,0.2,0.1,0.3,0.3,0.3h6.8c0.3,0,0-0.3,0,0v13.6c0,0.3,0.3,0,0,0h-6.8c-0.2,0-0.3,0.1-0.3,0.3v14.2c0,0.2,0.1,0.3,0.3,0.3h6.8
		c0.3,0,0-0.3,0,0v13.6c0,0.3,0.3,0,0,0h-6.8c-0.2,0-0.3,0.1-0.3,0.3V265c0,0.2,0.1,0.3,0.3,0.3h6.8c0.3,0,0-0.3,0,0v13.6
		c0,0.3,0.3,0,0,0h-6.8c-0.2,0-0.3,0.1-0.3,0.3v14.2c0,0.2,0.1,0.3,0.3,0.3h6.8c0.3,0,0-0.3,0,0v21
		C882.1,314.8,882.2,314.9,882.4,314.9"/>
</g>
<g id="p-3">
	<text transform="matrix(1 0 0 1 937.7197 78.3867)" class="st5 st3 st6">Wall 4</text>
	<path class="st7" d="M882.4,154.9h21c0.3,0,0-0.3,0,0v6.8c0,0.2,0.1,0.3,0.3,0.3h14.2c0.2,0,0.3-0.1,0.3-0.3v-6.8c0-0.3-0.3,0,0,0
		h13.6c0.3,0,0-0.3,0,0v6.8c0,0.2,0.1,0.3,0.3,0.3h14.2c0.2,0,0.3-0.1,0.3-0.3v-6.8c0-0.3-0.3,0,0,0h13.6c0.3,0,0-0.3,0,0v6.8
		c0,0.2,0.1,0.3,0.3,0.3h14.2c0.2,0,0.3-0.1,0.3-0.3v-6.8c0-0.3-0.3,0,0,0h13.6c0.3,0,0-0.3,0,0v6.8c0,0.2,0.1,0.3,0.3,0.3h14.2
		c0.2,0,0.3-0.1,0.3-0.3v-6.8c0-0.3-0.3,0,0,0h21c0.2,0,0.3-0.1,0.3-0.3v-21c0-0.3-0.3,0,0,0h6.8c0.2,0,0.3-0.1,0.3-0.3v-14.2
		c0-0.2-0.1-0.3-0.3-0.3h-6.8c-0.3,0,0,0.3,0,0v-13.6c0-0.3-0.3,0,0,0h6.8c0.2,0,0.3-0.1,0.3-0.3V90.9c0-0.2-0.1-0.3-0.3-0.3h-6.8
		c-0.3,0,0,0.3,0,0V77c0-0.3-0.3,0,0,0h6.8c0.2,0,0.3-0.1,0.3-0.3V62.5c0-0.2-0.1-0.3-0.3-0.3h-6.8c-0.3,0,0,0.3,0,0V48.6
		c0-0.3-0.3,0,0,0h6.8c0.2,0,0.3-0.1,0.3-0.3V34.2c0-0.2-0.1-0.3-0.3-0.3h-6.8c-0.3,0,0,0.3,0,0v-21V5.8c0-0.2-0.1-0.3-0.3-0.3
		h-21.3c-0.2,0-0.3,0.1-0.3,0.3v6.8c0,0.3,0.3,0,0,0H989c-0.3,0,0,0.3,0,0V5.8c0-0.2-0.1-0.3-0.3-0.3h-14.2c-0.2,0-0.3,0.1-0.3,0.3
		v6.8c0,0.3,0.3,0,0,0h-13.6c-0.3,0,0,0.3,0,0V5.8c0-0.2-0.1-0.3-0.3-0.3h-14.2c-0.2,0-0.3,0.1-0.3,0.3v6.8c0,0.3,0.3,0,0,0h-13.6
		c-0.3,0,0,0.3,0,0V5.8c0-0.2-0.1-0.3-0.3-0.3h-14.2c-0.2,0-0.3,0.1-0.3,0.3v6.8c0,0.3,0.3,0,0,0h-13.6c-0.3,0,0,0.3,0,0V5.8
		c0-0.2-0.1-0.3-0.3-0.3h-21.3c-0.2,0-0.3,0.1-0.3,0.3v7.1v21c0,0.3,0.3,0,0,0h-6.8c-0.2,0-0.3,0.1-0.3,0.3v14.2
		c0,0.2,0.1,0.3,0.3,0.3h6.8c0.3,0,0-0.3,0,0v13.6c0,0.3,0.3,0,0,0h-6.8c-0.2,0-0.3,0.1-0.3,0.3v14.2c0,0.2,0.1,0.3,0.3,0.3h6.8
		c0.3,0,0-0.3,0,0v13.6c0,0.3,0.3,0,0,0h-6.8c-0.2,0-0.3,0.1-0.3,0.3V105c0,0.2,0.1,0.3,0.3,0.3h6.8c0.3,0,0-0.3,0,0v13.6
		c0,0.3,0.3,0,0,0h-6.8c-0.2,0-0.3,0.1-0.3,0.3v14.2c0,0.2,0.1,0.3,0.3,0.3h6.8c0.3,0,0-0.3,0,0v21
		C882.1,154.8,882.2,154.9,882.4,154.9"/>
</g>
<g id="p-4">
	<text transform="matrix(1 0 0 1 423.373 238.3867)" class="st5 st3 st6">Wall 3</text>
	<path class="st7" d="M13.7,314.9h21c0.3,0,0-0.3,0,0v6.8c0,0.2,0.1,0.3,0.3,0.3h14.2c0.2,0,0.3-0.1,0.3-0.3v-6.8c0-0.3-0.3,0,0,0
		H63c0.3,0,0-0.3,0,0v6.8c0,0.2,0.1,0.3,0.3,0.3h14.2c0.2,0,0.3-0.1,0.3-0.3v-6.8c0-0.3-0.3,0,0,0h13.6c0.3,0,0-0.3,0,0v6.8
		c0,0.2,0.1,0.3,0.3,0.3h14.2c0.2,0,0.3-0.1,0.3-0.3v-6.8c0-0.3-0.3,0,0,0h13.6c0.3,0,0-0.3,0,0v6.8c0,0.2,0.1,0.3,0.3,0.3h14.2
		c0.2,0,0.3-0.1,0.3-0.3v-6.8c0-0.3-0.3,0,0,0h13.6c0.3,0,0-0.3,0,0v6.8c0,0.2,0.1,0.3,0.3,0.3h14.2c0.2,0,0.3-0.1,0.3-0.3v-6.8
		c0-0.3-0.3,0,0,0h13.6c0.3,0,0-0.3,0,0v6.8c0,0.2,0.1,0.3,0.3,0.3h14.2c0.2,0,0.3-0.1,0.3-0.3v-6.8c0-0.3-0.3,0,0,0h13.6
		c0.3,0,0-0.3,0,0v6.8c0,0.2,0.1,0.3,0.3,0.3h14.2c0.2,0,0.3-0.1,0.3-0.3v-6.8c0-0.3-0.3,0,0,0h13.6c0.3,0,0-0.3,0,0v6.8
		c0,0.2,0.1,0.3,0.3,0.3h14.2c0.2,0,0.3-0.1,0.3-0.3v-6.8c0-0.3-0.3,0,0,0h13.6c0.3,0,0-0.3,0,0v6.8c0,0.2,0.1,0.3,0.3,0.3h14.2
		c0.2,0,0.3-0.1,0.3-0.3v-6.8c0-0.3-0.3,0,0,0h13.6c0.3,0,0-0.3,0,0v6.8c0,0.2,0.1,0.3,0.3,0.3h14.2c0.2,0,0.3-0.1,0.3-0.3v-6.8
		c0-0.3-0.3,0,0,0h13.6c0.3,0,0-0.3,0,0v6.8c0,0.2,0.1,0.3,0.3,0.3h14.2c0.2,0,0.3-0.1,0.3-0.3v-6.8c0-0.3-0.3,0,0,0h13.6
		c0.3,0,0-0.3,0,0v6.8c0,0.2,0.1,0.3,0.3,0.3H361c0.2,0,0.3-0.1,0.3-0.3v-6.8c0-0.3-0.3,0,0,0h13.6c0.3,0,0-0.3,0,0v6.8
		c0,0.2,0.1,0.3,0.3,0.3h14.2c0.2,0,0.3-0.1,0.3-0.3v-6.8c0-0.3-0.3,0,0,0h13.6c0.3,0,0-0.3,0,0v6.8c0,0.2,0.1,0.3,0.3,0.3h14.2
		c0.2,0,0.3-0.1,0.3-0.3v-6.8c0-0.3-0.3,0,0,0h13.6c0.3,0,0-0.3,0,0v6.8c0,0.2,0.1,0.3,0.3,0.3H446c0.2,0,0.3-0.1,0.3-0.3v-6.8
		c0-0.3-0.3,0,0,0h13.6c0.3,0,0-0.3,0,0v6.8c0,0.2,0.1,0.3,0.3,0.3h14.2c0.2,0,0.3-0.1,0.3-0.3v-6.8c0-0.3-0.3,0,0,0h13.6
		c0.3,0,0-0.3,0,0v6.8c0,0.2,0.1,0.3,0.3,0.3h14.2c0.2,0,0.3-0.1,0.3-0.3v-6.8c0-0.3-0.3,0,0,0h13.6c0.3,0,0-0.3,0,0v6.8
		c0,0.2,0.1,0.3,0.3,0.3H531c0.2,0,0.3-0.1,0.3-0.3v-6.8c0-0.3-0.3,0,0,0h13.6c0.3,0,0-0.3,0,0v6.8c0,0.2,0.1,0.3,0.3,0.3h14.2
		c0.2,0,0.3-0.1,0.3-0.3v-6.8c0-0.3-0.3,0,0,0h13.6c0.3,0,0-0.3,0,0v6.8c0,0.2,0.1,0.3,0.3,0.3h14.2c0.2,0,0.3-0.1,0.3-0.3v-6.8
		c0-0.3-0.3,0,0,0h13.6c0.3,0,0-0.3,0,0v6.8c0,0.2,0.1,0.3,0.3,0.3h14.2c0.2,0,0.3-0.1,0.3-0.3v-6.8c0-0.3-0.3,0,0,0H630
		c0.3,0,0-0.3,0,0v6.8c0,0.2,0.1,0.3,0.3,0.3h14.2c0.2,0,0.3-0.1,0.3-0.3v-6.8c0-0.3-0.3,0,0,0h13.6c0.3,0,0-0.3,0,0v6.8
		c0,0.2,0.1,0.3,0.3,0.3h14.2c0.2,0,0.3-0.1,0.3-0.3v-6.8c0-0.3-0.3,0,0,0h13.6c0.3,0,0-0.3,0,0v6.8c0,0.2,0.1,0.3,0.3,0.3h14.2
		c0.2,0,0.3-0.1,0.3-0.3v-6.8c0-0.3-0.3,0,0,0H715c0.3,0,0-0.3,0,0v6.8c0,0.2,0.1,0.3,0.3,0.3h14.2c0.2,0,0.3-0.1,0.3-0.3v-6.8
		c0-0.3-0.3,0,0,0h13.6c0.3,0,0-0.3,0,0v6.8c0,0.2,0.1,0.3,0.3,0.3h14.2c0.2,0,0.3-0.1,0.3-0.3v-6.8c0-0.3-0.3,0,0,0h13.6
		c0.3,0,0-0.3,0,0v6.8c0,0.2,0.1,0.3,0.3,0.3h14.2c0.2,0,0.3-0.1,0.3-0.3v-6.8c0-0.3-0.3,0,0,0H800c0.3,0,0-0.3,0,0v6.8
		c0,0.2,0.1,0.3,0.3,0.3h14.2c0.2,0,0.3-0.1,0.3-0.3v-6.8c0-0.3-0.3,0,0,0h13.6c0.3,0,0-0.3,0,0v6.8c0,0.2,0.1,0.3,0.3,0.3h14.2
		c0.2,0,0.3-0.1,0.3-0.3v-6.8c0-0.3-0.3,0,0,0h21h7.1c0.2,0,0.3-0.1,0.3-0.3v-21.3c0-0.2-0.1-0.3-0.3-0.3h-6.8c-0.3,0,0,0.3,0,0
		v-13.6c0-0.3-0.3,0,0,0h6.8c0.2,0,0.3-0.1,0.3-0.3V265c0-0.2-0.1-0.3-0.3-0.3h-6.8c-0.3,0,0,0.3,0,0v-13.6c0-0.3-0.3,0,0,0h6.8
		c0.2,0,0.3-0.1,0.3-0.3v-14.2c0-0.2-0.1-0.3-0.3-0.3h-6.8c-0.3,0,0,0.3,0,0v-13.6c0-0.3-0.3,0,0,0h6.8c0.2,0,0.3-0.1,0.3-0.3v-14.2
		c0-0.2-0.1-0.3-0.3-0.3h-6.8c-0.3,0,0,0.3,0,0v-13.6c0-0.3-0.3,0,0,0h6.8c0.2,0,0.3-0.1,0.3-0.3v-21.3v-7.1c0-0.2-0.1-0.3-0.3-0.3
		h-7.1h-21.3c-0.2,0-0.3,0.1-0.3,0.3v6.8c0,0.3,0.3,0,0,0H829c-0.3,0,0,0.3,0,0v-6.8c0-0.2-0.1-0.3-0.3-0.3h-14.2
		c-0.2,0-0.3,0.1-0.3,0.3v6.8c0,0.3,0.3,0,0,0h-13.6c-0.3,0,0,0.3,0,0v-6.8c0-0.2-0.1-0.3-0.3-0.3h-14.2c-0.2,0-0.3,0.1-0.3,0.3v6.8
		c0,0.3,0.3,0,0,0h-13.6c-0.3,0,0,0.3,0,0v-6.8c0-0.2-0.1-0.3-0.3-0.3h-14.2c-0.2,0-0.3,0.1-0.3,0.3v6.8c0,0.3,0.3,0,0,0h-13.6
		c-0.3,0,0,0.3,0,0v-6.8c0-0.2-0.1-0.3-0.3-0.3h-14.2c-0.2,0-0.3,0.1-0.3,0.3v6.8c0,0.3,0.3,0,0,0h-13.6c-0.3,0,0,0.3,0,0v-6.8
		c0-0.2-0.1-0.3-0.3-0.3h-14.2c-0.2,0-0.3,0.1-0.3,0.3v6.8c0,0.3,0.3,0,0,0h-13.6c-0.3,0,0,0.3,0,0v-6.8c0-0.2-0.1-0.3-0.3-0.3
		h-14.2c-0.2,0-0.3,0.1-0.3,0.3v6.8c0,0.3,0.3,0,0,0h-13.6c-0.3,0,0,0.3,0,0v-6.8c0-0.2-0.1-0.3-0.3-0.3h-14.2
		c-0.2,0-0.3,0.1-0.3,0.3v6.8c0,0.3,0.3,0,0,0h-13.6c-0.3,0,0,0.3,0,0v-6.8c0-0.2-0.1-0.3-0.3-0.3h-14.2c-0.2,0-0.3,0.1-0.3,0.3v6.8
		c0,0.3,0.3,0,0,0h-13.6c-0.3,0,0,0.3,0,0v-6.8c0-0.2-0.1-0.3-0.3-0.3h-14.2c-0.2,0-0.3,0.1-0.3,0.3v6.8c0,0.3,0.3,0,0,0h-13.6
		c-0.3,0,0,0.3,0,0v-6.8c0-0.2-0.1-0.3-0.3-0.3h-14.2c-0.2,0-0.3,0.1-0.3,0.3v6.8c0,0.3,0.3,0,0,0h-13.6c-0.3,0,0,0.3,0,0v-6.8
		c0-0.2-0.1-0.3-0.3-0.3H531c-0.2,0-0.3,0.1-0.3,0.3v6.8c0,0.3,0.3,0,0,0h-13.6c-0.3,0,0,0.3,0,0v-6.8c0-0.2-0.1-0.3-0.3-0.3h-14.2
		c-0.2,0-0.3,0.1-0.3,0.3v6.8c0,0.3,0.3,0,0,0h-13.6c-0.3,0,0,0.3,0,0v-6.8c0-0.2-0.1-0.3-0.3-0.3h-14.2c-0.2,0-0.3,0.1-0.3,0.3v6.8
		c0,0.3,0.3,0,0,0h-13.6c-0.3,0,0,0.3,0,0v-6.8c0-0.2-0.1-0.3-0.3-0.3H446c-0.2,0-0.3,0.1-0.3,0.3v6.8c0,0.3,0.3,0,0,0h-13.6
		c-0.3,0,0,0.3,0,0v-6.8c0-0.2-0.1-0.3-0.3-0.3h-14.2c-0.2,0-0.3,0.1-0.3,0.3v6.8c0,0.3,0.3,0,0,0h-13.6c-0.3,0,0,0.3,0,0v-6.8
		c0-0.2-0.1-0.3-0.3-0.3h-14.2c-0.2,0-0.3,0.1-0.3,0.3v6.8c0,0.3,0.3,0,0,0h-13.6c-0.3,0,0,0.3,0,0v-6.8c0-0.2-0.1-0.3-0.3-0.3H361
		c-0.2,0-0.3,0.1-0.3,0.3v6.8c0,0.3,0.3,0,0,0h-13.6c-0.3,0,0,0.3,0,0v-6.8c0-0.2-0.1-0.3-0.3-0.3h-14.2c-0.2,0-0.3,0.1-0.3,0.3v6.8
		c0,0.3,0.3,0,0,0h-13.6c-0.3,0,0,0.3,0,0v-6.8c0-0.2-0.1-0.3-0.3-0.3h-14.2c-0.2,0-0.3,0.1-0.3,0.3v6.8c0,0.3,0.3,0,0,0h-13.6
		c-0.3,0,0,0.3,0,0v-6.8c0-0.2-0.1-0.3-0.3-0.3h-14.2c-0.2,0-0.3,0.1-0.3,0.3v6.8c0,0.3,0.3,0,0,0H262c-0.3,0,0,0.3,0,0v-6.8
		c0-0.2-0.1-0.3-0.3-0.3h-14.2c-0.2,0-0.3,0.1-0.3,0.3v6.8c0,0.3,0.3,0,0,0h-13.6c-0.3,0,0,0.3,0,0v-6.8c0-0.2-0.1-0.3-0.3-0.3
		h-14.2c-0.2,0-0.3,0.1-0.3,0.3v6.8c0,0.3,0.3,0,0,0h-13.6c-0.3,0,0,0.3,0,0v-6.8c0-0.2-0.1-0.3-0.3-0.3h-14.2
		c-0.2,0-0.3,0.1-0.3,0.3v6.8c0,0.3,0.3,0,0,0H177c-0.3,0,0,0.3,0,0v-6.8c0-0.2-0.1-0.3-0.3-0.3h-14.2c-0.2,0-0.3,0.1-0.3,0.3v6.8
		c0,0.3,0.3,0,0,0h-13.6c-0.3,0,0,0.3,0,0v-6.8c0-0.2-0.1-0.3-0.3-0.3h-14.2c-0.2,0-0.3,0.1-0.3,0.3v6.8c0,0.3,0.3,0,0,0h-13.6
		c-0.3,0,0,0.3,0,0v-6.8c0-0.2-0.1-0.3-0.3-0.3h-14.2c-0.2,0-0.3,0.1-0.3,0.3v6.8c0,0.3,0.3,0,0,0H92c-0.3,0,0,0.3,0,0v-6.8
		c0-0.2-0.1-0.3-0.3-0.3H77.5c-0.2,0-0.3,0.1-0.3,0.3v6.8c0,0.3,0.3,0,0,0H63.6c-0.3,0,0,0.3,0,0v-6.8c0-0.2-0.1-0.3-0.3-0.3H49.1
		c-0.2,0-0.3,0.1-0.3,0.3v6.8c0,0.3,0.3,0,0,0H35.3c-0.3,0,0,0.3,0,0v-6.8c0-0.2-0.1-0.3-0.3-0.3H13.7H6.6c-0.2,0-0.3,0.1-0.3,0.3
		v7.1v21.3c0,0.2,0.1,0.3,0.3,0.3h6.8c0.3,0,0-0.3,0,0v13.6c0,0.3,0.3,0,0,0H6.6c-0.2,0-0.3,0.1-0.3,0.3v14.2c0,0.2,0.1,0.3,0.3,0.3
		h6.8c0.3,0,0-0.3,0,0v13.6c0,0.3,0.3,0,0,0H6.6c-0.2,0-0.3,0.1-0.3,0.3v14.2c0,0.2,0.1,0.3,0.3,0.3h6.8c0.3,0,0-0.3,0,0v13.6
		c0,0.3,0.3,0,0,0H6.6c-0.2,0-0.3,0.1-0.3,0.3v14.2c0,0.2,0.1,0.3,0.3,0.3h6.8c0.3,0,0-0.3,0,0v13.6c0,0.3,0.3,0,0,0H6.6
		c-0.2,0-0.3,0.1-0.3,0.3v21.3c0,0.2,0.1,0.3,0.3,0.3H13.7"/>
</g>
<g id="p-5">
	<text transform="matrix(1 0 0 1 429.7725 78.3711)" class="st5 st3 st6">Top</text>
	<path class="st7" d="M13.7,154.9h21c0.3,0,0-0.3,0,0v6.8c0,0.2,0.1,0.3,0.3,0.3h14.2c0.2,0,0.3-0.1,0.3-0.3v-6.8c0-0.3-0.3,0,0,0
		H63c0.3,0,0-0.3,0,0v6.8c0,0.2,0.1,0.3,0.3,0.3h14.2c0.2,0,0.3-0.1,0.3-0.3v-6.8c0-0.3-0.3,0,0,0h13.6c0.3,0,0-0.3,0,0v6.8
		c0,0.2,0.1,0.3,0.3,0.3h14.2c0.2,0,0.3-0.1,0.3-0.3v-6.8c0-0.3-0.3,0,0,0h13.6c0.3,0,0-0.3,0,0v6.8c0,0.2,0.1,0.3,0.3,0.3h14.2
		c0.2,0,0.3-0.1,0.3-0.3v-6.8c0-0.3-0.3,0,0,0h13.6c0.3,0,0-0.3,0,0v6.8c0,0.2,0.1,0.3,0.3,0.3h14.2c0.2,0,0.3-0.1,0.3-0.3v-6.8
		c0-0.3-0.3,0,0,0h13.6c0.3,0,0-0.3,0,0v6.8c0,0.2,0.1,0.3,0.3,0.3h14.2c0.2,0,0.3-0.1,0.3-0.3v-6.8c0-0.3-0.3,0,0,0h13.6
		c0.3,0,0-0.3,0,0v6.8c0,0.2,0.1,0.3,0.3,0.3h14.2c0.2,0,0.3-0.1,0.3-0.3v-6.8c0-0.3-0.3,0,0,0h13.6c0.3,0,0-0.3,0,0v6.8
		c0,0.2,0.1,0.3,0.3,0.3h14.2c0.2,0,0.3-0.1,0.3-0.3v-6.8c0-0.3-0.3,0,0,0h13.6c0.3,0,0-0.3,0,0v6.8c0,0.2,0.1,0.3,0.3,0.3h14.2
		c0.2,0,0.3-0.1,0.3-0.3v-6.8c0-0.3-0.3,0,0,0h13.6c0.3,0,0-0.3,0,0v6.8c0,0.2,0.1,0.3,0.3,0.3h14.2c0.2,0,0.3-0.1,0.3-0.3v-6.8
		c0-0.3-0.3,0,0,0h13.6c0.3,0,0-0.3,0,0v6.8c0,0.2,0.1,0.3,0.3,0.3h14.2c0.2,0,0.3-0.1,0.3-0.3v-6.8c0-0.3-0.3,0,0,0h13.6
		c0.3,0,0-0.3,0,0v6.8c0,0.2,0.1,0.3,0.3,0.3H361c0.2,0,0.3-0.1,0.3-0.3v-6.8c0-0.3-0.3,0,0,0h13.6c0.3,0,0-0.3,0,0v6.8
		c0,0.2,0.1,0.3,0.3,0.3h14.2c0.2,0,0.3-0.1,0.3-0.3v-6.8c0-0.3-0.3,0,0,0h13.6c0.3,0,0-0.3,0,0v6.8c0,0.2,0.1,0.3,0.3,0.3h14.2
		c0.2,0,0.3-0.1,0.3-0.3v-6.8c0-0.3-0.3,0,0,0h13.6c0.3,0,0-0.3,0,0v6.8c0,0.2,0.1,0.3,0.3,0.3H446c0.2,0,0.3-0.1,0.3-0.3v-6.8
		c0-0.3-0.3,0,0,0h13.6c0.3,0,0-0.3,0,0v6.8c0,0.2,0.1,0.3,0.3,0.3h14.2c0.2,0,0.3-0.1,0.3-0.3v-6.8c0-0.3-0.3,0,0,0h13.6
		c0.3,0,0-0.3,0,0v6.8c0,0.2,0.1,0.3,0.3,0.3h14.2c0.2,0,0.3-0.1,0.3-0.3v-6.8c0-0.3-0.3,0,0,0h13.6c0.3,0,0-0.3,0,0v6.8
		c0,0.2,0.1,0.3,0.3,0.3H531c0.2,0,0.3-0.1,0.3-0.3v-6.8c0-0.3-0.3,0,0,0h13.6c0.3,0,0-0.3,0,0v6.8c0,0.2,0.1,0.3,0.3,0.3h14.2
		c0.2,0,0.3-0.1,0.3-0.3v-6.8c0-0.3-0.3,0,0,0h13.6c0.3,0,0-0.3,0,0v6.8c0,0.2,0.1,0.3,0.3,0.3h14.2c0.2,0,0.3-0.1,0.3-0.3v-6.8
		c0-0.3-0.3,0,0,0h13.6c0.3,0,0-0.3,0,0v6.8c0,0.2,0.1,0.3,0.3,0.3h14.2c0.2,0,0.3-0.1,0.3-0.3v-6.8c0-0.3-0.3,0,0,0H630
		c0.3,0,0-0.3,0,0v6.8c0,0.2,0.1,0.3,0.3,0.3h14.2c0.2,0,0.3-0.1,0.3-0.3v-6.8c0-0.3-0.3,0,0,0h13.6c0.3,0,0-0.3,0,0v6.8
		c0,0.2,0.1,0.3,0.3,0.3h14.2c0.2,0,0.3-0.1,0.3-0.3v-6.8c0-0.3-0.3,0,0,0h13.6c0.3,0,0-0.3,0,0v6.8c0,0.2,0.1,0.3,0.3,0.3h14.2
		c0.2,0,0.3-0.1,0.3-0.3v-6.8c0-0.3-0.3,0,0,0H715c0.3,0,0-0.3,0,0v6.8c0,0.2,0.1,0.3,0.3,0.3h14.2c0.2,0,0.3-0.1,0.3-0.3v-6.8
		c0-0.3-0.3,0,0,0h13.6c0.3,0,0-0.3,0,0v6.8c0,0.2,0.1,0.3,0.3,0.3h14.2c0.2,0,0.3-0.1,0.3-0.3v-6.8c0-0.3-0.3,0,0,0h13.6
		c0.3,0,0-0.3,0,0v6.8c0,0.2,0.1,0.3,0.3,0.3h14.2c0.2,0,0.3-0.1,0.3-0.3v-6.8c0-0.3-0.3,0,0,0H800c0.3,0,0-0.3,0,0v6.8
		c0,0.2,0.1,0.3,0.3,0.3h14.2c0.2,0,0.3-0.1,0.3-0.3v-6.8c0-0.3-0.3,0,0,0h13.6c0.3,0,0-0.3,0,0v6.8c0,0.2,0.1,0.3,0.3,0.3h14.2
		c0.2,0,0.3-0.1,0.3-0.3v-6.8c0-0.3-0.3,0,0,0h21c0.2,0,0.3-0.1,0.3-0.3v-21c0-0.3-0.3,0,0,0h6.8c0.2,0,0.3-0.1,0.3-0.3v-14.2
		c0-0.2-0.1-0.3-0.3-0.3h-6.8c-0.3,0,0,0.3,0,0v-13.6c0-0.3-0.3,0,0,0h6.8c0.2,0,0.3-0.1,0.3-0.3V90.8c0-0.2-0.1-0.3-0.3-0.3h-6.8
		c-0.3,0,0,0.3,0,0V77c0-0.3-0.3,0,0,0h6.8c0.2,0,0.3-0.1,0.3-0.3V62.5c0-0.2-0.1-0.3-0.3-0.3h-6.8c-0.3,0,0,0.3,0,0V48.6
		c0-0.3-0.3,0,0,0h6.8c0.2,0,0.3-0.1,0.3-0.3V34.1c0-0.2-0.1-0.3-0.3-0.3h-6.8c-0.3,0,0,0.3,0,0v-21c0-0.2-0.1-0.3-0.3-0.3h-21
		c-0.3,0,0,0.3,0,0V5.8c0-0.2-0.1-0.3-0.3-0.3h-14.2c-0.2,0-0.3,0.1-0.3,0.3v6.8c0,0.3,0.3,0,0,0h-13.6c-0.3,0,0,0.3,0,0V5.8
		c0-0.2-0.1-0.3-0.3-0.3h-14.2c-0.2,0-0.3,0.1-0.3,0.3v6.8c0,0.3,0.3,0,0,0h-13.6c-0.3,0,0,0.3,0,0V5.8c0-0.2-0.1-0.3-0.3-0.3H772
		c-0.2,0-0.3,0.1-0.3,0.3v6.8c0,0.3,0.3,0,0,0h-13.6c-0.3,0,0,0.3,0,0V5.8c0-0.2-0.1-0.3-0.3-0.3h-14.2c-0.2,0-0.3,0.1-0.3,0.3v6.8
		c0,0.3,0.3,0,0,0h-13.6c-0.3,0,0,0.3,0,0V5.8c0-0.2-0.1-0.3-0.3-0.3h-14.2c-0.2,0-0.3,0.1-0.3,0.3v6.8c0,0.3,0.3,0,0,0h-13.6
		c-0.3,0,0,0.3,0,0V5.8c0-0.2-0.1-0.3-0.3-0.3h-14.2c-0.2,0-0.3,0.1-0.3,0.3v6.8c0,0.3,0.3,0,0,0h-13.6c-0.3,0,0,0.3,0,0V5.8
		c0-0.2-0.1-0.3-0.3-0.3h-14.2c-0.2,0-0.3,0.1-0.3,0.3v6.8c0,0.3,0.3,0,0,0h-13.6c-0.3,0,0,0.3,0,0V5.8c0-0.2-0.1-0.3-0.3-0.3h-14.2
		c-0.2,0-0.3,0.1-0.3,0.3v6.8c0,0.3,0.3,0,0,0h-13.6c-0.3,0,0,0.3,0,0V5.8c0-0.2-0.1-0.3-0.3-0.3h-14.2c-0.2,0-0.3,0.1-0.3,0.3v6.8
		c0,0.3,0.3,0,0,0H588c-0.3,0,0,0.3,0,0V5.8c0-0.2-0.1-0.3-0.3-0.3h-14.2c-0.2,0-0.3,0.1-0.3,0.3v6.8c0,0.3,0.3,0,0,0h-13.6
		c-0.3,0,0,0.3,0,0V5.8c0-0.2-0.1-0.3-0.3-0.3h-14.2c-0.2,0-0.3,0.1-0.3,0.3v6.8c0,0.3,0.3,0,0,0h-13.6c-0.3,0,0,0.3,0,0V5.8
		c0-0.2-0.1-0.3-0.3-0.3h-14.2c-0.2,0-0.3,0.1-0.3,0.3v6.8c0,0.3,0.3,0,0,0H503c-0.3,0,0,0.3,0,0V5.8c0-0.2-0.1-0.3-0.3-0.3h-14.2
		c-0.2,0-0.3,0.1-0.3,0.3v6.8c0,0.3,0.3,0,0,0h-13.6c-0.3,0,0,0.3,0,0V5.8c0-0.2-0.1-0.3-0.3-0.3h-14.2c-0.2,0-0.3,0.1-0.3,0.3v6.8
		c0,0.3,0.3,0,0,0h-13.6c-0.3,0,0,0.3,0,0V5.8c0-0.2-0.1-0.3-0.3-0.3h-14.2c-0.2,0-0.3,0.1-0.3,0.3v6.8c0,0.3,0.3,0,0,0h-13.6
		c-0.3,0,0,0.3,0,0V5.8c0-0.2-0.1-0.3-0.3-0.3h-14.2c-0.2,0-0.3,0.1-0.3,0.3v6.8c0,0.3,0.3,0,0,0h-13.6c-0.3,0,0,0.3,0,0V5.8
		c0-0.2-0.1-0.3-0.3-0.3h-14.2c-0.2,0-0.3,0.1-0.3,0.3v6.8c0,0.3,0.3,0,0,0h-13.6c-0.3,0,0,0.3,0,0V5.8c0-0.2-0.1-0.3-0.3-0.3h-14.2
		c-0.2,0-0.3,0.1-0.3,0.3v6.8c0,0.3,0.3,0,0,0h-13.6c-0.3,0,0,0.3,0,0V5.8c0-0.2-0.1-0.3-0.3-0.3h-14.2c-0.2,0-0.3,0.1-0.3,0.3v6.8
		c0,0.3,0.3,0,0,0h-13.6c-0.3,0,0,0.3,0,0V5.8c0-0.2-0.1-0.3-0.3-0.3h-14.2c-0.2,0-0.3,0.1-0.3,0.3v6.8c0,0.3,0.3,0,0,0h-13.6
		c-0.3,0,0,0.3,0,0V5.8c0-0.2-0.1-0.3-0.3-0.3h-14.2c-0.2,0-0.3,0.1-0.3,0.3v6.8c0,0.3,0.3,0,0,0h-13.6c-0.3,0,0,0.3,0,0V5.8
		c0-0.2-0.1-0.3-0.3-0.3h-14.2c-0.2,0-0.3,0.1-0.3,0.3v6.8c0,0.3,0.3,0,0,0h-13.6c-0.3,0,0,0.3,0,0V5.8c0-0.2-0.1-0.3-0.3-0.3h-14.2
		c-0.2,0-0.3,0.1-0.3,0.3v6.8c0,0.3,0.3,0,0,0h-13.6c-0.3,0,0,0.3,0,0V5.8c0-0.2-0.1-0.3-0.3-0.3h-14.2c-0.2,0-0.3,0.1-0.3,0.3v6.8
		c0,0.3,0.3,0,0,0h-13.6c-0.3,0,0,0.3,0,0V5.8c0-0.2-0.1-0.3-0.3-0.3h-14.2c-0.2,0-0.3,0.1-0.3,0.3v6.8c0,0.3,0.3,0,0,0h-13.6
		c-0.3,0,0,0.3,0,0V5.8c0-0.2-0.1-0.3-0.3-0.3H120c-0.2,0-0.3,0.1-0.3,0.3v6.8c0,0.3,0.3,0,0,0h-13.6c-0.3,0,0,0.3,0,0V5.8
		c0-0.2-0.1-0.3-0.3-0.3H91.7c-0.2,0-0.3,0.1-0.3,0.3v6.8c0,0.3,0.3,0,0,0H77.8c-0.3,0,0,0.3,0,0V5.8c0-0.2-0.1-0.3-0.3-0.3H63.3
		c-0.2,0-0.3,0.1-0.3,0.3v6.8c0,0.3,0.3,0,0,0H49.4c-0.3,0,0,0.3,0,0V5.8c0-0.2-0.1-0.3-0.3-0.3H35c-0.2,0-0.3,0.1-0.3,0.3v6.8
		c0,0.3,0.3,0,0,0h-21c-0.2,0-0.3,0.1-0.3,0.3v21c0,0.3,0.3,0,0,0H6.6c-0.2,0-0.3,0.1-0.3,0.3v14.2c0,0.2,0.1,0.3,0.3,0.3h6.8
		c0.3,0,0-0.3,0,0v13.6c0,0.3,0.3,0,0,0H6.6c-0.2,0-0.3,0.1-0.3,0.3v14.2c0,0.2,0.1,0.3,0.3,0.3h6.8c0.3,0,0-0.3,0,0v13.6
		c0,0.3,0.3,0,0,0H6.6c-0.2,0-0.3,0.1-0.3,0.3V105c0,0.2,0.1,0.3,0.3,0.3h6.8c0.3,0,0-0.3,0,0v13.6c0,0.3,0.3,0,0,0H6.6
		c-0.2,0-0.3,0.1-0.3,0.3v14.2c0,0.2,0.1,0.3,0.3,0.3h6.8c0.3,0,0-0.3,0,0v21C13.4,154.8,13.6,154.9,13.7,154.9"/>
</g>
<g id="p-6" class="st0">
	<path class="st8" d="M939.8,191.3H933c-0.3,0,0,0.3,0,0v-6.5c0-0.3-0.3,0,0,0h13.6c0.3,0,0-0.3,0,0v6.5c0,0.3,0.3,0,0,0H939.8z"/>
	<path class="st8" d="M968.2,191.3h-6.8c-0.3,0,0,0.3,0,0v-6.5c0-0.3-0.3,0,0,0H975c0.3,0,0-0.3,0,0v6.5c0,0.3,0.3,0,0,0H968.2z"/>
	<path class="st8" d="M996.5,191.3h-6.8c-0.3,0,0,0.3,0,0v-6.5c0-0.3-0.3,0,0,0h13.6c0.3,0,0-0.3,0,0v6.5c0,0.3,0.3,0,0,0H996.5z"/>
	<path class="st8" d="M1024.9,191.3h-6.8c-0.3,0,0,0.3,0,0v-6.5c0-0.3-0.3,0,0,0h13.6c0.3,0,0-0.3,0,0v6.5c0,0.3,0.3,0,0,0H1024.9z"
		/>
	<path class="st8" d="M1053.2,191.3h-6.8c-0.3,0,0,0.3,0,0v-6.5c0-0.3-0.3,0,0,0h13.6c0.3,0,0-0.3,0,0v6.5c0,0.3,0.3,0,0,0H1053.2z"
		/>
	<path class="st8" d="M1081.6,191.3h-6.8c-0.3,0,0,0.3,0,0v-6.5c0-0.3-0.3,0,0,0h13.6c0.3,0,0-0.3,0,0v6.5c0,0.3,0.3,0,0,0H1081.6z"
		/>
	<path class="st8" d="M1109.9,191.3h-6.8c-0.3,0,0,0.3,0,0v-6.5c0-0.3-0.3,0,0,0h13.6c0.3,0,0-0.3,0,0v6.5c0,0.3,0.3,0,0,0H1109.9z"
		/>
	<path class="st8" d="M1138.3,191.3h-6.8c-0.3,0,0,0.3,0,0v-6.5c0-0.3-0.3,0,0,0h13.6c0.3,0,0-0.3,0,0v6.5c0,0.3,0.3,0,0,0H1138.3z"
		/>
	<path class="st8" d="M1166.6,191.3h-6.8c-0.3,0,0,0.3,0,0v-6.5c0-0.3-0.3,0,0,0h13.6c0.3,0,0-0.3,0,0v6.5c0,0.3,0.3,0,0,0H1166.6z"
		/>
	<path class="st8" d="M1194.9,191.3h-6.8c-0.3,0,0,0.3,0,0v-6.5c0-0.3-0.3,0,0,0h13.6c0.3,0,0-0.3,0,0v6.5c0,0.3,0.3,0,0,0H1194.9z"
		/>
	<path class="st8" d="M1223.3,191.3h-6.8c-0.3,0,0,0.3,0,0v-6.5c0-0.3-0.3,0,0,0h13.6c0.3,0,0-0.3,0,0v6.5c0,0.3,0.3,0,0,0H1223.3z"
		/>
	<path class="st8" d="M1251.6,191.3h-6.8c-0.3,0,0,0.3,0,0v-6.5c0-0.3-0.3,0,0,0h13.6c0.3,0,0-0.3,0,0v6.5c0,0.3,0.3,0,0,0H1251.6z"
		/>
	<path class="st8" d="M1280,191.3h-6.8c-0.3,0,0,0.3,0,0v-6.5c0-0.3-0.3,0,0,0h13.6c0.3,0,0-0.3,0,0v6.5c0,0.3,0.3,0,0,0H1280z"/>
	<path class="st8" d="M1308.3,191.3h-6.8c-0.3,0,0,0.3,0,0v-6.5c0-0.3-0.3,0,0,0h13.6c0.3,0,0-0.3,0,0v6.5c0,0.3,0.3,0,0,0H1308.3z"
		/>
	<path class="st8" d="M1336.7,191.3h-6.8c-0.3,0,0,0.3,0,0v-6.5c0-0.3-0.3,0,0,0h13.6c0.3,0,0-0.3,0,0v6.5c0,0.3,0.3,0,0,0H1336.7z"
		/>
	<path class="st8" d="M1365,191.3h-6.8c-0.3,0,0,0.3,0,0v-6.5c0-0.3-0.3,0,0,0h13.6c0.3,0,0-0.3,0,0v6.5c0,0.3,0.3,0,0,0H1365z"/>
	<path class="st8" d="M1393.4,191.3h-6.8c-0.3,0,0,0.3,0,0v-6.5c0-0.3-0.3,0,0,0h13.6c0.3,0,0-0.3,0,0v6.5c0,0.3,0.3,0,0,0H1393.4z"
		/>
	<path class="st8" d="M1421.7,191.3h-6.8c-0.3,0,0,0.3,0,0v-6.5c0-0.3-0.3,0,0,0h13.6c0.3,0,0-0.3,0,0v6.5c0,0.3,0.3,0,0,0H1421.7z"
		/>
	<path class="st8" d="M1450.1,191.3h-6.8c-0.3,0,0,0.3,0,0v-6.5c0-0.3-0.3,0,0,0h13.6c0.3,0,0-0.3,0,0v6.5c0,0.3,0.3,0,0,0H1450.1z"
		/>
	<path class="st8" d="M1478.4,191.3h-6.8c-0.3,0,0,0.3,0,0v-6.5c0-0.3-0.3,0,0,0h13.6c0.3,0,0-0.3,0,0v6.5c0,0.3,0.3,0,0,0H1478.4z"
		/>
	<path class="st8" d="M1506.8,191.3h-6.8c-0.3,0,0,0.3,0,0v-6.5c0-0.3-0.3,0,0,0h13.6c0.3,0,0-0.3,0,0v6.5c0,0.3,0.3,0,0,0H1506.8z"
		/>
	<path class="st8" d="M1535.1,191.3h-6.8c-0.3,0,0,0.3,0,0v-6.5c0-0.3-0.3,0,0,0h13.6c0.3,0,0-0.3,0,0v6.5c0,0.3,0.3,0,0,0H1535.1z"
		/>
	<path class="st8" d="M1563.4,191.3h-6.8c-0.3,0,0,0.3,0,0v-6.5c0-0.3-0.3,0,0,0h13.6c0.3,0,0-0.3,0,0v6.5c0,0.3,0.3,0,0,0H1563.4z"
		/>
	<path class="st8" d="M1591.8,191.3h-6.8c-0.3,0,0,0.3,0,0v-6.5c0-0.3-0.3,0,0,0h13.6c0.3,0,0-0.3,0,0v6.5c0,0.3,0.3,0,0,0H1591.8z"
		/>
	<path class="st8" d="M1620.1,191.3h-6.8c-0.3,0,0,0.3,0,0v-6.5c0-0.3-0.3,0,0,0h13.6c0.3,0,0-0.3,0,0v6.5c0,0.3,0.3,0,0,0H1620.1z"
		/>
	<path class="st8" d="M1648.5,191.3h-6.8c-0.3,0,0,0.3,0,0v-6.5c0-0.3-0.3,0,0,0h13.6c0.3,0,0-0.3,0,0v6.5c0,0.3,0.3,0,0,0H1648.5z"
		/>
	<path class="st8" d="M1676.8,191.3h-6.8c-0.3,0,0,0.3,0,0v-6.5c0-0.3-0.3,0,0,0h13.6c0.3,0,0-0.3,0,0v6.5c0,0.3,0.3,0,0,0H1676.8z"
		/>
	<path class="st8" d="M1705.2,191.3h-6.8c-0.3,0,0,0.3,0,0v-6.5c0-0.3-0.3,0,0,0h13.6c0.3,0,0-0.3,0,0v6.5c0,0.3,0.3,0,0,0H1705.2z"
		/>
	<path class="st8" d="M1733.5,191.3h-6.8c-0.3,0,0,0.3,0,0v-6.5c0-0.3-0.3,0,0,0h13.6c0.3,0,0-0.3,0,0v6.5c0,0.3,0.3,0,0,0H1733.5z"
		/>
	<text transform="matrix(1 0 0 1 1323.7549 108.2832)" class="st9 st3 st6">Base</text>
	<path class="st1" d="M911.5,199h850.4h14.2c0.2,0,0.3-0.1,0.3-0.3v-14.2V42.8V28.6c0-0.2-0.1-0.3-0.3-0.3h-14.2H911.5h-14.2
		c-0.2,0-0.3,0.1-0.3,0.3v14.2v141.7v14.2c0,0.2,0.1,0.3,0.3,0.3H911.5"/>
	<path class="st8" d="M1768.7,156.2v6.8c0,0.3,0.3,0,0,0h-6.5c-0.3,0,0,0.3,0,0v-13.6c0-0.3-0.3,0,0,0h6.5c0.3,0,0-0.3,0,0V156.2z"
		/>
	<path class="st8" d="M1768.7,127.8v6.8c0,0.3,0.3,0,0,0h-6.5c-0.3,0,0,0.3,0,0V121c0-0.3-0.3,0,0,0h6.5c0.3,0,0-0.3,0,0V127.8z"/>
	<path class="st8" d="M1768.7,99.5v6.8c0,0.3,0.3,0,0,0h-6.5c-0.3,0,0,0.3,0,0V92.7c0-0.3-0.3,0,0,0h6.5c0.3,0,0-0.3,0,0V99.5z"/>
	<path class="st8" d="M1768.7,71.1V78c0,0.3,0.3,0,0,0h-6.5c-0.3,0,0,0.3,0,0V64.3c0-0.3-0.3,0,0,0h6.5c0.3,0,0-0.3,0,0V71.1z"/>
	<path class="st8" d="M1733.5,36h6.8c0.3,0,0-0.3,0,0v6.5c0,0.3,0.3,0,0,0h-13.6c-0.3,0,0,0.3,0,0V36c0-0.3-0.3,0,0,0H1733.5z"/>
	<path class="st8" d="M1705.2,36h6.8c0.3,0,0-0.3,0,0v6.5c0,0.3,0.3,0,0,0h-13.6c-0.3,0,0,0.3,0,0V36c0-0.3-0.3,0,0,0H1705.2z"/>
	<path class="st8" d="M1676.8,36h6.8c0.3,0,0-0.3,0,0v6.5c0,0.3,0.3,0,0,0H1670c-0.3,0,0,0.3,0,0V36c0-0.3-0.3,0,0,0H1676.8z"/>
	<path class="st8" d="M1648.5,36h6.8c0.3,0,0-0.3,0,0v6.5c0,0.3,0.3,0,0,0h-13.6c-0.3,0,0,0.3,0,0V36c0-0.3-0.3,0,0,0H1648.5z"/>
	<path class="st8" d="M1620.1,36h6.8c0.3,0,0-0.3,0,0v6.5c0,0.3,0.3,0,0,0h-13.6c-0.3,0,0,0.3,0,0V36c0-0.3-0.3,0,0,0H1620.1z"/>
	<path class="st8" d="M1591.8,36h6.8c0.3,0,0-0.3,0,0v6.5c0,0.3,0.3,0,0,0H1585c-0.3,0,0,0.3,0,0V36c0-0.3-0.3,0,0,0H1591.8z"/>
	<path class="st8" d="M1563.4,36h6.8c0.3,0,0-0.3,0,0v6.5c0,0.3,0.3,0,0,0h-13.6c-0.3,0,0,0.3,0,0V36c0-0.3-0.3,0,0,0H1563.4z"/>
	<path class="st8" d="M1535.1,36h6.8c0.3,0,0-0.3,0,0v6.5c0,0.3,0.3,0,0,0h-13.6c-0.3,0,0,0.3,0,0V36c0-0.3-0.3,0,0,0H1535.1z"/>
	<path class="st8" d="M1506.8,36h6.8c0.3,0,0-0.3,0,0v6.5c0,0.3,0.3,0,0,0H1500c-0.3,0,0,0.3,0,0V36c0-0.3-0.3,0,0,0H1506.8z"/>
	<path class="st8" d="M1478.4,36h6.8c0.3,0,0-0.3,0,0v6.5c0,0.3,0.3,0,0,0h-13.6c-0.3,0,0,0.3,0,0V36c0-0.3-0.3,0,0,0H1478.4z"/>
	<path class="st8" d="M1450.1,36h6.8c0.3,0,0-0.3,0,0v6.5c0,0.3,0.3,0,0,0h-13.6c-0.3,0,0,0.3,0,0V36c0-0.3-0.3,0,0,0H1450.1z"/>
	<path class="st8" d="M1421.7,36h6.8c0.3,0,0-0.3,0,0v6.5c0,0.3,0.3,0,0,0h-13.6c-0.3,0,0,0.3,0,0V36c0-0.3-0.3,0,0,0H1421.7z"/>
	<path class="st8" d="M1393.4,36h6.8c0.3,0,0-0.3,0,0v6.5c0,0.3,0.3,0,0,0h-13.6c-0.3,0,0,0.3,0,0V36c0-0.3-0.3,0,0,0H1393.4z"/>
	<path class="st8" d="M1365,36h6.8c0.3,0,0-0.3,0,0v6.5c0,0.3,0.3,0,0,0h-13.6c-0.3,0,0,0.3,0,0V36c0-0.3-0.3,0,0,0H1365z"/>
	<path class="st8" d="M1336.7,36h6.8c0.3,0,0-0.3,0,0v6.5c0,0.3,0.3,0,0,0h-13.6c-0.3,0,0,0.3,0,0V36c0-0.3-0.3,0,0,0H1336.7z"/>
	<path class="st8" d="M1308.3,36h6.8c0.3,0,0-0.3,0,0v6.5c0,0.3,0.3,0,0,0h-13.6c-0.3,0,0,0.3,0,0V36c0-0.3-0.3,0,0,0H1308.3z"/>
	<path class="st8" d="M1280,36h6.8c0.3,0,0-0.3,0,0v6.5c0,0.3,0.3,0,0,0h-13.6c-0.3,0,0,0.3,0,0V36c0-0.3-0.3,0,0,0H1280z"/>
	<path class="st8" d="M1251.6,36h6.8c0.3,0,0-0.3,0,0v6.5c0,0.3,0.3,0,0,0h-13.6c-0.3,0,0,0.3,0,0V36c0-0.3-0.3,0,0,0H1251.6z"/>
	<path class="st8" d="M1223.3,36h6.8c0.3,0,0-0.3,0,0v6.5c0,0.3,0.3,0,0,0h-13.6c-0.3,0,0,0.3,0,0V36c0-0.3-0.3,0,0,0H1223.3z"/>
	<path class="st8" d="M1194.9,36h6.8c0.3,0,0-0.3,0,0v6.5c0,0.3,0.3,0,0,0h-13.6c-0.3,0,0,0.3,0,0V36c0-0.3-0.3,0,0,0H1194.9z"/>
	<path class="st8" d="M1166.6,36h6.8c0.3,0,0-0.3,0,0v6.5c0,0.3,0.3,0,0,0h-13.6c-0.3,0,0,0.3,0,0V36c0-0.3-0.3,0,0,0H1166.6z"/>
	<path class="st8" d="M1138.3,36h6.8c0.3,0,0-0.3,0,0v6.5c0,0.3,0.3,0,0,0h-13.6c-0.3,0,0,0.3,0,0V36c0-0.3-0.3,0,0,0H1138.3z"/>
	<path class="st8" d="M1109.9,36h6.8c0.3,0,0-0.3,0,0v6.5c0,0.3,0.3,0,0,0h-13.6c-0.3,0,0,0.3,0,0V36c0-0.3-0.3,0,0,0H1109.9z"/>
	<path class="st8" d="M1081.6,36h6.8c0.3,0,0-0.3,0,0v6.5c0,0.3,0.3,0,0,0h-13.6c-0.3,0,0,0.3,0,0V36c0-0.3-0.3,0,0,0H1081.6z"/>
	<path class="st8" d="M1053.2,36h6.8c0.3,0,0-0.3,0,0v6.5c0,0.3,0.3,0,0,0h-13.6c-0.3,0,0,0.3,0,0V36c0-0.3-0.3,0,0,0H1053.2z"/>
	<path class="st8" d="M1024.9,36h6.8c0.3,0,0-0.3,0,0v6.5c0,0.3,0.3,0,0,0h-13.6c-0.3,0,0,0.3,0,0V36c0-0.3-0.3,0,0,0H1024.9z"/>
	<path class="st8" d="M996.5,36h6.8c0.3,0,0-0.3,0,0v6.5c0,0.3,0.3,0,0,0h-13.6c-0.3,0,0,0.3,0,0V36c0-0.3-0.3,0,0,0H996.5z"/>
	<path class="st8" d="M968.2,36h6.8c0.3,0,0-0.3,0,0v6.5c0,0.3,0.3,0,0,0h-13.6c-0.3,0,0,0.3,0,0V36c0-0.3-0.3,0,0,0H968.2z"/>
	<path class="st8" d="M939.8,36h6.8c0.3,0,0-0.3,0,0v6.5c0,0.3,0.3,0,0,0H933c-0.3,0,0,0.3,0,0V36c0-0.3-0.3,0,0,0H939.8z"/>
	<path class="st8" d="M904.7,71.1v-6.8c0-0.3-0.3,0,0,0h6.5c0.3,0,0-0.3,0,0V78c0,0.3,0.3,0,0,0h-6.5c-0.3,0,0,0.3,0,0V71.1z"/>
	<path class="st8" d="M904.7,99.5v-6.8c0-0.3-0.3,0,0,0h6.5c0.3,0,0-0.3,0,0v13.6c0,0.3,0.3,0,0,0h-6.5c-0.3,0,0,0.3,0,0V99.5z"/>
	<path class="st8" d="M904.7,127.8V121c0-0.3-0.3,0,0,0h6.5c0.3,0,0-0.3,0,0v13.6c0,0.3,0.3,0,0,0h-6.5c-0.3,0,0,0.3,0,0V127.8z"/>
	<path class="st8" d="M904.7,156.2v-6.8c0-0.3-0.3,0,0,0h6.5c0.3,0,0-0.3,0,0V163c0,0.3,0.3,0,0,0h-6.5c-0.3,0,0,0.3,0,0V156.2z"/>
</g>
</svg>
