<?xml version="1.0" encoding="utf-8"?>
<!-- Generator: Adobe Illustrator 25.2.3, SVG Export Plug-In . SVG Version: 6.00 Build 0)  -->
<svg version="1.1" xmlns="http://www.w3.org/2000/svg" xmlns:xlink="http://www.w3.org/1999/xlink" x="0px" y="0px"
	 viewBox="0 0 3703 575.9" style="enable-background:new 0 0 3703 575.9;" xml:space="preserve">
<style type="text/css">
	.st0{display:none;}
	.st1{display:inline;}
	.st2{fill:none;stroke:#FF0000;stroke-width:7.2;stroke-linecap:round;stroke-miterlimit:288;}
	
		.st3{display:none;fill-rule:evenodd;clip-rule:evenodd;fill:#777777;stroke:#777777;stroke-width:51.0236;stroke-linecap:round;stroke-miterlimit:288;}
	.st4{fill:none;stroke:#000000;stroke-width:7.200000e-02;stroke-linecap:round;stroke-miterlimit:288;}
</style>
<g id="Layer_1" class="st0">
	<g id="svgGroup" class="st1">
		<path id="front_outsideCutPath" vector-effect="non-scaling-stroke" class="st2" d="M0,346.5v40.8h8.5v40.4H0V468h8.5v40.4H0v40.3
			h8.5v40.4H0v40.8h63.4v-8.5h40.4v8.5h40.3v-8.5h40.4v8.5h40.3v-8.5h40.4v8.5h40.3v-8.5H346v8.5h40.3v-8.5h40.4v8.5H467v-8.5h40.4
			v8.5h40.3v-8.5h40.4v8.5h40.3v-8.5h40.4v8.5h40.3v-8.5h40.4v8.5h40.3v-8.5h40.4v8.5h40.3v-8.5h40.4v8.5h40.3v-8.5h40.4v8.5h40.3
			v-8.5h40.4v8.5h40.3v-8.5h40.4v8.5h40.3v-8.5h40.4v8.5h40.3v-8.5h40.4v8.5h40.3v-8.5h40.4v8.5h40.3v-8.5h40.4v8.5h40.3v-8.5h40.4
			v8.5h40.3v-8.5h40.4v8.5h63.4v-40.8h-8.5v-40.4h8.5v-40.3h-8.5V468h8.5v-40.3h-8.5v-40.4h8.5v-40.8H0z"/>
		<path id="front_labelLayer" vector-effect="non-scaling-stroke" class="st3" d="M891.7,509.6h-4.6V490c0-1.6-0.2-2.9-0.7-4
			c-0.2-0.6-0.5-1.1-0.9-1.6c-0.6-0.6-1.3-1-2.2-1.3c-0.9-0.3-1.9-0.5-3.2-0.5c-3.2,0-5.5,0.9-7,2.6c-0.6,0.7-1,1.4-1.3,2.2
			c-0.5,1.4-0.8,3.2-0.9,5.3c0,0.3-0.1,0.7-0.1,1v15.9h-4.5v-30.3h3.7l0.7,4.1h0.2c0.9-1.4,2.2-2.6,3.7-3.3c0.1,0,0.2-0.1,0.3-0.1
			c1.4-0.7,2.9-1,4.5-1.2c0.4,0,0.8-0.1,1.2-0.1c2.4,0,4.4,0.4,6,1.2c0.8,0.4,1.5,0.9,2.2,1.5c1.4,1.3,2.3,3.2,2.7,5.8
			c0.1,0.9,0.2,1.7,0.1,2.6V509.6z M803.4,479.3v3.5h-7.8v26.8h-4.5v-26.8h-5.5v-2.1l5.5-1.7v-1.7c0-1.4,0.1-2.9,0.4-4.2
			c1.1-4.7,4.2-7,9.3-7c0.7,0,1.4,0.1,2.1,0.2c0.7,0.1,1.4,0.2,2.2,0.4c0.5,0.1,1,0.2,1.4,0.4l-1.2,3.7c-1.2-0.4-2.4-0.6-3.4-0.8
			c-0.4,0-0.8-0.1-1.2-0.1c-0.5,0-1,0-1.5,0.1c-0.9,0.2-1.8,0.8-2.3,1.6c-0.8,1.1-1.2,2.7-1.2,4.9c0,0.2-0.1,0.4-0.1,0.6v2H803.4z
			 M915.1,505.8v3.5c-0.2,0.1-0.4,0.2-0.6,0.2c-0.4,0.1-1,0.3-1.7,0.4c-0.4,0.1-0.9,0.2-1.3,0.2c-0.5,0-0.9,0.1-1.3,0.1
			c-1.2,0-2.4-0.2-3.5-0.5c-2.6-0.8-4.2-2.6-4.9-5.4c-0.3-1.1-0.4-2.2-0.4-3.4v-18.1h-4.4v-2.2l4.4-1.9l1.9-6.5h2.7v7.1h8.9v3.5H906
			v17.9c0,0.6,0,1.1,0.1,1.7c0.1,0.6,0.3,1.1,0.5,1.6c0.2,0.4,0.4,0.7,0.6,1c0.7,0.8,1.6,1.3,2.7,1.4c0.3,0,0.6,0.1,0.9,0.1
			c0.7,0,1.5,0,2.2-0.1c0,0,0.1,0,0.1-0.1c0.2,0,0.4,0,0.6-0.1C914.4,506,914.8,505.9,915.1,505.8L915.1,505.8z M826.4,479l-0.6,4.3
			c-1.2-0.3-2.4-0.4-3.3-0.4c-2.2,0-4.3,0.9-5.8,2.5c-0.1,0.1-0.3,0.3-0.4,0.4c-1.4,1.7-2.3,3.7-2.5,5.9c-0.1,0.5-0.1,1.1-0.1,1.6
			v16.3H809v-30.3h3.7l0.6,5.6h0.2c0.5-0.9,1.1-1.7,1.7-2.5c0.7-0.8,1.4-1.5,2.3-2.1c1.5-1.1,3.4-1.6,5.3-1.6
			C824.2,478.7,825.4,478.8,826.4,479z M858.3,494.4c0,4.9-1.2,8.8-3.7,11.6c-1.9,2.1-4.4,3.5-7.2,3.9c-1,0.2-2.1,0.3-3.2,0.3
			c-1.4,0-2.9-0.2-4.2-0.6c-1-0.3-2-0.7-3-1.3c-1.9-1.2-3.5-2.8-4.5-4.8c-0.1-0.2-0.2-0.4-0.4-0.6c-0.7-1.5-1.1-3-1.4-4.6
			c-0.2-1.2-0.3-2.5-0.3-3.7c0-3.8,0.7-6.9,2.1-9.4c0.5-0.8,1-1.5,1.6-2.2c1.9-2,4.4-3.4,7.1-3.8c1-0.2,2.1-0.3,3.2-0.3
			c1.5,0,3.1,0.2,4.5,0.6c2.2,0.6,4.1,1.9,5.6,3.6c2.4,2.6,3.6,6.2,3.7,10.7C858.3,493.9,858.3,494.2,858.3,494.4z M835.2,494.4
			c0,1.1,0.1,2.2,0.2,3.3c0.1,1.1,0.4,2.1,0.7,3c0.3,0.9,0.8,1.8,1.4,2.5c1.2,1.6,3,2.6,4.9,2.9c0.6,0.1,1.3,0.2,1.9,0.1
			c0.9,0,1.9-0.1,2.8-0.4c1.6-0.4,3-1.4,4-2.7c0.7-0.9,1.2-1.9,1.6-3c0.3-0.9,0.5-1.9,0.6-3c0.1-0.9,0.2-1.9,0.1-2.8
			c0-2.5-0.3-4.6-1-6.3c-0.3-0.9-0.8-1.8-1.4-2.5c-1.2-1.5-2.8-2.5-4.7-2.8c-0.7-0.1-1.5-0.2-2.2-0.2c-0.9,0-1.8,0.1-2.7,0.3
			c-1.6,0.4-3,1.3-4,2.7c-1.1,1.4-1.8,3.4-2.2,5.8C835.2,492.4,835.2,493.4,835.2,494.4z"/>
		<path id="left_outsideCutPath" vector-effect="non-scaling-stroke" class="st2" d="M1718.3,346.5v40.8h-8.5v40.4h8.5V468h-8.5
			v40.4h8.5v40.3h-8.5v40.4h8.5v40.8h32.3v-8.5h40.4v8.5h40.3v-8.5h40.4v8.5h40.3v-8.5h40.4v8.5h32.3v-40.8h8.5v-40.4h-8.5v-40.3
			h8.5V468h-8.5v-40.3h8.5v-40.4h-8.5v-40.8H1718.3z"/>
		<path id="left_labelLayer" vector-effect="non-scaling-stroke" class="st3" d="M1871.7,479.3v3.5h-7.8v26.8h-4.5v-26.8h-5.5v-2.1
			l5.5-1.7v-1.7c0-1.4,0.1-2.9,0.4-4.2c1.1-4.7,4.2-7,9.3-7c0.7,0,1.4,0.1,2.1,0.2c0.7,0.1,1.4,0.2,2.2,0.4c0.5,0.1,1,0.2,1.4,0.4
			l-1.2,3.7c-1.2-0.4-2.4-0.6-3.4-0.8c-0.4,0-0.8-0.1-1.2-0.1c-0.5,0-1,0-1.5,0.1c-0.9,0.2-1.8,0.8-2.3,1.6
			c-0.8,1.1-1.2,2.7-1.2,4.9c0,0.2-0.1,0.4-0.1,0.6v2H1871.7z M1850.2,492.3v3h-20.9c0.1,3.6,1,6.2,2.7,8.1c1.2,1.3,2.7,2.2,4.4,2.5
			c0.9,0.2,1.9,0.3,2.8,0.3c3.3,0,6.5-0.7,9.7-2.1v4.1c-1.6,0.7-3.2,1.2-4.6,1.5c-0.6,0.1-1.3,0.2-1.9,0.3c-0.6,0.1-1.3,0.1-2,0.1
			c-0.4,0-0.9,0.1-1.3,0.1c-1.5,0-3-0.2-4.5-0.6c-2.3-0.6-4.5-1.8-6.1-3.5c-1.6-1.7-2.7-3.7-3.2-6c-0.4-1.4-0.6-2.9-0.6-4.6
			c0-0.3-0.1-0.5-0.1-0.8c0-1.6,0.2-3.2,0.5-4.8c0.4-1.9,1-3.6,1.9-5.2c0.4-0.6,0.8-1.1,1.2-1.7c2.1-2.6,5.2-4.2,8.6-4.3
			c0.4,0,0.7,0,1.1,0c1.3,0,2.7,0.1,4,0.5c2,0.6,3.8,1.7,5.1,3.2c1.4,1.7,2.4,3.7,2.9,5.8C1850,489.6,1850.2,491,1850.2,492.3z
			 M1891.2,505.8v3.5c-0.2,0.1-0.3,0.2-0.5,0.2c-0.4,0.1-1,0.3-1.7,0.4c-0.4,0.1-0.9,0.2-1.3,0.2c-0.5,0-0.9,0.1-1.4,0.1
			c-1.2,0-2.4-0.2-3.5-0.5c-2.6-0.8-4.2-2.6-4.9-5.4c-0.3-1.1-0.4-2.2-0.4-3.4v-18.1h-4.3v-2.2l4.3-1.9l1.9-6.5h2.7v7.1h8.8v3.5
			h-8.8v17.9c0,0.6,0,1.1,0.1,1.7c0.1,0.6,0.3,1.1,0.5,1.6c0.2,0.4,0.4,0.7,0.6,1c0.7,0.7,1.6,1.2,2.6,1.4c0.3,0.1,0.7,0.1,1,0.1
			c0.7,0,1.4,0,2.2-0.1c0,0,0.1,0,0.1-0.1c0.2,0,0.5,0,0.7-0.1C1890.5,506,1890.8,505.9,1891.2,505.8L1891.2,505.8z M1816.5,466.6
			v43.1h-4.6v-43.1H1816.5z M1829.4,491.5h15.8c0-2-0.3-3.6-0.9-5c-0.3-0.6-0.6-1.2-1-1.7c-1-1.2-2.3-1.9-3.8-2.2
			c-0.6-0.1-1.1-0.1-1.7-0.1c-0.9,0-1.8,0.1-2.7,0.4c-1.2,0.4-2.3,1.1-3.2,2c-0.8,0.9-1.4,2-1.8,3.1c-0.3,0.8-0.6,1.7-0.7,2.7
			C1829.4,491,1829.4,491.3,1829.4,491.5z"/>
		<path id="back_outsideCutPath" vector-effect="non-scaling-stroke" class="st2" d="M0,54v40.8h8.5v40.4H0v40.3h8.5v40.4H0v40.3
			h8.5v40.4H0v40.8h63.4V329h40.4v8.5h40.3V329h40.4v8.5h40.3V329h40.4v8.5h40.3V329H346v8.5h40.3V329h40.4v8.5H467V329h40.4v8.5
			h40.3V329h40.4v8.5h40.3V329h40.4v8.5h40.3V329h40.4v8.5h40.3V329h40.4v8.5h40.3V329h40.4v8.5h40.3V329h40.4v8.5h40.3V329h40.4
			v8.5h40.3V329h40.4v8.5h40.3V329h40.4v8.5h40.3V329h40.4v8.5h40.3V329h40.4v8.5h40.3V329h40.4v8.5h40.3V329h40.4v8.5h40.3V329
			h40.4v8.5h63.4v-40.8h-8.5v-40.4h8.5v-40.3h-8.5v-40.4h8.5v-40.3h-8.5V94.8h8.5V54H0z"/>
		<path id="back_labelLayer" vector-effect="non-scaling-stroke" class="st3" d="M889.2,201.5h0.2c0.2-0.3,0.4-0.6,0.6-0.9
			c0.5-0.7,1.2-1.4,1.9-2.2c0.3-0.4,0.7-0.8,1-1.2l9.9-10.4h5.4l-12.2,13l13.1,17.4h-5.5l-10.7-14.3l-3.5,3V217h-4.5V174h4.5v22.8
			c0,0.3,0,0.6,0,0.9c0,0.9-0.1,2.1-0.2,3.7C889.2,201.4,889.2,201.4,889.2,201.5z M796.2,213.1h-0.4L795,217h-3.3V174h4.6v10.4
			c0,2.3-0.1,4.3-0.2,6.1c0,0.1,0,0.1,0,0.2h0.2c1.8-2.5,4.6-4.2,7.6-4.5c0.6-0.1,1.2-0.1,1.9-0.1c1.3,0,2.7,0.2,4,0.6
			c2.1,0.6,4,1.8,5.3,3.5c1.1,1.4,1.9,2.9,2.4,4.6c0.4,1.2,0.6,2.6,0.8,4.1c0.1,1,0.1,1.9,0.1,2.9c0,1.5-0.1,3-0.4,4.5
			c-0.3,1.6-0.7,3-1.3,4.3c-0.5,1-1,1.9-1.7,2.7c-1.9,2.4-4.7,3.8-7.7,4c-0.5,0-1,0.1-1.5,0.1c-1.2,0-2.4-0.1-3.5-0.4
			c-0.6-0.2-1.3-0.4-1.9-0.7C798.7,215.7,797.4,214.6,796.2,213.1z M848.4,217H845l-0.9-4.3h-0.2c-1.1,1.3-2.2,2.4-3.2,3.1
			c-0.4,0.3-0.8,0.5-1.3,0.7c-0.7,0.3-1.5,0.6-2.2,0.7c-1,0.2-2.1,0.3-3.4,0.3c-1,0-1.9,0-2.9-0.2c-1.7-0.4-3.1-1.1-4.2-2.1
			c-1.1-1.1-1.9-2.4-2.2-4c-0.2-0.9-0.3-1.8-0.3-2.7c-0.1-3.2,1.7-6.1,4.5-7.5c2.2-1.2,5.3-1.9,9.2-2.1c0.3,0,0.6-0.1,0.9-0.1
			l5.1-0.1v-1.9c0-2.4-0.5-4.2-1.5-5.3c-0.5-0.6-1.2-1-1.9-1.3c-0.5-0.1-1.1-0.3-1.7-0.4c-0.4,0-0.9-0.1-1.3-0.1
			c-1.2,0-2.3,0.2-3.5,0.4c-1.6,0.4-3.3,1-5.1,1.9l-1.4-3.5c1.3-0.7,2.7-1.3,4.1-1.7c0.3-0.1,0.5-0.1,0.8-0.2
			c1.8-0.5,3.6-0.7,5.4-0.7c3.6,0,6.3,0.8,8,2.4c0.8,0.8,1.5,1.8,1.9,2.9c0.3,0.8,0.6,1.7,0.6,2.7c0.1,0.7,0.1,1.4,0.1,2.2V217z
			 M878.1,187.7l-1.4,3.9c-0.7-0.3-1.5-0.5-2.2-0.7c-0.4-0.1-0.7-0.2-1.1-0.3c-1.1-0.2-2-0.4-2.8-0.4c-0.1,0-0.3,0-0.4,0
			c-1.4,0-2.8,0.2-4.1,0.8c-2.9,1.3-4.6,4.1-5,8.5c-0.1,0.8-0.1,1.7-0.1,2.5c0,3.7,0.7,6.6,2.2,8.6c1.5,2,3.8,3,6.7,3
			c1.8,0,3.6-0.3,5.3-0.8c0.8-0.2,1.6-0.5,2.4-0.9v4.1c-1.7,0.9-3.9,1.4-6.4,1.5c-0.4,0-0.8,0-1.2,0c-1.4,0-2.8-0.1-4.2-0.4
			c-2.3-0.5-4.5-1.8-6-3.6c-1.3-1.5-2.2-3.2-2.7-5c-0.4-1.3-0.7-2.8-0.8-4.5c0-0.6-0.1-1.3-0.1-1.9c0-3.7,0.6-6.8,1.9-9.2
			c0.5-0.9,1.1-1.8,1.8-2.6c1.7-1.9,4-3.2,6.5-3.7c1.3-0.3,2.6-0.4,4-0.4c1.5,0,2.9,0.1,4.4,0.4c0.4,0.1,0.8,0.2,1.2,0.4
			c0.4,0.1,0.8,0.2,1.2,0.4C877.4,187.4,877.8,187.5,878.1,187.7L878.1,187.7z M805.1,190c-0.8,0-1.7,0.1-2.5,0.2
			c-1.9,0.4-3.3,1.2-4.3,2.4c-1.2,1.6-1.9,4.1-2,7.6c0,0.5,0,1,0,1.5c0,4.3,0.7,7.3,2.1,9.1c0.9,1.1,2.1,1.9,3.4,2.2
			c0.8,0.2,1.6,0.4,2.5,0.5c0.3,0,0.6,0,0.9,0c0.9,0,1.7-0.1,2.6-0.4c1.5-0.4,2.9-1.4,3.7-2.7c1.4-2.1,2.1-5,2.1-8.9
			c0-1-0.1-2.1-0.2-3.1c-0.2-2.3-0.8-4.1-1.7-5.4c-0.1-0.1-0.1-0.2-0.2-0.4c-1-1.4-2.5-2.4-4.2-2.7C806.6,190.1,805.8,190,805.1,190
			z M843.8,204.8v-2.7l-4.6,0.1c-0.9,0-1.8,0.1-2.7,0.2c-2.3,0.2-4.1,0.7-5.3,1.5c-1.3,0.8-2.1,2.1-2.3,3.5
			c-0.1,0.4-0.1,0.8-0.1,1.2c0,0.5,0,1,0.1,1.5c0.2,1,0.7,1.7,1.4,2.3c0.5,0.5,1.2,0.8,1.9,1c0.5,0.1,1,0.2,1.6,0.2
			c0.2,0,0.5,0.1,0.7,0.1c0.9,0,1.8-0.1,2.7-0.3c1.3-0.3,2.4-0.8,3.3-1.5c0.3-0.2,0.5-0.4,0.7-0.6c1.1-1,1.8-2.4,2.2-3.8
			C843.8,206.7,843.9,205.8,843.8,204.8z"/>
		<path id="right_outsideCutPath" vector-effect="non-scaling-stroke" class="st2" d="M1718.3,54v40.8h-8.5v40.4h8.5v40.3h-8.5v40.4
			h8.5v40.3h-8.5v40.4h8.5v40.8h32.3V329h40.4v8.5h40.3V329h40.4v8.5h40.3V329h40.4v8.5h32.3v-40.8h8.5v-40.4h-8.5v-40.3h8.5v-40.4
			h-8.5v-40.3h8.5V94.8h-8.5V54H1718.3z"/>
		<path id="right_labelLayer" vector-effect="non-scaling-stroke" class="st3" d="M1886.8,210.5h-4.6v-19.7c0-1.5-0.2-2.9-0.6-4
			c-0.2-0.6-0.6-1.1-1-1.5c-0.6-0.6-1.3-1.1-2.2-1.4c-0.9-0.3-1.9-0.5-3.2-0.5c-0.9,0-1.7,0.1-2.6,0.2c-1.9,0.4-3.3,1.2-4.4,2.4
			c-0.6,0.7-1,1.5-1.3,2.3c-0.5,1.4-0.8,3.2-0.9,5.3c0,0.3,0,0.7,0,1v15.8h-4.6v-43.1h4.6v13c0,0.5,0,1.1-0.1,1.6
			c0,0.5,0,0.9-0.1,1.4c0,0.3,0,0.6-0.1,0.9h0.3c0.9-1.4,2.1-2.6,3.8-3.5c1.2-0.6,2.5-1,3.9-1.2c0.6-0.1,1.2-0.1,1.9-0.1
			c1,0,2.1,0.1,3.1,0.2c2.2,0.4,4,1.2,5.3,2.4c1.8,1.8,2.7,4.6,2.7,8.4V210.5z M1844.7,180.1h10.4v2.9l-5.6,0.6
			c0.5,0.7,1,1.5,1.4,2.5c0.3,0.7,0.4,1.4,0.5,2.2c0.1,0.5,0.1,0.9,0.1,1.4c0,1.1-0.2,2.2-0.5,3.3c-0.5,1.5-1.3,2.8-2.5,3.8
			c-1.2,1-2.5,1.8-4,2.2c-1,0.3-2.1,0.5-3.3,0.5c-0.3,0-0.7,0-1,0c-0.6,0-1.2,0-1.7-0.1c-0.3,0-0.6-0.1-0.9-0.1
			c-1.9,1.1-2.9,2.4-2.9,3.9c0,0.8,0.3,1.4,0.9,1.8c0,0,0,0,0.1,0.1c0.5,0.3,1.4,0.5,2.6,0.6c0.3,0,0.6,0,0.9,0h5.3
			c1,0,1.9,0.1,2.9,0.2c1.9,0.3,3.5,0.9,4.7,1.9c1.4,1,2.3,2.6,2.5,4.2c0.1,0.6,0.1,1.2,0.1,1.8c0,1.2-0.2,2.3-0.6,3.5
			c-0.6,1.6-1.7,3-3.3,4.1c0,0-0.1,0-0.1,0.1c-2.7,1.8-6.6,2.7-11.8,2.7c-1.2,0-2.3-0.1-3.5-0.2c-1.2-0.1-2.2-0.4-3.2-0.7
			c-0.9-0.3-1.7-0.8-2.5-1.3c-1-0.6-1.8-1.5-2.4-2.5c-0.5-1-0.8-2-0.9-3.2c0-0.2,0-0.3,0-0.5c0-1.9,0.6-3.5,1.8-4.8
			c0.8-0.9,1.7-1.5,2.7-2c0.7-0.3,1.5-0.6,2.2-0.7c-0.7-0.3-1.4-0.9-1.9-1.5c0,0,0-0.1-0.1-0.1c-0.5-0.7-0.8-1.5-0.8-2.3
			c0-0.1,0-0.1,0-0.2c0-0.6,0-1.2,0.2-1.7c0.2-0.4,0.4-0.9,0.6-1.2c0.3-0.3,0.5-0.7,0.9-0.9c0.3-0.3,0.6-0.6,1.1-0.9
			c0.3-0.2,0.6-0.4,0.9-0.6c-1.4-0.6-2.6-1.6-3.5-2.8c-0.1-0.2-0.2-0.3-0.3-0.5c-0.9-1.4-1.4-3-1.5-4.6c0-0.2,0-0.5,0-0.7
			c0-1,0.1-2.1,0.4-3.1c0.4-1.8,1.3-3.4,2.7-4.6c1.1-0.9,2.4-1.6,3.7-2c1-0.3,2-0.5,3.2-0.6c0.5,0,1-0.1,1.4-0.1
			c0.8,0,1.6,0,2.4,0.1C1843.4,179.8,1844.1,180,1844.7,180.1z M1910.2,206.6v3.5c-0.2,0.1-0.3,0.2-0.5,0.2
			c-0.5,0.1-1.1,0.3-1.7,0.4c-0.4,0.1-0.9,0.2-1.3,0.2c-0.4,0-0.9,0.1-1.3,0.1c-1.2,0-2.4-0.2-3.5-0.5c-2.6-0.8-4.2-2.6-4.9-5.4
			c-0.3-1.1-0.4-2.2-0.4-3.4v-18.1h-4.3v-2.2l4.3-1.9l1.9-6.5h2.7v7.1h8.8v3.5h-8.8v17.9c0,0.6,0,1.1,0.1,1.7
			c0.1,0.6,0.3,1.1,0.5,1.6c0.2,0.4,0.4,0.7,0.6,1c0.7,0.7,1.6,1.2,2.6,1.4c0.3,0,0.6,0.1,0.9,0.1c0.7,0,1.5,0,2.2-0.1
			c0,0,0.1,0,0.1,0c0.2,0,0.4-0.1,0.6-0.1C1909.4,206.8,1909.8,206.8,1910.2,206.6L1910.2,206.6z M1810.4,179.9l-0.6,4.2
			c-1.2-0.3-2.4-0.4-3.3-0.4c-2.2,0-4.4,0.9-5.9,2.5c-0.1,0.2-0.3,0.3-0.4,0.5c-1.4,1.6-2.3,3.7-2.5,5.8c-0.1,0.5-0.1,1.1-0.1,1.6
			v16.3h-4.6v-30.3h3.8l0.5,5.6h0.2c0.5-0.9,1.1-1.7,1.7-2.5c0.7-0.8,1.5-1.5,2.4-2.1c1.5-1,3.3-1.6,5.2-1.6
			C1808,179.6,1809.3,179.7,1810.4,179.9z M1820.6,180.1v30.3h-4.6v-30.3H1820.6z M1843.1,209.7h-5.5c-0.6,0-1.3,0.1-1.9,0.2
			c-0.7,0.1-1.4,0.3-1.9,0.6c-0.4,0.2-0.7,0.4-1,0.6c-0.8,0.7-1.4,1.7-1.6,2.7c-0.1,0.5-0.2,1-0.2,1.6c0,0.6,0.1,1.2,0.4,1.7
			c0.3,0.7,0.8,1.3,1.5,1.8c0.1,0.1,0.1,0.1,0.2,0.2c1,0.6,2.2,1,3.7,1.2c0.7,0.1,1.4,0.1,2.2,0.1c3.5,0,6.2-0.5,8-1.4
			c0.2-0.1,0.4-0.2,0.6-0.4c0.6-0.3,1.1-0.8,1.6-1.3c0.8-0.9,1.2-2.1,1.2-3.4c0-1.6-0.5-2.8-1.6-3.4c-0.3-0.2-0.7-0.4-1-0.5
			c-0.7-0.2-1.7-0.3-2.8-0.4C1844.4,209.8,1843.8,209.7,1843.1,209.7z M1833.5,189.9c0,0.6,0.1,1.3,0.2,1.9c0.2,1.2,0.8,2.2,1.6,3
			c1.1,1,2.6,1.5,4.4,1.6c0.2,0,0.4,0,0.6,0c4.5,0,6.7-2.2,6.7-6.6c0-0.9-0.1-1.8-0.4-2.7c-0.8-2.8-2.9-4.2-6.5-4.2
			c-0.7,0-1.3,0.1-1.9,0.2c-1.2,0.2-2.2,0.8-3,1.6c-0.6,0.6-1,1.4-1.3,2.2C1833.6,187.8,1833.5,188.8,1833.5,189.9z M1815.7,171.1
			c0,0.3-0.1,0.5-0.1,0.8c0,0.5,0.1,1,0.2,1.4c0.1,0.4,0.3,0.7,0.6,1c0.3,0.3,0.6,0.5,0.9,0.6c0.3,0.1,0.7,0.2,1,0.1
			c0.7,0,1.3-0.2,1.9-0.7c0.2-0.2,0.3-0.4,0.4-0.6c0.1-0.3,0.2-0.6,0.3-0.9c0.1-0.3,0.1-0.6,0.1-0.9c0-0.1,0-0.3,0-0.4
			c0-0.3,0-0.6-0.1-0.9c-0.1-0.4-0.4-0.7-0.6-0.9c-0.5-0.5-1.2-0.8-1.9-0.8c-0.1,0-0.1,0-0.2,0c-0.6,0-1.3,0.3-1.7,0.7
			c-0.2,0.2-0.4,0.4-0.5,0.7C1815.8,170.5,1815.7,170.8,1815.7,171.1z"/>
		<path id="bottom_outsideCutPath" vector-effect="non-scaling-stroke" class="st2" d="M2010.7,355v32.3h-8.5v40.4h8.5V468h-8.5
			v40.4h8.5v40.3h-8.5v40.4h8.5v32.3h54.9v8.5h40.4v-8.5h40.3v8.5h40.4v-8.5h40.3v8.5h40.4v-8.5h40.3v8.5h40.4v-8.5h40.3v8.5h40.4
			v-8.5h40.3v8.5h40.4v-8.5h40.3v8.5h40.4v-8.5h40.3v8.5h40.4v-8.5h40.3v8.5h40.4v-8.5h40.3v8.5h40.4v-8.5h40.3v8.5h40.4v-8.5h40.3
			v8.5h40.4v-8.5h40.3v8.5h40.4v-8.5h40.3v8.5h40.4v-8.5h40.3v8.5h40.4v-8.5h40.3v8.5h40.4v-8.5h40.3v8.5h40.4v-8.5h40.3v8.5h40.4
			v-8.5h40.3v8.5h40.4v-8.5h40.3v8.5h40.4v-8.5h54.9v-32.3h8.5v-40.4h-8.5v-40.3h8.5V468h-8.5v-40.3h8.5v-40.4h-8.5V355h-54.9v-8.5
			h-40.4v8.5h-40.3v-8.5h-40.4v8.5h-40.3v-8.5h-40.4v8.5h-40.3v-8.5h-40.4v8.5h-40.3v-8.5h-40.4v8.5H3236v-8.5h-40.4v8.5h-40.3v-8.5
			h-40.4v8.5h-40.3v-8.5h-40.4v8.5h-40.3v-8.5h-40.4v8.5h-40.3v-8.5h-40.4v8.5h-40.3v-8.5h-40.4v8.5h-40.3v-8.5h-40.4v8.5h-40.3
			v-8.5h-40.4v8.5h-40.3v-8.5H2550v8.5h-40.3v-8.5h-40.4v8.5h-40.3v-8.5h-40.4v8.5h-40.3v-8.5h-40.4v8.5h-40.3v-8.5h-40.4v8.5h-40.3
			v-8.5h-40.4v8.5h-40.3v-8.5h-40.4v8.5H2010.7z"/>
		<path id="bottom_labelLayer" vector-effect="non-scaling-stroke" class="st3" d="M2945.9,509.5h-4.5v-19.7c0-1.5-0.2-2.8-0.6-3.9
			c-0.2-0.6-0.5-1.1-0.9-1.6c-0.6-0.7-1.4-1.2-2.2-1.4c-0.5-0.2-1.1-0.3-1.8-0.4c-0.3,0-0.5,0-0.8,0c-2,0-3.6,0.4-4.9,1.2
			c-0.5,0.3-1,0.7-1.4,1.2c-0.6,0.7-1,1.5-1.3,2.3c-0.2,0.8-0.4,1.6-0.6,2.5c-0.1,0.9-0.2,1.8-0.1,2.7v17h-4.6v-19.7
			c0-1.5-0.2-2.8-0.6-3.9c-0.2-0.6-0.5-1.1-0.9-1.6c-0.6-0.7-1.4-1.2-2.2-1.4c-0.5-0.2-1.1-0.3-1.7-0.4c-0.3,0-0.6,0-0.9,0
			c-0.8,0-1.6,0.1-2.4,0.2c-1,0.2-1.8,0.5-2.5,1c-0.6,0.4-1,0.8-1.4,1.4c-1.2,1.5-1.8,4-1.9,7.4c0,0.4-0.1,0.7-0.1,1.1v15.9h-4.6
			v-30.4h3.7l0.8,4.2h0.2c0.9-1.5,2.1-2.6,3.7-3.5c1.3-0.7,2.8-1.1,4.3-1.2c0.3,0,0.6,0,0.9,0c3,0,5.3,0.6,7,1.9
			c1,0.8,1.9,1.9,2.4,3.2h0.2c0.9-1.6,2.2-2.8,3.9-3.7c1.3-0.7,2.8-1.1,4.2-1.3c0.6-0.1,1.1-0.1,1.7-0.1c3.4,0,6,0.9,7.7,2.6
			c0.7,0.8,1.3,1.8,1.7,2.8c0.6,1.5,0.9,3.4,0.9,5.7V509.5z M2764,505.6h-0.4l-0.9,3.9h-3.3v-43.1h4.6v10.4c0,2.3-0.1,4.3-0.2,6.1
			c0,0.1,0,0.1,0,0.2h0.2c1.8-2.5,4.6-4.2,7.6-4.5c0.6-0.1,1.2-0.1,1.9-0.1c1.3,0,2.7,0.2,4,0.6c2.1,0.6,4,1.8,5.3,3.5
			c1.1,1.4,1.9,2.9,2.4,4.6c0.4,1.2,0.6,2.6,0.8,4.1c0.1,1,0.1,1.9,0.1,2.9c0,1.5-0.1,3-0.4,4.5c-0.3,1.6-0.7,3-1.3,4.3
			c-0.5,1-1,1.9-1.7,2.7c-1.9,2.4-4.7,3.8-7.7,4c-0.5,0-1,0.1-1.5,0.1c-1.2,0-2.4-0.1-3.5-0.4c-0.6-0.2-1.3-0.4-1.9-0.7
			C2766.5,508.2,2765.1,507.1,2764,505.6z M2842.3,505.7v3.5c-0.2,0.1-0.4,0.2-0.6,0.2c-0.4,0.1-1,0.3-1.7,0.4
			c-0.4,0.1-0.9,0.2-1.3,0.2c-0.5,0-0.9,0-1.3,0c-1.2,0-2.4-0.1-3.5-0.4c-2.6-0.8-4.2-2.6-4.9-5.4c-0.3-1.1-0.4-2.2-0.4-3.4v-18.1
			h-4.4v-2.2l4.4-1.9l1.9-6.5h2.7v7h8.9v3.6h-8.9v17.9c0,0.6,0,1.1,0.1,1.7c0.1,0.6,0.3,1.1,0.5,1.6c0.2,0.3,0.4,0.7,0.6,0.9
			c0.7,0.8,1.6,1.3,2.7,1.4c0.3,0,0.6,0.1,0.9,0.1c0.7,0,1.5,0,2.2-0.1c0,0,0.1,0,0.1-0.1c0.2,0,0.4,0,0.6-0.1
			C2841.6,505.8,2842,505.8,2842.3,505.7L2842.3,505.7z M2862.4,505.7v3.5c-0.2,0.1-0.4,0.2-0.6,0.2c-0.4,0.1-1,0.3-1.7,0.4
			c-0.4,0.1-0.9,0.2-1.3,0.2c-0.5,0-0.9,0-1.3,0c-1.2,0-2.4-0.1-3.5-0.4c-2.6-0.8-4.2-2.6-5-5.4c-0.3-1.1-0.4-2.2-0.4-3.4v-18.1
			h-4.3v-2.2l4.3-1.9l1.9-6.5h2.7v7h8.9v3.6h-8.9v17.9c0,0.6,0,1.1,0.1,1.7c0.1,0.6,0.3,1.1,0.5,1.6c0.2,0.3,0.4,0.7,0.6,0.9
			c0.7,0.8,1.6,1.3,2.7,1.4c0.3,0,0.6,0.1,0.9,0.1c0.7,0,1.5,0,2.2-0.1c0,0,0.1,0,0.1-0.1c0.2,0,0.4,0,0.6-0.1
			C2861.6,505.8,2862,505.8,2862.4,505.7L2862.4,505.7z M2820.3,494.3c0,4.9-1.2,8.8-3.7,11.6c-1.9,2.1-4.4,3.5-7.2,3.9
			c-1,0.2-2.1,0.2-3.1,0.2c-1.5,0-2.9-0.2-4.3-0.6c-1-0.3-2-0.7-3-1.3c-1.9-1.2-3.5-2.8-4.5-4.8c-0.1-0.2-0.2-0.4-0.3-0.6
			c-0.7-1.5-1.2-3.1-1.4-4.7c-0.2-1.2-0.3-2.4-0.3-3.7c0-3.8,0.7-6.9,2.2-9.4c0.4-0.8,0.9-1.5,1.5-2.2c1.9-2,4.4-3.4,7.1-3.8
			c1-0.2,2.1-0.3,3.2-0.3c1.5,0,3.1,0.2,4.5,0.6c2.2,0.6,4.1,1.9,5.6,3.6c2.4,2.6,3.6,6.2,3.7,10.7
			C2820.3,493.8,2820.3,494,2820.3,494.3z M2894.6,494.3c0,4.9-1.2,8.8-3.7,11.6c-1.9,2.1-4.4,3.5-7.2,3.9c-1,0.2-2.1,0.2-3.2,0.2
			c-1.4,0-2.9-0.2-4.2-0.6c-1-0.3-2-0.7-3-1.3c-1.9-1.2-3.5-2.8-4.5-4.8c-0.1-0.2-0.2-0.4-0.4-0.6c-0.7-1.5-1.2-3.1-1.4-4.7
			c-0.2-1.2-0.3-2.4-0.3-3.7c0-3.8,0.7-6.9,2.2-9.4c0.5-0.8,1-1.5,1.6-2.2c1.9-2,4.3-3.4,7.1-3.8c1.1-0.2,2.2-0.3,3.2-0.3
			c1.5,0,3.1,0.2,4.5,0.6c2.1,0.7,4.1,1.9,5.5,3.6c2.4,2.6,3.6,6.2,3.7,10.7C2894.6,493.8,2894.6,494,2894.6,494.3z M2797.2,494.3
			c0,1.1,0.1,2.2,0.2,3.3c0.1,1.1,0.4,2.1,0.8,3c0.3,0.9,0.7,1.7,1.3,2.5c1.2,1.6,3,2.6,4.9,2.9c0.6,0.1,1.3,0.2,1.9,0.1
			c0.9,0,1.9-0.1,2.8-0.4c1.6-0.4,3-1.4,4-2.7c0.7-0.9,1.2-1.9,1.6-3c0.3-0.9,0.5-1.9,0.6-3c0.1-0.9,0.2-1.9,0.1-2.8
			c0-2.5-0.3-4.6-0.9-6.3c-0.3-0.9-0.8-1.8-1.4-2.5c-1.2-1.5-2.8-2.5-4.7-2.8c-0.7-0.1-1.5-0.2-2.2-0.2c-0.9,0-1.8,0.1-2.7,0.3
			c-1.6,0.4-3.1,1.3-4.1,2.7c-1.1,1.4-1.8,3.4-2.2,5.8C2797.2,492.2,2797.2,493.2,2797.2,494.3z M2871.5,494.3
			c0,1.1,0.1,2.2,0.2,3.3c0.1,1.1,0.4,2.1,0.7,3c0.3,0.9,0.8,1.8,1.4,2.5c1.2,1.6,3,2.6,4.9,2.9c0.6,0.1,1.3,0.2,1.9,0.1
			c0.9,0,1.9-0.1,2.8-0.4c1.6-0.4,3-1.4,4-2.7c0.7-0.9,1.2-1.9,1.5-3c0.3-0.9,0.6-1.9,0.6-3c0.1-0.9,0.2-1.9,0.1-2.8
			c0-2.5-0.3-4.6-0.9-6.3c-0.3-0.9-0.8-1.8-1.4-2.5c-1.2-1.5-2.8-2.5-4.7-2.8c-0.7-0.1-1.5-0.2-2.2-0.2c-0.9,0-1.8,0.1-2.7,0.3
			c-1.6,0.4-3.1,1.3-4.1,2.7c-1.1,1.4-1.8,3.4-2.1,5.8C2871.5,492.2,2871.5,493.2,2871.5,494.3z M2772.9,482.5
			c-0.8,0-1.7,0.1-2.5,0.2c-1.9,0.4-3.3,1.2-4.3,2.4c-1.2,1.6-1.9,4.1-2,7.6c0,0.5,0,1,0,1.5c0,4.3,0.7,7.3,2.1,9.1
			c0.9,1.1,2.1,1.9,3.4,2.2c0.8,0.2,1.6,0.4,2.5,0.5c0.3,0,0.6,0,0.9,0c0.9,0,1.7-0.1,2.6-0.4c1.5-0.4,2.9-1.4,3.7-2.7
			c1.4-2.1,2.1-5,2.1-8.9c0-1-0.1-2.1-0.2-3.1c-0.2-2.3-0.8-4.1-1.7-5.4c-0.1-0.1-0.1-0.2-0.2-0.4c-1-1.4-2.5-2.4-4.2-2.7
			C2774.3,482.5,2773.6,482.5,2772.9,482.5z"/>
	</g>
</g>
<g id="Layer_2">
	<path id="front_outsideCutPath_1_" vector-effect="non-scaling-stroke" class="st4" d="M2.6,3.4v40.8h8.5v40.4H2.6V125h8.5v40.4
		H2.6v40.3h8.5v40.4H2.6v40.8H66v-8.5h40.4v8.5h40.3v-8.5h40.4v8.5h40.3v-8.5h40.4v8.5h40.3v-8.5h40.4v8.5h40.3v-8.5h40.4v8.5h40.3
		v-8.5H510v8.5h40.3v-8.5h40.4v8.5H631v-8.5h40.4v8.5h40.3v-8.5h40.4v8.5h40.3v-8.5h40.4v8.5h40.3v-8.5h40.4v8.5h40.3v-8.5h40.4v8.5
		h40.3v-8.5h40.4v8.5h40.3v-8.5h40.4v8.5h40.3v-8.5h40.4v8.5h40.3v-8.5h40.4v8.5h40.3v-8.5h40.4v8.5h40.3v-8.5h40.4v8.5h40.3v-8.5
		h40.4v8.5h40.3v-8.5h40.4v8.5h63.4v-40.8h-8.5v-40.4h8.5v-40.3h-8.5V125h8.5V84.7h-8.5V44.3h8.5V3.4H2.6z"/>
	<path id="left_outsideCutPath_1_" vector-effect="non-scaling-stroke" class="st4" d="M10.9,2.4v40.8H2.4v40.4h8.5V124H2.4v40.4
		h8.5v40.3H2.4v40.4h8.5v40.8h32.3v-8.5h40.4v8.5h40.3v-8.5h40.4v8.5h40.3v-8.5H245v8.5h32.3v-40.8h8.5v-40.4h-8.5v-40.3h8.5V124
		h-8.5V83.7h8.5V43.3h-8.5V2.4H10.9z"/>
	<path id="back_outsideCutPath_1_" vector-effect="non-scaling-stroke" class="st4" d="M2.6,3v40.8h8.5v40.4H2.6v40.3h8.5v40.4H2.6
		v40.3h8.5v40.4H2.6v40.8H66v-8.5h40.4v8.5h40.3v-8.5h40.4v8.5h40.3v-8.5h40.4v8.5h40.3v-8.5h40.4v8.5h40.3v-8.5h40.4v8.5h40.3v-8.5
		H510v8.5h40.3v-8.5h40.4v8.5H631v-8.5h40.4v8.5h40.3v-8.5h40.4v8.5h40.3v-8.5h40.4v8.5h40.3v-8.5h40.4v8.5h40.3v-8.5h40.4v8.5h40.3
		v-8.5h40.4v8.5h40.3v-8.5h40.4v8.5h40.3v-8.5h40.4v8.5h40.3v-8.5h40.4v8.5h40.3v-8.5h40.4v8.5h40.3v-8.5h40.4v8.5h40.3v-8.5h40.4
		v8.5h40.3v-8.5h40.4v8.5h63.4v-40.8h-8.5v-40.4h8.5v-40.3h-8.5v-40.4h8.5V84.2h-8.5V43.8h8.5V3H2.6z"/>
	<path id="right_outsideCutPath_1_" vector-effect="non-scaling-stroke" class="st4" d="M10.9,3v40.8H2.4v40.4h8.5v40.3H2.4v40.4
		h8.5v40.3H2.4v40.4h8.5v40.8h32.3v-8.5h40.4v8.5h40.3v-8.5h40.4v8.5h40.3v-8.5H245v8.5h32.3v-40.8h8.5v-40.4h-8.5v-40.3h8.5v-40.4
		h-8.5V84.2h8.5V43.8h-8.5V3H10.9z"/>
	<path id="bottom_outsideCutPath_1_" vector-effect="non-scaling-stroke" class="st4" d="M11.3,11.9v32.3H2.8v40.4h8.5V125H2.8v40.4
		h8.5v40.3H2.8v40.4h8.5v32.3h54.9v8.5h40.4v-8.5H147v8.5h40.4v-8.5h40.3v8.5h40.4v-8.5h40.3v8.5h40.4v-8.5h40.3v8.5h40.4v-8.5h40.3
		v8.5h40.4v-8.5h40.3v8.5h40.4v-8.5h40.3v8.5h40.4v-8.5H712v8.5h40.4v-8.5h40.3v8.5h40.4v-8.5h40.3v8.5h40.4v-8.5h40.3v8.5h40.4
		v-8.5h40.3v8.5h40.4v-8.5h40.3v8.5h40.4v-8.5h40.3v8.5h40.4v-8.5h40.3v8.5h40.4v-8.5h40.3v8.5h40.4v-8.5h40.3v8.5h40.4v-8.5h40.3
		v8.5h40.4v-8.5h40.3v8.5h40.4v-8.5h54.9v-32.3h8.5v-40.4h-8.5v-40.3h8.5V125h-8.5V84.7h8.5V44.3h-8.5V11.9h-54.9V3.4h-40.4v8.5
		h-40.3V3.4h-40.4v8.5h-40.3V3.4h-40.4v8.5h-40.3V3.4h-40.4v8.5h-40.3V3.4H1277v8.5h-40.3V3.4h-40.4v8.5h-40.3V3.4h-40.4v8.5h-40.3
		V3.4h-40.4v8.5h-40.3V3.4h-40.4v8.5h-40.3V3.4h-40.4v8.5h-40.3V3.4h-40.4v8.5h-40.3V3.4H712v8.5h-40.3V3.4h-40.4v8.5h-40.3V3.4
		h-40.4v8.5h-40.3V3.4h-40.4v8.5h-40.3V3.4h-40.4v8.5h-40.3V3.4h-40.4v8.5h-40.3V3.4h-40.4v8.5h-40.3V3.4H147v8.5h-40.3V3.4H66.3
		v8.5H11.3z"/>
</g>
</svg>
