0
SECTION
2
HEADER
9
$INSUNITS
70
4
0
ENDSEC
0
SECTION
2
TABLES
0
TABLE
2
LTYPE
0
LTYPE
72
65
70
64
2
CONTINUOUS
3
______
73
0
40
0
0
ENDTAB
0
TABLE
2
LAYER
0
ENDTAB
0
ENDSEC
0
SECTION
2
ENTITIES
0
LINE
8
front_outsideCutPath
10
0
20
96
11
0
21
66.375
0
LINE
8
front_outsideCutPath
10
0
20
66.375
11
3
21
66.375
0
LINE
8
front_outsideCutPath
10
3
20
66.375
11
3
21
32.625
0
LINE
8
front_outsideCutPath
10
3
20
32.625
11
0
21
32.625
0
LINE
8
front_outsideCutPath
10
0
20
32.625
11
0
21
3
0
LINE
8
front_outsideCutPath
10
0
20
3
11
64.875
21
3
0
LINE
8
front_outsideCutPath
10
64.875
20
3
11
64.875
21
6
0
LINE
8
front_outsideCutPath
10
64.875
20
6
11
98.625
21
6
0
LINE
8
front_outsideCutPath
10
98.625
20
6
11
98.625
21
3
0
LINE
8
front_outsideCutPath
10
98.625
20
3
11
132.375
21
3
0
LINE
8
front_outsideCutPath
10
132.375
20
3
11
132.375
21
6
0
LINE
8
front_outsideCutPath
10
132.375
20
6
11
166.125
21
6
0
LINE
8
front_outsideCutPath
10
166.125
20
6
11
166.125
21
3
0
LINE
8
front_outsideCutPath
10
166.125
20
3
11
199.875
21
3
0
LINE
8
front_outsideCutPath
10
199.875
20
3
11
199.875
21
6
0
LINE
8
front_outsideCutPath
10
199.875
20
6
11
233.625
21
6
0
LINE
8
front_outsideCutPath
10
233.625
20
6
11
233.625
21
3
0
LINE
8
front_outsideCutPath
10
233.625
20
3
11
267.375
21
3
0
LINE
8
front_outsideCutPath
10
267.375
20
3
11
267.375
21
6
0
LINE
8
front_outsideCutPath
10
267.375
20
6
11
301.125
21
6
0
LINE
8
front_outsideCutPath
10
301.125
20
6
11
301.125
21
3
0
LINE
8
front_outsideCutPath
10
301.125
20
3
11
334.875
21
3
0
LINE
8
front_outsideCutPath
10
334.875
20
3
11
334.875
21
6
0
LINE
8
front_outsideCutPath
10
334.875
20
6
11
368.625
21
6
0
LINE
8
front_outsideCutPath
10
368.625
20
6
11
368.625
21
3
0
LINE
8
front_outsideCutPath
10
368.625
20
3
11
402.375
21
3
0
LINE
8
front_outsideCutPath
10
402.375
20
3
11
402.375
21
6
0
LINE
8
front_outsideCutPath
10
402.375
20
6
11
436.125
21
6
0
LINE
8
front_outsideCutPath
10
436.125
20
6
11
436.125
21
3
0
LINE
8
front_outsideCutPath
10
436.125
20
3
11
469.875
21
3
0
LINE
8
front_outsideCutPath
10
469.875
20
3
11
469.875
21
6
0
LINE
8
front_outsideCutPath
10
469.875
20
6
11
503.625
21
6
0
LINE
8
front_outsideCutPath
10
503.625
20
6
11
503.625
21
3
0
LINE
8
front_outsideCutPath
10
503.625
20
3
11
537.375
21
3
0
LINE
8
front_outsideCutPath
10
537.375
20
3
11
537.375
21
6
0
LINE
8
front_outsideCutPath
10
537.375
20
6
11
571.125
21
6
0
LINE
8
front_outsideCutPath
10
571.125
20
6
11
571.125
21
3
0
LINE
8
front_outsideCutPath
10
571.125
20
3
11
604.875
21
3
0
LINE
8
front_outsideCutPath
10
604.875
20
3
11
636
21
3
0
LINE
8
front_outsideCutPath
10
636
20
3
11
636
21
32.625
0
LINE
8
front_outsideCutPath
10
636
20
32.625
11
633
21
32.625
0
LINE
8
front_outsideCutPath
10
633
20
32.625
11
633
21
66.375
0
LINE
8
front_outsideCutPath
10
633
20
66.375
11
636
21
66.375
0
LINE
8
front_outsideCutPath
10
636
20
66.375
11
636
21
96
0
LINE
8
front_outsideCutPath
10
636
20
96
11
0
21
96
0
LINE
8
left_outsideCutPath
10
642
20
96
11
642
21
66.375
0
LINE
8
left_outsideCutPath
10
642
20
66.375
11
639
21
66.375
0
LINE
8
left_outsideCutPath
10
639
20
66.375
11
639
21
32.625
0
LINE
8
left_outsideCutPath
10
639
20
32.625
11
642
21
32.625
0
LINE
8
left_outsideCutPath
10
642
20
32.625
11
642
21
3
0
LINE
8
left_outsideCutPath
10
642
20
3
11
703.875
21
3
0
LINE
8
left_outsideCutPath
10
703.875
20
3
11
703.875
21
6
0
LINE
8
left_outsideCutPath
10
703.875
20
6
11
737.625
21
6
0
LINE
8
left_outsideCutPath
10
737.625
20
6
11
737.625
21
3
0
LINE
8
left_outsideCutPath
10
737.625
20
3
11
771.375
21
3
0
LINE
8
left_outsideCutPath
10
771.375
20
3
11
771.375
21
6
0
LINE
8
left_outsideCutPath
10
771.375
20
6
11
805.125
21
6
0
LINE
8
left_outsideCutPath
10
805.125
20
6
11
805.125
21
3
0
LINE
8
left_outsideCutPath
10
805.125
20
3
11
838.875
21
3
0
LINE
8
left_outsideCutPath
10
838.875
20
3
11
838.875
21
6
0
LINE
8
left_outsideCutPath
10
838.875
20
6
11
872.625
21
6
0
LINE
8
left_outsideCutPath
10
872.625
20
6
11
872.625
21
3
0
LINE
8
left_outsideCutPath
10
872.625
20
3
11
906.375
21
3
0
LINE
8
left_outsideCutPath
10
906.375
20
3
11
906.375
21
6
0
LINE
8
left_outsideCutPath
10
906.375
20
6
11
940.125
21
6
0
LINE
8
left_outsideCutPath
10
940.125
20
6
11
940.125
21
3
0
LINE
8
left_outsideCutPath
10
940.125
20
3
11
973.875
21
3
0
LINE
8
left_outsideCutPath
10
973.875
20
3
11
973.875
21
6
0
LINE
8
left_outsideCutPath
10
973.875
20
6
11
1007.625
21
6
0
LINE
8
left_outsideCutPath
10
1007.625
20
6
11
1007.625
21
3
0
LINE
8
left_outsideCutPath
10
1007.625
20
3
11
1041.375
21
3
0
LINE
8
left_outsideCutPath
10
1041.375
20
3
11
1041.375
21
6
0
LINE
8
left_outsideCutPath
10
1041.375
20
6
11
1075.125
21
6
0
LINE
8
left_outsideCutPath
10
1075.125
20
6
11
1075.125
21
3
0
LINE
8
left_outsideCutPath
10
1075.125
20
3
11
1108.875
21
3
0
LINE
8
left_outsideCutPath
10
1108.875
20
3
11
1108.875
21
6
0
LINE
8
left_outsideCutPath
10
1108.875
20
6
11
1142.625
21
6
0
LINE
8
left_outsideCutPath
10
1142.625
20
6
11
1142.625
21
3
0
LINE
8
left_outsideCutPath
10
1142.625
20
3
11
1176.375
21
3
0
LINE
8
left_outsideCutPath
10
1176.375
20
3
11
1176.375
21
6
0
LINE
8
left_outsideCutPath
10
1176.375
20
6
11
1210.125
21
6
0
LINE
8
left_outsideCutPath
10
1210.125
20
6
11
1210.125
21
3
0
LINE
8
left_outsideCutPath
10
1210.125
20
3
11
1243.875
21
3
0
LINE
8
left_outsideCutPath
10
1243.875
20
3
11
1272
21
3
0
LINE
8
left_outsideCutPath
10
1272
20
3
11
1272
21
32.625
0
LINE
8
left_outsideCutPath
10
1272
20
32.625
11
1275
21
32.625
0
LINE
8
left_outsideCutPath
10
1275
20
32.625
11
1275
21
66.375
0
LINE
8
left_outsideCutPath
10
1275
20
66.375
11
1272
21
66.375
0
LINE
8
left_outsideCutPath
10
1272
20
66.375
11
1272
21
96
0
LINE
8
left_outsideCutPath
10
1272
20
96
11
642
21
96
0
LINE
8
back_outsideCutPath
10
0
20
192
11
0
21
162.375
0
LINE
8
back_outsideCutPath
10
0
20
162.375
11
3
21
162.375
0
LINE
8
back_outsideCutPath
10
3
20
162.375
11
3
21
128.625
0
LINE
8
back_outsideCutPath
10
3
20
128.625
11
0
21
128.625
0
LINE
8
back_outsideCutPath
10
0
20
128.625
11
0
21
99
0
LINE
8
back_outsideCutPath
10
0
20
99
11
64.875
21
99
0
LINE
8
back_outsideCutPath
10
64.875
20
99
11
64.875
21
102
0
LINE
8
back_outsideCutPath
10
64.875
20
102
11
98.625
21
102
0
LINE
8
back_outsideCutPath
10
98.625
20
102
11
98.625
21
99
0
LINE
8
back_outsideCutPath
10
98.625
20
99
11
132.375
21
99
0
LINE
8
back_outsideCutPath
10
132.375
20
99
11
132.375
21
102
0
LINE
8
back_outsideCutPath
10
132.375
20
102
11
166.125
21
102
0
LINE
8
back_outsideCutPath
10
166.125
20
102
11
166.125
21
99
0
LINE
8
back_outsideCutPath
10
166.125
20
99
11
199.875
21
99
0
LINE
8
back_outsideCutPath
10
199.875
20
99
11
199.875
21
102
0
LINE
8
back_outsideCutPath
10
199.875
20
102
11
233.625
21
102
0
LINE
8
back_outsideCutPath
10
233.625
20
102
11
233.625
21
99
0
LINE
8
back_outsideCutPath
10
233.625
20
99
11
267.375
21
99
0
LINE
8
back_outsideCutPath
10
267.375
20
99
11
267.375
21
102
0
LINE
8
back_outsideCutPath
10
267.375
20
102
11
301.125
21
102
0
LINE
8
back_outsideCutPath
10
301.125
20
102
11
301.125
21
99
0
LINE
8
back_outsideCutPath
10
301.125
20
99
11
334.875
21
99
0
LINE
8
back_outsideCutPath
10
334.875
20
99
11
334.875
21
102
0
LINE
8
back_outsideCutPath
10
334.875
20
102
11
368.625
21
102
0
LINE
8
back_outsideCutPath
10
368.625
20
102
11
368.625
21
99
0
LINE
8
back_outsideCutPath
10
368.625
20
99
11
402.375
21
99
0
LINE
8
back_outsideCutPath
10
402.375
20
99
11
402.375
21
102
0
LINE
8
back_outsideCutPath
10
402.375
20
102
11
436.125
21
102
0
LINE
8
back_outsideCutPath
10
436.125
20
102
11
436.125
21
99
0
LINE
8
back_outsideCutPath
10
436.125
20
99
11
469.875
21
99
0
LINE
8
back_outsideCutPath
10
469.875
20
99
11
469.875
21
102
0
LINE
8
back_outsideCutPath
10
469.875
20
102
11
503.625
21
102
0
LINE
8
back_outsideCutPath
10
503.625
20
102
11
503.625
21
99
0
LINE
8
back_outsideCutPath
10
503.625
20
99
11
537.375
21
99
0
LINE
8
back_outsideCutPath
10
537.375
20
99
11
537.375
21
102
0
LINE
8
back_outsideCutPath
10
537.375
20
102
11
571.125
21
102
0
LINE
8
back_outsideCutPath
10
571.125
20
102
11
571.125
21
99
0
LINE
8
back_outsideCutPath
10
571.125
20
99
11
604.875
21
99
0
LINE
8
back_outsideCutPath
10
604.875
20
99
11
636
21
99
0
LINE
8
back_outsideCutPath
10
636
20
99
11
636
21
128.625
0
LINE
8
back_outsideCutPath
10
636
20
128.625
11
633
21
128.625
0
LINE
8
back_outsideCutPath
10
633
20
128.625
11
633
21
162.375
0
LINE
8
back_outsideCutPath
10
633
20
162.375
11
636
21
162.375
0
LINE
8
back_outsideCutPath
10
636
20
162.375
11
636
21
192
0
LINE
8
back_outsideCutPath
10
636
20
192
11
0
21
192
0
LINE
8
right_outsideCutPath
10
642
20
192
11
642
21
162.375
0
LINE
8
right_outsideCutPath
10
642
20
162.375
11
639
21
162.375
0
LINE
8
right_outsideCutPath
10
639
20
162.375
11
639
21
128.625
0
LINE
8
right_outsideCutPath
10
639
20
128.625
11
642
21
128.625
0
LINE
8
right_outsideCutPath
10
642
20
128.625
11
642
21
99
0
LINE
8
right_outsideCutPath
10
642
20
99
11
703.875
21
99
0
LINE
8
right_outsideCutPath
10
703.875
20
99
11
703.875
21
102
0
LINE
8
right_outsideCutPath
10
703.875
20
102
11
737.625
21
102
0
LINE
8
right_outsideCutPath
10
737.625
20
102
11
737.625
21
99
0
LINE
8
right_outsideCutPath
10
737.625
20
99
11
771.375
21
99
0
LINE
8
right_outsideCutPath
10
771.375
20
99
11
771.375
21
102
0
LINE
8
right_outsideCutPath
10
771.375
20
102
11
805.125
21
102
0
LINE
8
right_outsideCutPath
10
805.125
20
102
11
805.125
21
99
0
LINE
8
right_outsideCutPath
10
805.125
20
99
11
838.875
21
99
0
LINE
8
right_outsideCutPath
10
838.875
20
99
11
838.875
21
102
0
LINE
8
right_outsideCutPath
10
838.875
20
102
11
872.625
21
102
0
LINE
8
right_outsideCutPath
10
872.625
20
102
11
872.625
21
99
0
LINE
8
right_outsideCutPath
10
872.625
20
99
11
906.375
21
99
0
LINE
8
right_outsideCutPath
10
906.375
20
99
11
906.375
21
102
0
LINE
8
right_outsideCutPath
10
906.375
20
102
11
940.125
21
102
0
LINE
8
right_outsideCutPath
10
940.125
20
102
11
940.125
21
99
0
LINE
8
right_outsideCutPath
10
940.125
20
99
11
973.875
21
99
0
LINE
8
right_outsideCutPath
10
973.875
20
99
11
973.875
21
102
0
LINE
8
right_outsideCutPath
10
973.875
20
102
11
1007.625
21
102
0
LINE
8
right_outsideCutPath
10
1007.625
20
102
11
1007.625
21
99
0
LINE
8
right_outsideCutPath
10
1007.625
20
99
11
1041.375
21
99
0
LINE
8
right_outsideCutPath
10
1041.375
20
99
11
1041.375
21
102
0
LINE
8
right_outsideCutPath
10
1041.375
20
102
11
1075.125
21
102
0
LINE
8
right_outsideCutPath
10
1075.125
20
102
11
1075.125
21
99
0
LINE
8
right_outsideCutPath
10
1075.125
20
99
11
1108.875
21
99
0
LINE
8
right_outsideCutPath
10
1108.875
20
99
11
1108.875
21
102
0
LINE
8
right_outsideCutPath
10
1108.875
20
102
11
1142.625
21
102
0
LINE
8
right_outsideCutPath
10
1142.625
20
102
11
1142.625
21
99
0
LINE
8
right_outsideCutPath
10
1142.625
20
99
11
1176.375
21
99
0
LINE
8
right_outsideCutPath
10
1176.375
20
99
11
1176.375
21
102
0
LINE
8
right_outsideCutPath
10
1176.375
20
102
11
1210.125
21
102
0
LINE
8
right_outsideCutPath
10
1210.125
20
102
11
1210.125
21
99
0
LINE
8
right_outsideCutPath
10
1210.125
20
99
11
1243.875
21
99
0
LINE
8
right_outsideCutPath
10
1243.875
20
99
11
1272
21
99
0
LINE
8
right_outsideCutPath
10
1272
20
99
11
1272
21
128.625
0
LINE
8
right_outsideCutPath
10
1272
20
128.625
11
1275
21
128.625
0
LINE
8
right_outsideCutPath
10
1275
20
128.625
11
1275
21
162.375
0
LINE
8
right_outsideCutPath
10
1275
20
162.375
11
1272
21
162.375
0
LINE
8
right_outsideCutPath
10
1272
20
162.375
11
1272
21
192
0
LINE
8
right_outsideCutPath
10
1272
20
192
11
642
21
192
0
LINE
8
bottom_outsideCutPath
10
1281
20
636
11
1281
21
574.125
0
LINE
8
bottom_outsideCutPath
10
1281
20
574.125
11
1278
21
574.125
0
LINE
8
bottom_outsideCutPath
10
1278
20
574.125
11
1278
21
540.375
0
LINE
8
bottom_outsideCutPath
10
1278
20
540.375
11
1281
21
540.375
0
LINE
8
bottom_outsideCutPath
10
1281
20
540.375
11
1281
21
506.625
0
LINE
8
bottom_outsideCutPath
10
1281
20
506.625
11
1278
21
506.625
0
LINE
8
bottom_outsideCutPath
10
1278
20
506.625
11
1278
21
472.875
0
LINE
8
bottom_outsideCutPath
10
1278
20
472.875
11
1281
21
472.875
0
LINE
8
bottom_outsideCutPath
10
1281
20
472.875
11
1281
21
439.125
0
LINE
8
bottom_outsideCutPath
10
1281
20
439.125
11
1278
21
439.125
0
LINE
8
bottom_outsideCutPath
10
1278
20
439.125
11
1278
21
405.375
0
LINE
8
bottom_outsideCutPath
10
1278
20
405.375
11
1281
21
405.375
0
LINE
8
bottom_outsideCutPath
10
1281
20
405.375
11
1281
21
371.625
0
LINE
8
bottom_outsideCutPath
10
1281
20
371.625
11
1278
21
371.625
0
LINE
8
bottom_outsideCutPath
10
1278
20
371.625
11
1278
21
337.875
0
LINE
8
bottom_outsideCutPath
10
1278
20
337.875
11
1281
21
337.875
0
LINE
8
bottom_outsideCutPath
10
1281
20
337.875
11
1281
21
304.125
0
LINE
8
bottom_outsideCutPath
10
1281
20
304.125
11
1278
21
304.125
0
LINE
8
bottom_outsideCutPath
10
1278
20
304.125
11
1278
21
270.375
0
LINE
8
bottom_outsideCutPath
10
1278
20
270.375
11
1281
21
270.375
0
LINE
8
bottom_outsideCutPath
10
1281
20
270.375
11
1281
21
236.625
0
LINE
8
bottom_outsideCutPath
10
1281
20
236.625
11
1278
21
236.625
0
LINE
8
bottom_outsideCutPath
10
1278
20
236.625
11
1278
21
202.875
0
LINE
8
bottom_outsideCutPath
10
1278
20
202.875
11
1281
21
202.875
0
LINE
8
bottom_outsideCutPath
10
1281
20
202.875
11
1281
21
169.125
0
LINE
8
bottom_outsideCutPath
10
1281
20
169.125
11
1278
21
169.125
0
LINE
8
bottom_outsideCutPath
10
1278
20
169.125
11
1278
21
135.375
0
LINE
8
bottom_outsideCutPath
10
1278
20
135.375
11
1281
21
135.375
0
LINE
8
bottom_outsideCutPath
10
1281
20
135.375
11
1281
21
101.625
0
LINE
8
bottom_outsideCutPath
10
1281
20
101.625
11
1278
21
101.625
0
LINE
8
bottom_outsideCutPath
10
1278
20
101.625
11
1278
21
67.875
0
LINE
8
bottom_outsideCutPath
10
1278
20
67.875
11
1281
21
67.875
0
LINE
8
bottom_outsideCutPath
10
1281
20
67.875
11
1281
21
34.125
0
LINE
8
bottom_outsideCutPath
10
1281
20
34.125
11
1281
21
6
0
LINE
8
bottom_outsideCutPath
10
1281
20
6
11
1342.875
21
6
0
LINE
8
bottom_outsideCutPath
10
1342.875
20
6
11
1342.875
21
3
0
LINE
8
bottom_outsideCutPath
10
1342.875
20
3
11
1376.625
21
3
0
LINE
8
bottom_outsideCutPath
10
1376.625
20
3
11
1376.625
21
6
0
LINE
8
bottom_outsideCutPath
10
1376.625
20
6
11
1410.375
21
6
0
LINE
8
bottom_outsideCutPath
10
1410.375
20
6
11
1410.375
21
3
0
LINE
8
bottom_outsideCutPath
10
1410.375
20
3
11
1444.125
21
3
0
LINE
8
bottom_outsideCutPath
10
1444.125
20
3
11
1444.125
21
6
0
LINE
8
bottom_outsideCutPath
10
1444.125
20
6
11
1477.875
21
6
0
LINE
8
bottom_outsideCutPath
10
1477.875
20
6
11
1477.875
21
3
0
LINE
8
bottom_outsideCutPath
10
1477.875
20
3
11
1511.625
21
3
0
LINE
8
bottom_outsideCutPath
10
1511.625
20
3
11
1511.625
21
6
0
LINE
8
bottom_outsideCutPath
10
1511.625
20
6
11
1545.375
21
6
0
LINE
8
bottom_outsideCutPath
10
1545.375
20
6
11
1545.375
21
3
0
LINE
8
bottom_outsideCutPath
10
1545.375
20
3
11
1579.125
21
3
0
LINE
8
bottom_outsideCutPath
10
1579.125
20
3
11
1579.125
21
6
0
LINE
8
bottom_outsideCutPath
10
1579.125
20
6
11
1612.875
21
6
0
LINE
8
bottom_outsideCutPath
10
1612.875
20
6
11
1612.875
21
3
0
LINE
8
bottom_outsideCutPath
10
1612.875
20
3
11
1646.625
21
3
0
LINE
8
bottom_outsideCutPath
10
1646.625
20
3
11
1646.625
21
6
0
LINE
8
bottom_outsideCutPath
10
1646.625
20
6
11
1680.375
21
6
0
LINE
8
bottom_outsideCutPath
10
1680.375
20
6
11
1680.375
21
3
0
LINE
8
bottom_outsideCutPath
10
1680.375
20
3
11
1714.125
21
3
0
LINE
8
bottom_outsideCutPath
10
1714.125
20
3
11
1714.125
21
6
0
LINE
8
bottom_outsideCutPath
10
1714.125
20
6
11
1747.875
21
6
0
LINE
8
bottom_outsideCutPath
10
1747.875
20
6
11
1747.875
21
3
0
LINE
8
bottom_outsideCutPath
10
1747.875
20
3
11
1781.625
21
3
0
LINE
8
bottom_outsideCutPath
10
1781.625
20
3
11
1781.625
21
6
0
LINE
8
bottom_outsideCutPath
10
1781.625
20
6
11
1815.375
21
6
0
LINE
8
bottom_outsideCutPath
10
1815.375
20
6
11
1815.375
21
3
0
LINE
8
bottom_outsideCutPath
10
1815.375
20
3
11
1849.125
21
3
0
LINE
8
bottom_outsideCutPath
10
1849.125
20
3
11
1849.125
21
6
0
LINE
8
bottom_outsideCutPath
10
1849.125
20
6
11
1882.875
21
6
0
LINE
8
bottom_outsideCutPath
10
1882.875
20
6
11
1911
21
6
0
LINE
8
bottom_outsideCutPath
10
1911
20
6
11
1911
21
67.875
0
LINE
8
bottom_outsideCutPath
10
1911
20
67.875
11
1914
21
67.875
0
LINE
8
bottom_outsideCutPath
10
1914
20
67.875
11
1914
21
101.625
0
LINE
8
bottom_outsideCutPath
10
1914
20
101.625
11
1911
21
101.625
0
LINE
8
bottom_outsideCutPath
10
1911
20
101.625
11
1911
21
135.375
0
LINE
8
bottom_outsideCutPath
10
1911
20
135.375
11
1914
21
135.375
0
LINE
8
bottom_outsideCutPath
10
1914
20
135.375
11
1914
21
169.125
0
LINE
8
bottom_outsideCutPath
10
1914
20
169.125
11
1911
21
169.125
0
LINE
8
bottom_outsideCutPath
10
1911
20
169.125
11
1911
21
202.875
0
LINE
8
bottom_outsideCutPath
10
1911
20
202.875
11
1914
21
202.875
0
LINE
8
bottom_outsideCutPath
10
1914
20
202.875
11
1914
21
236.625
0
LINE
8
bottom_outsideCutPath
10
1914
20
236.625
11
1911
21
236.625
0
LINE
8
bottom_outsideCutPath
10
1911
20
236.625
11
1911
21
270.375
0
LINE
8
bottom_outsideCutPath
10
1911
20
270.375
11
1914
21
270.375
0
LINE
8
bottom_outsideCutPath
10
1914
20
270.375
11
1914
21
304.125
0
LINE
8
bottom_outsideCutPath
10
1914
20
304.125
11
1911
21
304.125
0
LINE
8
bottom_outsideCutPath
10
1911
20
304.125
11
1911
21
337.875
0
LINE
8
bottom_outsideCutPath
10
1911
20
337.875
11
1914
21
337.875
0
LINE
8
bottom_outsideCutPath
10
1914
20
337.875
11
1914
21
371.625
0
LINE
8
bottom_outsideCutPath
10
1914
20
371.625
11
1911
21
371.625
0
LINE
8
bottom_outsideCutPath
10
1911
20
371.625
11
1911
21
405.375
0
LINE
8
bottom_outsideCutPath
10
1911
20
405.375
11
1914
21
405.375
0
LINE
8
bottom_outsideCutPath
10
1914
20
405.375
11
1914
21
439.125
0
LINE
8
bottom_outsideCutPath
10
1914
20
439.125
11
1911
21
439.125
0
LINE
8
bottom_outsideCutPath
10
1911
20
439.125
11
1911
21
472.875
0
LINE
8
bottom_outsideCutPath
10
1911
20
472.875
11
1914
21
472.875
0
LINE
8
bottom_outsideCutPath
10
1914
20
472.875
11
1914
21
506.625
0
LINE
8
bottom_outsideCutPath
10
1914
20
506.625
11
1911
21
506.625
0
LINE
8
bottom_outsideCutPath
10
1911
20
506.625
11
1911
21
540.375
0
LINE
8
bottom_outsideCutPath
10
1911
20
540.375
11
1914
21
540.375
0
LINE
8
bottom_outsideCutPath
10
1914
20
540.375
11
1914
21
574.125
0
LINE
8
bottom_outsideCutPath
10
1914
20
574.125
11
1911
21
574.125
0
LINE
8
bottom_outsideCutPath
10
1911
20
574.125
11
1911
21
607.875
0
LINE
8
bottom_outsideCutPath
10
1911
20
607.875
11
1911
21
636
0
LINE
8
bottom_outsideCutPath
10
1911
20
636
11
1849.125
21
636
0
LINE
8
bottom_outsideCutPath
10
1849.125
20
636
11
1849.125
21
639
0
LINE
8
bottom_outsideCutPath
10
1849.125
20
639
11
1815.375
21
639
0
LINE
8
bottom_outsideCutPath
10
1815.375
20
639
11
1815.375
21
636
0
LINE
8
bottom_outsideCutPath
10
1815.375
20
636
11
1781.625
21
636
0
LINE
8
bottom_outsideCutPath
10
1781.625
20
636
11
1781.625
21
639
0
LINE
8
bottom_outsideCutPath
10
1781.625
20
639
11
1747.875
21
639
0
LINE
8
bottom_outsideCutPath
10
1747.875
20
639
11
1747.875
21
636
0
LINE
8
bottom_outsideCutPath
10
1747.875
20
636
11
1714.125
21
636
0
LINE
8
bottom_outsideCutPath
10
1714.125
20
636
11
1714.125
21
639
0
LINE
8
bottom_outsideCutPath
10
1714.125
20
639
11
1680.375
21
639
0
LINE
8
bottom_outsideCutPath
10
1680.375
20
639
11
1680.375
21
636
0
LINE
8
bottom_outsideCutPath
10
1680.375
20
636
11
1646.625
21
636
0
LINE
8
bottom_outsideCutPath
10
1646.625
20
636
11
1646.625
21
639
0
LINE
8
bottom_outsideCutPath
10
1646.625
20
639
11
1612.875
21
639
0
LINE
8
bottom_outsideCutPath
10
1612.875
20
639
11
1612.875
21
636
0
LINE
8
bottom_outsideCutPath
10
1612.875
20
636
11
1579.125
21
636
0
LINE
8
bottom_outsideCutPath
10
1579.125
20
636
11
1579.125
21
639
0
LINE
8
bottom_outsideCutPath
10
1579.125
20
639
11
1545.375
21
639
0
LINE
8
bottom_outsideCutPath
10
1545.375
20
639
11
1545.375
21
636
0
LINE
8
bottom_outsideCutPath
10
1545.375
20
636
11
1511.625
21
636
0
LINE
8
bottom_outsideCutPath
10
1511.625
20
636
11
1511.625
21
639
0
LINE
8
bottom_outsideCutPath
10
1511.625
20
639
11
1477.875
21
639
0
LINE
8
bottom_outsideCutPath
10
1477.875
20
639
11
1477.875
21
636
0
LINE
8
bottom_outsideCutPath
10
1477.875
20
636
11
1444.125
21
636
0
LINE
8
bottom_outsideCutPath
10
1444.125
20
636
11
1444.125
21
639
0
LINE
8
bottom_outsideCutPath
10
1444.125
20
639
11
1410.375
21
639
0
LINE
8
bottom_outsideCutPath
10
1410.375
20
639
11
1410.375
21
636
0
LINE
8
bottom_outsideCutPath
10
1410.375
20
636
11
1376.625
21
636
0
LINE
8
bottom_outsideCutPath
10
1376.625
20
636
11
1376.625
21
639
0
LINE
8
bottom_outsideCutPath
10
1376.625
20
639
11
1342.875
21
639
0
LINE
8
bottom_outsideCutPath
10
1342.875
20
639
11
1342.875
21
636
0
LINE
8
bottom_outsideCutPath
10
1342.875
20
636
11
1309.125
21
636
0
LINE
8
bottom_outsideCutPath
10
1309.125
20
636
11
1281
21
636
0
ENDSEC
0
EOF